STARTFONT 2.1
COMMENT
COMMENT Converted from OpenType font "texgyrecursor-regular.otf" by "otf2bdf 3.0".
COMMENT
FONT -FreeType-TeXGyreCursor-Medium-R-Normal--13-130-72-72-P-60-ISO10646-1
SIZE 13 72 72
FONTBOUNDINGBOX 21 17 -7 -4
STARTPROPERTIES 19
FOUNDRY "FreeType"
FAMILY_NAME "TeXGyreCursor"
WEIGHT_NAME "Medium"
SLANT "R"
SETWIDTH_NAME "Normal"
ADD_STYLE_NAME ""
PIXEL_SIZE 13
POINT_SIZE 130
RESOLUTION_X 72
RESOLUTION_Y 72
SPACING "P"
AVERAGE_WIDTH 80
CHARSET_REGISTRY "ISO10646"
CHARSET_ENCODING "1"
FONT_ASCENT 12
FONT_DESCENT 3
COPYRIGHT "Copyright (URW)++, copyright 1999 by (URW)++ Design & Development; Cyrillic glyphs added by Valek Filippov, copyright 2001-2002; Vietnamese characters were added by Han The Thanh; copyright 2006, 2008 for TeX Gyre extensions by B. Jackowski and J.M. Nowacki (on behalf of TeX users groups). This work is released under the GUST Font License --  see http://tug.org/fonts/licenses/GUST-FONT-LICENSE.txt for details."
_OTF_FONTFILE "texgyrecursor-regular.otf"
_OTF_PSNAME "TeXGyreCursor-Regular"
ENDPROPERTIES
CHARS 1206
STARTCHAR 0020
ENCODING 32
SWIDTH 615 0
DWIDTH 8 0
BBX 0 0 0 0
BITMAP
ENDCHAR
STARTCHAR 0021
ENCODING 33
SWIDTH 615 0
DWIDTH 8 0
BBX 2 8 3 0
BITMAP
80
80
80
80
80
00
00
C0
ENDCHAR
STARTCHAR 0022
ENCODING 34
SWIDTH 615 0
DWIDTH 8 0
BBX 3 4 2 4
BITMAP
A0
A0
A0
A0
ENDCHAR
STARTCHAR 0023
ENCODING 35
SWIDTH 615 0
DWIDTH 8 0
BBX 5 9 1 -1
BITMAP
30
30
50
78
50
F8
50
50
50
ENDCHAR
STARTCHAR 0024
ENCODING 36
SWIDTH 615 0
DWIDTH 8 0
BBX 5 10 1 -1
BITMAP
20
70
88
80
70
08
88
F8
20
20
ENDCHAR
STARTCHAR 0025
ENCODING 37
SWIDTH 615 0
DWIDTH 8 0
BBX 6 8 1 0
BITMAP
60
90
A0
4C
70
18
28
18
ENDCHAR
STARTCHAR 0026
ENCODING 38
SWIDTH 615 0
DWIDTH 8 0
BBX 5 7 1 0
BITMAP
30
40
40
68
A8
90
68
ENDCHAR
STARTCHAR 0027
ENCODING 39
SWIDTH 615 0
DWIDTH 8 0
BBX 1 4 3 4
BITMAP
80
80
80
80
ENDCHAR
STARTCHAR 0028
ENCODING 40
SWIDTH 615 0
DWIDTH 8 0
BBX 2 10 4 -2
BITMAP
40
80
80
80
80
80
80
80
80
40
ENDCHAR
STARTCHAR 0029
ENCODING 41
SWIDTH 615 0
DWIDTH 8 0
BBX 2 10 2 -2
BITMAP
80
80
40
40
40
40
40
40
80
80
ENDCHAR
STARTCHAR 002A
ENCODING 42
SWIDTH 615 0
DWIDTH 8 0
BBX 4 5 2 3
BITMAP
40
40
F0
60
A0
ENDCHAR
STARTCHAR 002B
ENCODING 43
SWIDTH 615 0
DWIDTH 8 0
BBX 6 7 1 0
BITMAP
20
20
20
FC
20
20
20
ENDCHAR
STARTCHAR 002C
ENCODING 44
SWIDTH 615 0
DWIDTH 8 0
BBX 1 4 2 -2
BITMAP
80
80
80
80
ENDCHAR
STARTCHAR 002D
ENCODING 45
SWIDTH 615 0
DWIDTH 8 0
BBX 6 1 1 3
BITMAP
FC
ENDCHAR
STARTCHAR 002E
ENCODING 46
SWIDTH 615 0
DWIDTH 8 0
BBX 2 2 3 0
BITMAP
C0
C0
ENDCHAR
STARTCHAR 002F
ENCODING 47
SWIDTH 615 0
DWIDTH 8 0
BBX 5 9 1 0
BITMAP
08
10
10
20
20
40
40
40
80
ENDCHAR
STARTCHAR 0030
ENCODING 48
SWIDTH 615 0
DWIDTH 8 0
BBX 5 8 1 0
BITMAP
30
C8
88
88
88
88
88
70
ENDCHAR
STARTCHAR 0031
ENCODING 49
SWIDTH 615 0
DWIDTH 8 0
BBX 4 8 2 0
BITMAP
40
C0
40
40
40
40
40
F0
ENDCHAR
STARTCHAR 0032
ENCODING 50
SWIDTH 615 0
DWIDTH 8 0
BBX 5 8 1 0
BITMAP
70
88
08
08
10
20
40
F8
ENDCHAR
STARTCHAR 0033
ENCODING 51
SWIDTH 615 0
DWIDTH 8 0
BBX 4 8 2 0
BITMAP
E0
10
10
60
10
10
10
E0
ENDCHAR
STARTCHAR 0034
ENCODING 52
SWIDTH 615 0
DWIDTH 8 0
BBX 5 8 1 0
BITMAP
10
30
50
50
90
F8
10
18
ENDCHAR
STARTCHAR 0035
ENCODING 53
SWIDTH 615 0
DWIDTH 8 0
BBX 5 8 1 0
BITMAP
78
80
90
68
08
08
88
70
ENDCHAR
STARTCHAR 0036
ENCODING 54
SWIDTH 615 0
DWIDTH 8 0
BBX 5 8 2 0
BITMAP
38
C0
80
F0
90
88
90
70
ENDCHAR
STARTCHAR 0037
ENCODING 55
SWIDTH 615 0
DWIDTH 8 0
BBX 5 8 1 0
BITMAP
F8
08
08
10
10
10
20
20
ENDCHAR
STARTCHAR 0038
ENCODING 56
SWIDTH 615 0
DWIDTH 8 0
BBX 5 8 1 0
BITMAP
70
88
88
70
48
88
88
70
ENDCHAR
STARTCHAR 0039
ENCODING 57
SWIDTH 615 0
DWIDTH 8 0
BBX 5 8 2 0
BITMAP
60
90
90
88
78
10
10
E0
ENDCHAR
STARTCHAR 003A
ENCODING 58
SWIDTH 615 0
DWIDTH 8 0
BBX 2 6 3 0
BITMAP
C0
C0
00
00
C0
C0
ENDCHAR
STARTCHAR 003B
ENCODING 59
SWIDTH 615 0
DWIDTH 8 0
BBX 2 8 3 -2
BITMAP
C0
C0
00
00
80
80
80
80
ENDCHAR
STARTCHAR 003C
ENCODING 60
SWIDTH 615 0
DWIDTH 8 0
BBX 5 5 1 1
BITMAP
08
30
C0
60
18
ENDCHAR
STARTCHAR 003D
ENCODING 61
SWIDTH 615 0
DWIDTH 8 0
BBX 6 3 1 2
BITMAP
FC
00
FC
ENDCHAR
STARTCHAR 003E
ENCODING 62
SWIDTH 615 0
DWIDTH 8 0
BBX 4 5 2 1
BITMAP
80
60
10
20
C0
ENDCHAR
STARTCHAR 003F
ENCODING 63
SWIDTH 615 0
DWIDTH 8 0
BBX 4 8 2 0
BITMAP
F0
90
10
10
60
00
00
60
ENDCHAR
STARTCHAR 0040
ENCODING 64
SWIDTH 615 0
DWIDTH 8 0
BBX 5 9 1 -1
BITMAP
70
88
88
B8
A8
98
80
80
78
ENDCHAR
STARTCHAR 0041
ENCODING 65
SWIDTH 615 0
DWIDTH 8 0
BBX 8 8 0 0
BITMAP
70
28
28
28
44
3C
42
E7
ENDCHAR
STARTCHAR 0042
ENCODING 66
SWIDTH 615 0
DWIDTH 8 0
BBX 6 8 1 0
BITMAP
F8
88
88
78
84
84
84
F8
ENDCHAR
STARTCHAR 0043
ENCODING 67
SWIDTH 615 0
DWIDTH 8 0
BBX 6 8 1 0
BITMAP
7C
84
80
80
80
80
84
78
ENDCHAR
STARTCHAR 0044
ENCODING 68
SWIDTH 615 0
DWIDTH 8 0
BBX 6 8 1 0
BITMAP
F0
88
84
84
84
84
88
F0
ENDCHAR
STARTCHAR 0045
ENCODING 69
SWIDTH 615 0
DWIDTH 8 0
BBX 6 8 1 0
BITMAP
F8
88
80
70
90
84
84
FC
ENDCHAR
STARTCHAR 0046
ENCODING 70
SWIDTH 615 0
DWIDTH 8 0
BBX 6 8 1 0
BITMAP
FC
84
80
70
90
80
80
E0
ENDCHAR
STARTCHAR 0047
ENCODING 71
SWIDTH 615 0
DWIDTH 8 0
BBX 6 8 1 0
BITMAP
7C
84
80
80
9C
84
84
78
ENDCHAR
STARTCHAR 0048
ENCODING 72
SWIDTH 615 0
DWIDTH 8 0
BBX 6 8 1 0
BITMAP
CC
88
88
78
88
88
88
CC
ENDCHAR
STARTCHAR 0049
ENCODING 73
SWIDTH 615 0
DWIDTH 8 0
BBX 4 8 2 0
BITMAP
F0
40
40
40
40
40
40
F0
ENDCHAR
STARTCHAR 004A
ENCODING 74
SWIDTH 615 0
DWIDTH 8 0
BBX 6 8 1 0
BITMAP
3C
08
08
08
88
88
88
70
ENDCHAR
STARTCHAR 004B
ENCODING 75
SWIDTH 615 0
DWIDTH 8 0
BBX 6 8 1 0
BITMAP
CC
90
90
A0
50
88
88
C4
ENDCHAR
STARTCHAR 004C
ENCODING 76
SWIDTH 615 0
DWIDTH 8 0
BBX 6 8 1 0
BITMAP
E0
40
40
40
40
44
44
FC
ENDCHAR
STARTCHAR 004D
ENCODING 77
SWIDTH 615 0
DWIDTH 8 0
BBX 8 8 0 0
BITMAP
C2
A6
AA
AA
9A
82
82
E7
ENDCHAR
STARTCHAR 004E
ENCODING 78
SWIDTH 615 0
DWIDTH 8 0
BBX 7 8 0 0
BITMAP
C6
62
62
52
52
4A
46
62
ENDCHAR
STARTCHAR 004F
ENCODING 79
SWIDTH 615 0
DWIDTH 8 0
BBX 6 8 1 0
BITMAP
70
88
84
84
84
84
88
70
ENDCHAR
STARTCHAR 0050
ENCODING 80
SWIDTH 615 0
DWIDTH 8 0
BBX 5 8 1 0
BITMAP
F8
88
88
88
70
80
80
E0
ENDCHAR
STARTCHAR 0051
ENCODING 81
SWIDTH 615 0
DWIDTH 8 0
BBX 6 10 1 -2
BITMAP
70
88
84
84
84
84
88
78
40
3C
ENDCHAR
STARTCHAR 0052
ENCODING 82
SWIDTH 615 0
DWIDTH 8 0
BBX 6 8 1 0
BITMAP
F8
88
88
88
70
88
88
C4
ENDCHAR
STARTCHAR 0053
ENCODING 83
SWIDTH 615 0
DWIDTH 8 0
BBX 6 8 1 0
BITMAP
70
88
80
60
18
04
88
F8
ENDCHAR
STARTCHAR 0054
ENCODING 84
SWIDTH 615 0
DWIDTH 8 0
BBX 6 8 1 0
BITMAP
FC
24
20
20
20
20
20
78
ENDCHAR
STARTCHAR 0055
ENCODING 85
SWIDTH 615 0
DWIDTH 8 0
BBX 6 8 1 0
BITMAP
CC
88
88
88
88
88
88
70
ENDCHAR
STARTCHAR 0056
ENCODING 86
SWIDTH 615 0
DWIDTH 8 0
BBX 8 8 0 0
BITMAP
E7
42
44
44
28
28
18
10
ENDCHAR
STARTCHAR 0057
ENCODING 87
SWIDTH 615 0
DWIDTH 8 0
BBX 7 8 0 0
BITMAP
E6
82
5A
5A
6A
6C
64
24
ENDCHAR
STARTCHAR 0058
ENCODING 88
SWIDTH 615 0
DWIDTH 8 0
BBX 6 8 1 0
BITMAP
CC
48
50
20
30
50
88
CC
ENDCHAR
STARTCHAR 0059
ENCODING 89
SWIDTH 615 0
DWIDTH 8 0
BBX 6 8 1 0
BITMAP
CC
48
50
30
20
20
20
78
ENDCHAR
STARTCHAR 005A
ENCODING 90
SWIDTH 615 0
DWIDTH 8 0
BBX 5 8 1 0
BITMAP
78
88
10
20
20
40
88
F8
ENDCHAR
STARTCHAR 005B
ENCODING 91
SWIDTH 615 0
DWIDTH 8 0
BBX 2 10 4 -2
BITMAP
C0
80
80
80
80
80
80
80
80
C0
ENDCHAR
STARTCHAR 005C
ENCODING 92
SWIDTH 615 0
DWIDTH 8 0
BBX 5 10 1 -1
BITMAP
80
40
40
40
20
20
10
10
08
08
ENDCHAR
STARTCHAR 005D
ENCODING 93
SWIDTH 615 0
DWIDTH 8 0
BBX 2 10 2 -2
BITMAP
C0
40
40
40
40
40
40
40
40
C0
ENDCHAR
STARTCHAR 005E
ENCODING 94
SWIDTH 615 0
DWIDTH 8 0
BBX 5 3 1 5
BITMAP
20
50
88
ENDCHAR
STARTCHAR 005F
ENCODING 95
SWIDTH 615 0
DWIDTH 8 0
BBX 8 1 0 -2
BITMAP
FF
ENDCHAR
STARTCHAR 0060
ENCODING 96
SWIDTH 615 0
DWIDTH 8 0
BBX 2 2 2 6
BITMAP
80
40
ENDCHAR
STARTCHAR 0061
ENCODING 97
SWIDTH 615 0
DWIDTH 8 0
BBX 6 6 1 0
BITMAP
70
08
28
D8
88
FC
ENDCHAR
STARTCHAR 0062
ENCODING 98
SWIDTH 615 0
DWIDTH 8 0
BBX 7 8 0 0
BITMAP
C0
40
5C
62
42
42
42
FC
ENDCHAR
STARTCHAR 0063
ENCODING 99
SWIDTH 615 0
DWIDTH 8 0
BBX 6 6 1 0
BITMAP
7C
84
80
80
84
78
ENDCHAR
STARTCHAR 0064
ENCODING 100
SWIDTH 615 0
DWIDTH 8 0
BBX 6 8 1 0
BITMAP
0C
04
74
8C
84
84
84
7C
ENDCHAR
STARTCHAR 0065
ENCODING 101
SWIDTH 615 0
DWIDTH 8 0
BBX 6 6 1 0
BITMAP
70
88
FC
80
80
78
ENDCHAR
STARTCHAR 0066
ENCODING 102
SWIDTH 615 0
DWIDTH 8 0
BBX 5 8 2 0
BITMAP
78
40
F0
40
40
40
40
F0
ENDCHAR
STARTCHAR 0067
ENCODING 103
SWIDTH 615 0
DWIDTH 8 0
BBX 6 8 1 -2
BITMAP
74
88
88
88
88
78
08
78
ENDCHAR
STARTCHAR 0068
ENCODING 104
SWIDTH 615 0
DWIDTH 8 0
BBX 6 8 1 0
BITMAP
80
80
B8
C8
88
88
88
CC
ENDCHAR
STARTCHAR 0069
ENCODING 105
SWIDTH 615 0
DWIDTH 8 0
BBX 5 8 1 0
BITMAP
30
00
60
20
20
20
20
F8
ENDCHAR
STARTCHAR 006A
ENCODING 106
SWIDTH 615 0
DWIDTH 8 0
BBX 4 11 2 -3
BITMAP
30
00
F0
10
10
10
10
10
10
10
E0
ENDCHAR
STARTCHAR 006B
ENCODING 107
SWIDTH 615 0
DWIDTH 8 0
BBX 6 8 1 0
BITMAP
80
80
98
A0
C0
A0
90
8C
ENDCHAR
STARTCHAR 006C
ENCODING 108
SWIDTH 615 0
DWIDTH 8 0
BBX 5 8 1 0
BITMAP
60
20
20
20
20
20
20
F8
ENDCHAR
STARTCHAR 006D
ENCODING 109
SWIDTH 615 0
DWIDTH 8 0
BBX 8 6 0 0
BITMAP
BE
D2
92
92
92
CB
ENDCHAR
STARTCHAR 006E
ENCODING 110
SWIDTH 615 0
DWIDTH 8 0
BBX 6 6 1 0
BITMAP
B8
C8
88
88
88
CC
ENDCHAR
STARTCHAR 006F
ENCODING 111
SWIDTH 615 0
DWIDTH 8 0
BBX 6 6 1 0
BITMAP
78
88
84
84
88
78
ENDCHAR
STARTCHAR 0070
ENCODING 112
SWIDTH 615 0
DWIDTH 8 0
BBX 7 8 0 -2
BITMAP
DC
62
42
42
42
7C
40
E0
ENDCHAR
STARTCHAR 0071
ENCODING 113
SWIDTH 615 0
DWIDTH 8 0
BBX 6 8 1 -2
BITMAP
74
8C
84
84
8C
74
04
0C
ENDCHAR
STARTCHAR 0072
ENCODING 114
SWIDTH 615 0
DWIDTH 8 0
BBX 6 6 1 0
BITMAP
DC
20
40
40
40
F8
ENDCHAR
STARTCHAR 0073
ENCODING 115
SWIDTH 615 0
DWIDTH 8 0
BBX 5 6 1 0
BITMAP
70
88
60
18
88
F8
ENDCHAR
STARTCHAR 0074
ENCODING 116
SWIDTH 615 0
DWIDTH 8 0
BBX 5 8 1 0
BITMAP
80
80
F0
80
80
80
80
78
ENDCHAR
STARTCHAR 0075
ENCODING 117
SWIDTH 615 0
DWIDTH 8 0
BBX 6 6 1 0
BITMAP
98
88
88
88
88
74
ENDCHAR
STARTCHAR 0076
ENCODING 118
SWIDTH 615 0
DWIDTH 8 0
BBX 6 6 1 0
BITMAP
CC
88
48
50
50
30
ENDCHAR
STARTCHAR 0077
ENCODING 119
SWIDTH 615 0
DWIDTH 8 0
BBX 6 6 1 0
BITMAP
8C
84
B8
B8
C8
48
ENDCHAR
STARTCHAR 0078
ENCODING 120
SWIDTH 615 0
DWIDTH 8 0
BBX 6 6 1 0
BITMAP
CC
48
30
30
48
CC
ENDCHAR
STARTCHAR 0079
ENCODING 121
SWIDTH 615 0
DWIDTH 8 0
BBX 6 9 1 -3
BITMAP
CC
88
48
50
30
20
20
40
E0
ENDCHAR
STARTCHAR 007A
ENCODING 122
SWIDTH 615 0
DWIDTH 8 0
BBX 4 6 2 0
BITMAP
F0
20
20
40
80
F0
ENDCHAR
STARTCHAR 007B
ENCODING 123
SWIDTH 615 0
DWIDTH 8 0
BBX 2 10 3 -2
BITMAP
40
80
80
80
80
80
80
80
80
40
ENDCHAR
STARTCHAR 007C
ENCODING 124
SWIDTH 615 0
DWIDTH 8 0
BBX 1 10 3 -2
BITMAP
80
80
80
80
80
80
80
80
80
80
ENDCHAR
STARTCHAR 007D
ENCODING 125
SWIDTH 615 0
DWIDTH 8 0
BBX 2 10 3 -2
BITMAP
80
80
80
80
80
C0
80
80
80
80
ENDCHAR
STARTCHAR 007E
ENCODING 126
SWIDTH 615 0
DWIDTH 8 0
BBX 5 3 1 2
BITMAP
40
A8
10
ENDCHAR
STARTCHAR 00A0
ENCODING 160
SWIDTH 615 0
DWIDTH 8 0
BBX 0 0 0 0
BITMAP
ENDCHAR
STARTCHAR 00A1
ENCODING 161
SWIDTH 615 0
DWIDTH 8 0
BBX 2 8 3 -2
BITMAP
C0
00
00
80
80
80
80
80
ENDCHAR
STARTCHAR 00A2
ENCODING 162
SWIDTH 615 0
DWIDTH 8 0
BBX 5 8 1 0
BITMAP
20
20
58
80
80
48
30
20
ENDCHAR
STARTCHAR 00A3
ENCODING 163
SWIDTH 615 0
DWIDTH 8 0
BBX 6 8 1 0
BITMAP
30
40
40
E0
40
40
44
FC
ENDCHAR
STARTCHAR 00A4
ENCODING 164
SWIDTH 615 0
DWIDTH 8 0
BBX 5 6 1 1
BITMAP
88
78
48
88
78
88
ENDCHAR
STARTCHAR 00A5
ENCODING 165
SWIDTH 615 0
DWIDTH 8 0
BBX 6 8 1 0
BITMAP
CC
48
50
30
20
20
30
70
ENDCHAR
STARTCHAR 00A6
ENCODING 166
SWIDTH 615 0
DWIDTH 8 0
BBX 1 10 3 -2
BITMAP
80
80
80
80
00
00
80
80
80
80
ENDCHAR
STARTCHAR 00A7
ENCODING 167
SWIDTH 615 0
DWIDTH 8 0
BBX 6 9 1 -1
BITMAP
78
40
C0
B0
88
64
1C
88
F0
ENDCHAR
STARTCHAR 00A8
ENCODING 168
SWIDTH 615 0
DWIDTH 8 0
BBX 4 1 2 7
BITMAP
B0
ENDCHAR
STARTCHAR 00A9
ENCODING 169
SWIDTH 615 0
DWIDTH 8 0
BBX 8 7 0 0
BITMAP
7C
9E
E6
C1
A6
9A
7C
ENDCHAR
STARTCHAR 00AA
ENCODING 170
SWIDTH 615 0
DWIDTH 8 0
BBX 4 5 2 3
BITMAP
E0
20
E0
B0
F0
ENDCHAR
STARTCHAR 00AB
ENCODING 171
SWIDTH 615 0
DWIDTH 8 0
BBX 6 6 1 0
BITMAP
24
48
90
90
48
24
ENDCHAR
STARTCHAR 00AC
ENCODING 172
SWIDTH 615 0
DWIDTH 8 0
BBX 6 3 1 2
BITMAP
FC
04
04
ENDCHAR
STARTCHAR 00AD
ENCODING 173
SWIDTH 615 0
DWIDTH 8 0
BBX 6 1 1 3
BITMAP
FC
ENDCHAR
STARTCHAR 00AE
ENCODING 174
SWIDTH 615 0
DWIDTH 8 0
BBX 8 7 0 0
BITMAP
7C
BA
AA
B1
AA
86
7C
ENDCHAR
STARTCHAR 00AF
ENCODING 175
SWIDTH 615 0
DWIDTH 8 0
BBX 4 1 2 7
BITMAP
F0
ENDCHAR
STARTCHAR 00B0
ENCODING 176
SWIDTH 615 0
DWIDTH 8 0
BBX 4 4 2 5
BITMAP
F0
90
90
60
ENDCHAR
STARTCHAR 00B1
ENCODING 177
SWIDTH 615 0
DWIDTH 8 0
BBX 6 7 1 0
BITMAP
20
20
20
FC
20
20
FC
ENDCHAR
STARTCHAR 00B2
ENCODING 178
SWIDTH 615 0
DWIDTH 8 0
BBX 3 4 2 4
BITMAP
60
20
40
C0
ENDCHAR
STARTCHAR 00B3
ENCODING 179
SWIDTH 615 0
DWIDTH 8 0
BBX 2 4 3 4
BITMAP
C0
40
40
C0
ENDCHAR
STARTCHAR 00B4
ENCODING 180
SWIDTH 615 0
DWIDTH 8 0
BBX 2 2 3 6
BITMAP
40
80
ENDCHAR
STARTCHAR 00B5
ENCODING 181
SWIDTH 615 0
DWIDTH 8 0
BBX 6 8 1 -2
BITMAP
88
88
88
88
88
74
80
80
ENDCHAR
STARTCHAR 00B6
ENCODING 182
SWIDTH 615 0
DWIDTH 8 0
BBX 6 9 1 -1
BITMAP
7C
A8
A8
A8
68
28
28
28
6C
ENDCHAR
STARTCHAR 00B7
ENCODING 183
SWIDTH 615 0
DWIDTH 8 0
BBX 2 2 3 2
BITMAP
C0
80
ENDCHAR
STARTCHAR 00B8
ENCODING 184
SWIDTH 615 0
DWIDTH 8 0
BBX 2 2 3 -2
BITMAP
80
C0
ENDCHAR
STARTCHAR 00B9
ENCODING 185
SWIDTH 615 0
DWIDTH 8 0
BBX 1 4 3 4
BITMAP
80
80
80
80
ENDCHAR
STARTCHAR 00BA
ENCODING 186
SWIDTH 615 0
DWIDTH 8 0
BBX 4 5 2 3
BITMAP
60
90
90
60
F0
ENDCHAR
STARTCHAR 00BB
ENCODING 187
SWIDTH 615 0
DWIDTH 8 0
BBX 6 6 1 0
BITMAP
90
48
6C
6C
48
90
ENDCHAR
STARTCHAR 00BC
ENCODING 188
SWIDTH 615 0
DWIDTH 8 0
BBX 6 8 1 0
BITMAP
80
84
88
94
14
3C
54
0C
ENDCHAR
STARTCHAR 00BD
ENCODING 189
SWIDTH 615 0
DWIDTH 8 0
BBX 7 8 0 0
BITMAP
C0
40
44
48
5E
22
44
0C
ENDCHAR
STARTCHAR 00BE
ENCODING 190
SWIDTH 615 0
DWIDTH 8 0
BBX 6 8 1 0
BITMAP
C0
44
48
50
A4
2C
54
0C
ENDCHAR
STARTCHAR 00BF
ENCODING 191
SWIDTH 615 0
DWIDTH 8 0
BBX 5 8 1 -2
BITMAP
30
00
00
20
40
80
80
78
ENDCHAR
STARTCHAR 00C0
ENCODING 192
SWIDTH 615 0
DWIDTH 8 0
BBX 8 10 0 0
BITMAP
10
00
70
28
28
28
44
3C
42
E7
ENDCHAR
STARTCHAR 00C1
ENCODING 193
SWIDTH 615 0
DWIDTH 8 0
BBX 8 10 0 0
BITMAP
08
00
70
28
28
28
44
3C
42
E7
ENDCHAR
STARTCHAR 00C2
ENCODING 194
SWIDTH 615 0
DWIDTH 8 0
BBX 8 10 0 0
BITMAP
38
00
70
28
28
28
44
3C
42
E7
ENDCHAR
STARTCHAR 00C3
ENCODING 195
SWIDTH 615 0
DWIDTH 8 0
BBX 8 10 0 1
BITMAP
34
08
70
28
28
28
44
3C
42
E7
ENDCHAR
STARTCHAR 00C4
ENCODING 196
SWIDTH 615 0
DWIDTH 8 0
BBX 8 10 0 0
BITMAP
2C
00
70
28
28
28
44
3C
42
E7
ENDCHAR
STARTCHAR 00C5
ENCODING 197
SWIDTH 615 0
DWIDTH 8 0
BBX 8 10 0 0
BITMAP
38
28
70
28
28
28
44
3C
42
E7
ENDCHAR
STARTCHAR 00C6
ENCODING 198
SWIDTH 615 0
DWIDTH 8 0
BBX 8 8 0 0
BITMAP
3E
32
30
2C
54
70
51
DF
ENDCHAR
STARTCHAR 00C7
ENCODING 199
SWIDTH 615 0
DWIDTH 8 0
BBX 6 10 1 -2
BITMAP
7C
84
80
80
80
80
84
78
20
10
ENDCHAR
STARTCHAR 00C8
ENCODING 200
SWIDTH 615 0
DWIDTH 8 0
BBX 6 10 1 0
BITMAP
20
00
F8
88
80
70
90
84
84
FC
ENDCHAR
STARTCHAR 00C9
ENCODING 201
SWIDTH 615 0
DWIDTH 8 0
BBX 6 8 1 2
BITMAP
F8
88
80
70
90
84
84
FC
ENDCHAR
STARTCHAR 00CA
ENCODING 202
SWIDTH 615 0
DWIDTH 8 0
BBX 6 10 1 0
BITMAP
70
00
F8
88
80
70
90
84
84
FC
ENDCHAR
STARTCHAR 00CB
ENCODING 203
SWIDTH 615 0
DWIDTH 8 0
BBX 6 10 1 0
BITMAP
50
00
F8
88
80
70
90
84
84
FC
ENDCHAR
STARTCHAR 00CC
ENCODING 204
SWIDTH 615 0
DWIDTH 8 0
BBX 4 10 2 0
BITMAP
40
00
F0
40
40
40
40
40
40
F0
ENDCHAR
STARTCHAR 00CD
ENCODING 205
SWIDTH 615 0
DWIDTH 8 0
BBX 4 10 2 0
BITMAP
20
00
F0
40
40
40
40
40
40
F0
ENDCHAR
STARTCHAR 00CE
ENCODING 206
SWIDTH 615 0
DWIDTH 8 0
BBX 4 10 2 0
BITMAP
60
00
F0
40
40
40
40
40
40
F0
ENDCHAR
STARTCHAR 00CF
ENCODING 207
SWIDTH 615 0
DWIDTH 8 0
BBX 4 10 2 0
BITMAP
B0
00
F0
40
40
40
40
40
40
F0
ENDCHAR
STARTCHAR 00D0
ENCODING 208
SWIDTH 615 0
DWIDTH 8 0
BBX 7 8 0 0
BITMAP
78
44
42
F2
42
42
44
78
ENDCHAR
STARTCHAR 00D1
ENCODING 209
SWIDTH 615 0
DWIDTH 8 0
BBX 7 10 0 1
BITMAP
34
08
C6
62
62
52
52
4A
46
62
ENDCHAR
STARTCHAR 00D2
ENCODING 210
SWIDTH 615 0
DWIDTH 8 0
BBX 6 10 1 0
BITMAP
40
20
70
88
84
84
84
84
88
70
ENDCHAR
STARTCHAR 00D3
ENCODING 211
SWIDTH 615 0
DWIDTH 8 0
BBX 6 10 1 0
BITMAP
10
20
70
88
84
84
84
84
88
70
ENDCHAR
STARTCHAR 00D4
ENCODING 212
SWIDTH 615 0
DWIDTH 8 0
BBX 6 10 1 0
BITMAP
20
58
70
88
84
84
84
84
88
70
ENDCHAR
STARTCHAR 00D5
ENCODING 213
SWIDTH 615 0
DWIDTH 8 0
BBX 6 10 1 0
BITMAP
68
10
70
88
84
84
84
84
88
70
ENDCHAR
STARTCHAR 00D6
ENCODING 214
SWIDTH 615 0
DWIDTH 8 0
BBX 6 10 1 0
BITMAP
58
00
70
88
84
84
84
84
88
70
ENDCHAR
STARTCHAR 00D7
ENCODING 215
SWIDTH 615 0
DWIDTH 8 0
BBX 5 5 1 1
BITMAP
80
48
30
30
48
ENDCHAR
STARTCHAR 00D8
ENCODING 216
SWIDTH 615 0
DWIDTH 8 0
BBX 6 8 1 -1
BITMAP
74
88
94
94
A4
C4
88
F0
ENDCHAR
STARTCHAR 00D9
ENCODING 217
SWIDTH 615 0
DWIDTH 8 0
BBX 6 10 1 0
BITMAP
20
00
CC
88
88
88
88
88
88
70
ENDCHAR
STARTCHAR 00DA
ENCODING 218
SWIDTH 615 0
DWIDTH 8 0
BBX 6 10 1 0
BITMAP
10
00
CC
88
88
88
88
88
88
70
ENDCHAR
STARTCHAR 00DB
ENCODING 219
SWIDTH 615 0
DWIDTH 8 0
BBX 6 10 1 0
BITMAP
30
00
CC
88
88
88
88
88
88
70
ENDCHAR
STARTCHAR 00DC
ENCODING 220
SWIDTH 615 0
DWIDTH 8 0
BBX 6 10 1 0
BITMAP
58
00
CC
88
88
88
88
88
88
70
ENDCHAR
STARTCHAR 00DD
ENCODING 221
SWIDTH 615 0
DWIDTH 8 0
BBX 6 10 1 0
BITMAP
10
00
CC
48
50
30
20
20
20
78
ENDCHAR
STARTCHAR 00DE
ENCODING 222
SWIDTH 615 0
DWIDTH 8 0
BBX 5 8 1 0
BITMAP
E0
60
98
88
88
78
80
E0
ENDCHAR
STARTCHAR 00DF
ENCODING 223
SWIDTH 615 0
DWIDTH 8 0
BBX 5 8 1 0
BITMAP
70
90
90
B0
88
88
A8
D8
ENDCHAR
STARTCHAR 00E0
ENCODING 224
SWIDTH 615 0
DWIDTH 8 0
BBX 6 9 1 0
BITMAP
40
20
00
70
08
28
D8
88
FC
ENDCHAR
STARTCHAR 00E1
ENCODING 225
SWIDTH 615 0
DWIDTH 8 0
BBX 6 9 1 0
BITMAP
10
20
00
70
08
28
D8
88
FC
ENDCHAR
STARTCHAR 00E2
ENCODING 226
SWIDTH 615 0
DWIDTH 8 0
BBX 6 9 1 0
BITMAP
20
58
00
70
08
28
D8
88
FC
ENDCHAR
STARTCHAR 00E3
ENCODING 227
SWIDTH 615 0
DWIDTH 8 0
BBX 6 8 1 0
BITMAP
68
10
70
08
28
D8
88
FC
ENDCHAR
STARTCHAR 00E4
ENCODING 228
SWIDTH 615 0
DWIDTH 8 0
BBX 6 8 1 0
BITMAP
58
00
70
08
28
D8
88
FC
ENDCHAR
STARTCHAR 00E5
ENCODING 229
SWIDTH 615 0
DWIDTH 8 0
BBX 6 9 1 0
BITMAP
30
50
20
70
08
28
D8
88
FC
ENDCHAR
STARTCHAR 00E6
ENCODING 230
SWIDTH 615 0
DWIDTH 8 0
BBX 7 6 0 0
BITMAP
7E
12
3E
D0
98
6E
ENDCHAR
STARTCHAR 00E7
ENCODING 231
SWIDTH 615 0
DWIDTH 8 0
BBX 6 8 1 -2
BITMAP
7C
84
80
80
84
78
20
30
ENDCHAR
STARTCHAR 00E8
ENCODING 232
SWIDTH 615 0
DWIDTH 8 0
BBX 6 9 1 0
BITMAP
40
20
00
70
88
FC
80
80
78
ENDCHAR
STARTCHAR 00E9
ENCODING 233
SWIDTH 615 0
DWIDTH 8 0
BBX 6 9 1 0
BITMAP
10
20
00
70
88
FC
80
80
78
ENDCHAR
STARTCHAR 00EA
ENCODING 234
SWIDTH 615 0
DWIDTH 8 0
BBX 6 9 1 0
BITMAP
20
58
00
70
88
FC
80
80
78
ENDCHAR
STARTCHAR 00EB
ENCODING 235
SWIDTH 615 0
DWIDTH 8 0
BBX 6 8 1 0
BITMAP
58
00
70
88
FC
80
80
78
ENDCHAR
STARTCHAR 00EC
ENCODING 236
SWIDTH 615 0
DWIDTH 8 0
BBX 5 9 1 0
BITMAP
40
20
00
60
20
20
20
20
F8
ENDCHAR
STARTCHAR 00ED
ENCODING 237
SWIDTH 615 0
DWIDTH 8 0
BBX 5 9 1 0
BITMAP
10
20
00
60
20
20
20
20
F8
ENDCHAR
STARTCHAR 00EE
ENCODING 238
SWIDTH 615 0
DWIDTH 8 0
BBX 5 9 1 0
BITMAP
20
58
00
60
20
20
20
20
F8
ENDCHAR
STARTCHAR 00EF
ENCODING 239
SWIDTH 615 0
DWIDTH 8 0
BBX 5 8 1 0
BITMAP
58
00
60
20
20
20
20
F8
ENDCHAR
STARTCHAR 00F0
ENCODING 240
SWIDTH 615 0
DWIDTH 8 0
BBX 6 8 1 0
BITMAP
38
08
78
84
84
84
88
78
ENDCHAR
STARTCHAR 00F1
ENCODING 241
SWIDTH 615 0
DWIDTH 8 0
BBX 6 8 1 0
BITMAP
68
10
B8
C8
88
88
88
CC
ENDCHAR
STARTCHAR 00F2
ENCODING 242
SWIDTH 615 0
DWIDTH 8 0
BBX 6 9 1 0
BITMAP
40
20
00
78
88
84
84
88
78
ENDCHAR
STARTCHAR 00F3
ENCODING 243
SWIDTH 615 0
DWIDTH 8 0
BBX 6 9 1 0
BITMAP
10
20
00
78
88
84
84
88
78
ENDCHAR
STARTCHAR 00F4
ENCODING 244
SWIDTH 615 0
DWIDTH 8 0
BBX 6 9 1 0
BITMAP
20
58
00
78
88
84
84
88
78
ENDCHAR
STARTCHAR 00F5
ENCODING 245
SWIDTH 615 0
DWIDTH 8 0
BBX 6 8 1 0
BITMAP
68
10
78
88
84
84
88
78
ENDCHAR
STARTCHAR 00F6
ENCODING 246
SWIDTH 615 0
DWIDTH 8 0
BBX 6 8 1 0
BITMAP
58
00
78
88
84
84
88
78
ENDCHAR
STARTCHAR 00F7
ENCODING 247
SWIDTH 615 0
DWIDTH 8 0
BBX 6 6 1 0
BITMAP
30
20
FC
00
30
20
ENDCHAR
STARTCHAR 00F8
ENCODING 248
SWIDTH 615 0
DWIDTH 8 0
BBX 6 8 1 -1
BITMAP
04
7C
88
94
A4
C8
F8
80
ENDCHAR
STARTCHAR 00F9
ENCODING 249
SWIDTH 615 0
DWIDTH 8 0
BBX 6 9 1 0
BITMAP
40
30
00
98
88
88
88
88
74
ENDCHAR
STARTCHAR 00FA
ENCODING 250
SWIDTH 615 0
DWIDTH 8 0
BBX 6 9 1 0
BITMAP
10
20
00
98
88
88
88
88
74
ENDCHAR
STARTCHAR 00FB
ENCODING 251
SWIDTH 615 0
DWIDTH 8 0
BBX 6 9 1 0
BITMAP
30
48
00
98
88
88
88
88
74
ENDCHAR
STARTCHAR 00FC
ENCODING 252
SWIDTH 615 0
DWIDTH 8 0
BBX 6 8 1 0
BITMAP
58
00
98
88
88
88
88
74
ENDCHAR
STARTCHAR 00FD
ENCODING 253
SWIDTH 615 0
DWIDTH 8 0
BBX 6 12 1 -3
BITMAP
10
20
00
CC
88
48
50
30
20
20
40
E0
ENDCHAR
STARTCHAR 00FE
ENCODING 254
SWIDTH 615 0
DWIDTH 8 0
BBX 7 10 0 -2
BITMAP
C0
40
5C
62
42
42
42
7C
40
E0
ENDCHAR
STARTCHAR 00FF
ENCODING 255
SWIDTH 615 0
DWIDTH 8 0
BBX 6 11 1 -3
BITMAP
58
00
CC
88
48
50
30
20
20
40
E0
ENDCHAR
STARTCHAR 0100
ENCODING 256
SWIDTH 615 0
DWIDTH 8 0
BBX 8 10 0 0
BITMAP
38
00
70
28
28
28
44
3C
42
E7
ENDCHAR
STARTCHAR 0101
ENCODING 257
SWIDTH 615 0
DWIDTH 8 0
BBX 6 8 1 0
BITMAP
78
00
70
08
28
D8
88
FC
ENDCHAR
STARTCHAR 0102
ENCODING 258
SWIDTH 615 0
DWIDTH 8 0
BBX 8 10 0 0
BITMAP
24
18
70
28
28
28
44
3C
42
E7
ENDCHAR
STARTCHAR 0103
ENCODING 259
SWIDTH 615 0
DWIDTH 8 0
BBX 6 9 1 0
BITMAP
48
70
00
70
08
28
D8
88
FC
ENDCHAR
STARTCHAR 0104
ENCODING 260
SWIDTH 615 0
DWIDTH 8 0
BBX 8 11 0 -3
BITMAP
70
28
28
28
44
3C
42
E7
04
04
02
ENDCHAR
STARTCHAR 0105
ENCODING 261
SWIDTH 615 0
DWIDTH 8 0
BBX 6 9 1 -3
BITMAP
70
08
28
D8
88
FC
08
10
0C
ENDCHAR
STARTCHAR 0106
ENCODING 262
SWIDTH 615 0
DWIDTH 8 0
BBX 6 10 1 0
BITMAP
10
20
7C
84
80
80
80
80
84
78
ENDCHAR
STARTCHAR 0107
ENCODING 263
SWIDTH 615 0
DWIDTH 8 0
BBX 6 8 1 1
BITMAP
30
00
7C
84
80
80
84
78
ENDCHAR
STARTCHAR 0108
ENCODING 264
SWIDTH 615 0
DWIDTH 8 0
BBX 6 10 1 0
BITMAP
30
48
7C
84
80
80
80
80
84
78
ENDCHAR
STARTCHAR 0109
ENCODING 265
SWIDTH 615 0
DWIDTH 8 0
BBX 6 9 1 0
BITMAP
30
48
00
7C
84
80
80
84
78
ENDCHAR
STARTCHAR 010A
ENCODING 266
SWIDTH 615 0
DWIDTH 8 0
BBX 6 10 1 0
BITMAP
30
00
7C
84
80
80
80
80
84
78
ENDCHAR
STARTCHAR 010B
ENCODING 267
SWIDTH 615 0
DWIDTH 8 0
BBX 6 8 1 0
BITMAP
30
00
7C
84
80
80
84
78
ENDCHAR
STARTCHAR 010C
ENCODING 268
SWIDTH 615 0
DWIDTH 8 0
BBX 6 10 1 0
BITMAP
48
30
7C
84
80
80
80
80
84
78
ENDCHAR
STARTCHAR 010D
ENCODING 269
SWIDTH 615 0
DWIDTH 8 0
BBX 6 9 1 0
BITMAP
48
30
00
7C
84
80
80
84
78
ENDCHAR
STARTCHAR 010E
ENCODING 270
SWIDTH 615 0
DWIDTH 8 0
BBX 6 10 1 0
BITMAP
50
20
F0
88
84
84
84
84
88
F0
ENDCHAR
STARTCHAR 010F
ENCODING 271
SWIDTH 615 0
DWIDTH 8 0
BBX 7 8 1 0
BITMAP
0E
06
74
8C
84
84
84
7C
ENDCHAR
STARTCHAR 0110
ENCODING 272
SWIDTH 615 0
DWIDTH 8 0
BBX 7 8 0 0
BITMAP
78
44
42
F2
42
42
44
78
ENDCHAR
STARTCHAR 0111
ENCODING 273
SWIDTH 615 0
DWIDTH 8 0
BBX 6 8 1 0
BITMAP
0C
1C
74
8C
84
84
84
7C
ENDCHAR
STARTCHAR 0112
ENCODING 274
SWIDTH 615 0
DWIDTH 8 0
BBX 6 10 1 0
BITMAP
70
00
F8
88
80
70
90
84
84
FC
ENDCHAR
STARTCHAR 0113
ENCODING 275
SWIDTH 615 0
DWIDTH 8 0
BBX 6 8 1 0
BITMAP
78
00
70
88
FC
80
80
78
ENDCHAR
STARTCHAR 0114
ENCODING 276
SWIDTH 615 0
DWIDTH 8 0
BBX 6 10 1 0
BITMAP
88
70
F8
88
80
70
90
84
84
FC
ENDCHAR
STARTCHAR 0115
ENCODING 277
SWIDTH 615 0
DWIDTH 8 0
BBX 6 9 1 0
BITMAP
48
70
00
70
88
FC
80
80
78
ENDCHAR
STARTCHAR 0116
ENCODING 278
SWIDTH 615 0
DWIDTH 8 0
BBX 6 10 1 0
BITMAP
20
00
F8
88
80
70
90
84
84
FC
ENDCHAR
STARTCHAR 0117
ENCODING 279
SWIDTH 615 0
DWIDTH 8 0
BBX 6 8 1 0
BITMAP
20
00
70
88
FC
80
80
78
ENDCHAR
STARTCHAR 0118
ENCODING 280
SWIDTH 615 0
DWIDTH 8 0
BBX 6 11 1 -3
BITMAP
F8
88
80
70
90
84
84
FC
10
10
08
ENDCHAR
STARTCHAR 0119
ENCODING 281
SWIDTH 615 0
DWIDTH 8 0
BBX 6 9 1 -3
BITMAP
70
88
FC
80
80
78
20
20
10
ENDCHAR
STARTCHAR 011A
ENCODING 282
SWIDTH 615 0
DWIDTH 8 0
BBX 6 10 1 0
BITMAP
50
20
F8
88
80
70
90
84
84
FC
ENDCHAR
STARTCHAR 011B
ENCODING 283
SWIDTH 615 0
DWIDTH 8 0
BBX 6 9 1 0
BITMAP
48
30
00
70
88
FC
80
80
78
ENDCHAR
STARTCHAR 011C
ENCODING 284
SWIDTH 615 0
DWIDTH 8 0
BBX 6 10 1 0
BITMAP
30
48
7C
84
80
80
9C
84
84
78
ENDCHAR
STARTCHAR 011D
ENCODING 285
SWIDTH 615 0
DWIDTH 8 0
BBX 6 11 1 -2
BITMAP
20
50
00
74
88
88
88
88
78
08
78
ENDCHAR
STARTCHAR 011E
ENCODING 286
SWIDTH 615 0
DWIDTH 8 0
BBX 6 10 1 0
BITMAP
48
30
7C
84
80
80
9C
84
84
78
ENDCHAR
STARTCHAR 011F
ENCODING 287
SWIDTH 615 0
DWIDTH 8 0
BBX 6 11 1 -2
BITMAP
80
70
00
74
88
88
88
88
78
08
78
ENDCHAR
STARTCHAR 0120
ENCODING 288
SWIDTH 615 0
DWIDTH 8 0
BBX 6 10 1 0
BITMAP
30
00
7C
84
80
80
9C
84
84
78
ENDCHAR
STARTCHAR 0121
ENCODING 289
SWIDTH 615 0
DWIDTH 8 0
BBX 6 10 1 -2
BITMAP
20
00
74
88
88
88
88
78
08
78
ENDCHAR
STARTCHAR 0122
ENCODING 290
SWIDTH 615 0
DWIDTH 8 0
BBX 6 11 1 -3
BITMAP
7C
84
80
80
9C
84
84
78
00
10
20
ENDCHAR
STARTCHAR 0123
ENCODING 291
SWIDTH 615 0
DWIDTH 8 0
BBX 6 10 1 -1
BITMAP
60
00
74
88
88
88
88
78
08
78
ENDCHAR
STARTCHAR 0124
ENCODING 292
SWIDTH 615 0
DWIDTH 8 0
BBX 6 10 1 0
BITMAP
30
00
CC
88
88
78
88
88
88
CC
ENDCHAR
STARTCHAR 0125
ENCODING 293
SWIDTH 615 0
DWIDTH 8 0
BBX 6 10 1 0
BITMAP
30
00
80
80
B8
C8
88
88
88
CC
ENDCHAR
STARTCHAR 0126
ENCODING 294
SWIDTH 615 0
DWIDTH 8 0
BBX 6 8 1 0
BITMAP
CC
88
FC
78
88
88
88
CC
ENDCHAR
STARTCHAR 0127
ENCODING 295
SWIDTH 615 0
DWIDTH 8 0
BBX 6 8 1 0
BITMAP
80
60
B8
44
84
84
84
CC
ENDCHAR
STARTCHAR 0128
ENCODING 296
SWIDTH 615 0
DWIDTH 8 0
BBX 4 10 2 1
BITMAP
D0
20
F0
40
40
40
40
40
40
F0
ENDCHAR
STARTCHAR 0129
ENCODING 297
SWIDTH 615 0
DWIDTH 8 0
BBX 5 8 1 0
BITMAP
68
10
60
20
20
20
20
F8
ENDCHAR
STARTCHAR 012A
ENCODING 298
SWIDTH 615 0
DWIDTH 8 0
BBX 4 10 2 0
BITMAP
F0
00
F0
40
40
40
40
40
40
F0
ENDCHAR
STARTCHAR 012B
ENCODING 299
SWIDTH 615 0
DWIDTH 8 0
BBX 5 8 1 0
BITMAP
78
00
60
20
20
20
20
F8
ENDCHAR
STARTCHAR 012C
ENCODING 300
SWIDTH 615 0
DWIDTH 8 0
BBX 4 10 2 0
BITMAP
90
60
F0
40
40
40
40
40
40
F0
ENDCHAR
STARTCHAR 012D
ENCODING 301
SWIDTH 615 0
DWIDTH 8 0
BBX 5 9 1 0
BITMAP
48
70
00
60
20
20
20
20
F8
ENDCHAR
STARTCHAR 012E
ENCODING 302
SWIDTH 615 0
DWIDTH 8 0
BBX 4 11 2 -3
BITMAP
F0
40
40
40
40
40
40
F0
20
20
10
ENDCHAR
STARTCHAR 012F
ENCODING 303
SWIDTH 615 0
DWIDTH 8 0
BBX 5 11 1 -3
BITMAP
30
00
60
20
20
20
20
F8
20
20
10
ENDCHAR
STARTCHAR 0130
ENCODING 304
SWIDTH 615 0
DWIDTH 8 0
BBX 4 10 2 0
BITMAP
60
00
F0
40
40
40
40
40
40
F0
ENDCHAR
STARTCHAR 0131
ENCODING 305
SWIDTH 615 0
DWIDTH 8 0
BBX 5 6 1 0
BITMAP
60
20
20
20
20
F8
ENDCHAR
STARTCHAR 0132
ENCODING 306
SWIDTH 615 0
DWIDTH 8 0
BBX 6 8 1 0
BITMAP
CC
84
84
84
A4
A4
A4
D8
ENDCHAR
STARTCHAR 0133
ENCODING 307
SWIDTH 615 0
DWIDTH 8 0
BBX 6 11 1 -3
BITMAP
4C
00
FC
44
44
44
44
E4
04
08
10
ENDCHAR
STARTCHAR 0134
ENCODING 308
SWIDTH 615 0
DWIDTH 8 0
BBX 6 10 1 0
BITMAP
1C
00
3C
08
08
08
88
88
88
70
ENDCHAR
STARTCHAR 0135
ENCODING 309
SWIDTH 615 0
DWIDTH 8 0
BBX 5 12 2 -3
BITMAP
30
48
00
F0
10
10
10
10
10
10
10
E0
ENDCHAR
STARTCHAR 0136
ENCODING 310
SWIDTH 615 0
DWIDTH 8 0
BBX 6 11 1 -3
BITMAP
CC
90
90
A0
50
88
88
C4
00
10
20
ENDCHAR
STARTCHAR 0137
ENCODING 311
SWIDTH 615 0
DWIDTH 8 0
BBX 6 11 1 -3
BITMAP
80
80
98
A0
C0
A0
90
8C
00
10
20
ENDCHAR
STARTCHAR 0139
ENCODING 313
SWIDTH 615 0
DWIDTH 8 0
BBX 6 8 1 2
BITMAP
E0
40
40
40
40
44
44
FC
ENDCHAR
STARTCHAR 013A
ENCODING 314
SWIDTH 615 0
DWIDTH 8 0
BBX 5 10 1 0
BITMAP
20
00
60
20
20
20
20
20
20
F8
ENDCHAR
STARTCHAR 013B
ENCODING 315
SWIDTH 615 0
DWIDTH 8 0
BBX 6 11 1 -3
BITMAP
E0
40
40
40
40
44
44
FC
00
10
20
ENDCHAR
STARTCHAR 013C
ENCODING 316
SWIDTH 615 0
DWIDTH 8 0
BBX 5 11 1 -3
BITMAP
60
20
20
20
20
20
20
F8
00
10
20
ENDCHAR
STARTCHAR 013D
ENCODING 317
SWIDTH 615 0
DWIDTH 8 0
BBX 6 8 1 0
BITMAP
E8
50
40
40
40
44
44
FC
ENDCHAR
STARTCHAR 013E
ENCODING 318
SWIDTH 615 0
DWIDTH 8 0
BBX 5 8 1 0
BITMAP
60
38
20
20
20
20
20
F8
ENDCHAR
STARTCHAR 013F
ENCODING 319
SWIDTH 615 0
DWIDTH 8 0
BBX 6 8 1 0
BITMAP
E0
40
40
44
40
44
44
FC
ENDCHAR
STARTCHAR 0140
ENCODING 320
SWIDTH 615 0
DWIDTH 8 0
BBX 7 8 1 0
BITMAP
60
20
20
22
20
20
20
F8
ENDCHAR
STARTCHAR 0141
ENCODING 321
SWIDTH 615 0
DWIDTH 8 0
BBX 6 8 1 0
BITMAP
E0
40
40
70
C0
44
44
FC
ENDCHAR
STARTCHAR 0142
ENCODING 322
SWIDTH 615 0
DWIDTH 8 0
BBX 5 8 1 0
BITMAP
60
20
20
10
60
20
20
F8
ENDCHAR
STARTCHAR 0143
ENCODING 323
SWIDTH 615 0
DWIDTH 8 0
BBX 7 10 0 0
BITMAP
08
00
C6
62
62
52
52
4A
46
62
ENDCHAR
STARTCHAR 0144
ENCODING 324
SWIDTH 615 0
DWIDTH 8 0
BBX 6 9 1 0
BITMAP
10
20
00
B8
C8
88
88
88
CC
ENDCHAR
STARTCHAR 0145
ENCODING 325
SWIDTH 615 0
DWIDTH 8 0
BBX 7 11 0 -3
BITMAP
C6
62
62
52
52
4A
46
62
00
08
10
ENDCHAR
STARTCHAR 0146
ENCODING 326
SWIDTH 615 0
DWIDTH 8 0
BBX 6 9 1 -3
BITMAP
B8
C8
88
88
88
CC
00
10
20
ENDCHAR
STARTCHAR 0147
ENCODING 327
SWIDTH 615 0
DWIDTH 8 0
BBX 7 10 0 0
BITMAP
18
00
C6
62
62
52
52
4A
46
62
ENDCHAR
STARTCHAR 0148
ENCODING 328
SWIDTH 615 0
DWIDTH 8 0
BBX 6 9 1 0
BITMAP
48
30
00
B8
C8
88
88
88
CC
ENDCHAR
STARTCHAR 014A
ENCODING 330
SWIDTH 615 0
DWIDTH 8 0
BBX 7 11 0 -3
BITMAP
C6
62
62
52
52
4A
46
62
02
04
3C
ENDCHAR
STARTCHAR 014B
ENCODING 331
SWIDTH 615 0
DWIDTH 8 0
BBX 5 9 1 -3
BITMAP
B8
C8
88
88
88
C8
08
08
70
ENDCHAR
STARTCHAR 014C
ENCODING 332
SWIDTH 615 0
DWIDTH 8 0
BBX 6 10 1 0
BITMAP
78
00
70
88
84
84
84
84
88
70
ENDCHAR
STARTCHAR 014D
ENCODING 333
SWIDTH 615 0
DWIDTH 8 0
BBX 6 8 1 0
BITMAP
78
00
78
88
84
84
88
78
ENDCHAR
STARTCHAR 014E
ENCODING 334
SWIDTH 615 0
DWIDTH 8 0
BBX 6 10 1 0
BITMAP
48
30
70
88
84
84
84
84
88
70
ENDCHAR
STARTCHAR 014F
ENCODING 335
SWIDTH 615 0
DWIDTH 8 0
BBX 6 9 1 0
BITMAP
48
70
00
78
88
84
84
88
78
ENDCHAR
STARTCHAR 0150
ENCODING 336
SWIDTH 615 0
DWIDTH 8 0
BBX 6 10 1 1
BITMAP
78
00
70
88
84
84
84
84
88
70
ENDCHAR
STARTCHAR 0151
ENCODING 337
SWIDTH 615 0
DWIDTH 8 0
BBX 6 8 1 1
BITMAP
78
00
78
88
84
84
88
78
ENDCHAR
STARTCHAR 0152
ENCODING 338
SWIDTH 615 0
DWIDTH 8 0
BBX 8 8 0 0
BITMAP
3E
D2
90
8C
94
90
91
7F
ENDCHAR
STARTCHAR 0153
ENCODING 339
SWIDTH 615 0
DWIDTH 8 0
BBX 7 6 0 0
BITMAP
66
9A
8E
90
98
66
ENDCHAR
STARTCHAR 0154
ENCODING 340
SWIDTH 615 0
DWIDTH 8 0
BBX 6 10 1 0
BITMAP
20
00
F8
88
88
88
70
88
88
C4
ENDCHAR
STARTCHAR 0155
ENCODING 341
SWIDTH 615 0
DWIDTH 8 0
BBX 6 9 1 0
BITMAP
10
60
00
DC
20
40
40
40
F8
ENDCHAR
STARTCHAR 0156
ENCODING 342
SWIDTH 615 0
DWIDTH 8 0
BBX 6 11 1 -3
BITMAP
F8
88
88
88
70
88
88
C4
00
00
60
ENDCHAR
STARTCHAR 0157
ENCODING 343
SWIDTH 615 0
DWIDTH 8 0
BBX 6 9 1 -3
BITMAP
DC
20
40
40
40
F8
00
00
60
ENDCHAR
STARTCHAR 0158
ENCODING 344
SWIDTH 615 0
DWIDTH 8 0
BBX 6 10 1 0
BITMAP
50
20
F8
88
88
88
70
88
88
C4
ENDCHAR
STARTCHAR 0159
ENCODING 345
SWIDTH 615 0
DWIDTH 8 0
BBX 6 9 1 0
BITMAP
90
60
00
DC
20
40
40
40
F8
ENDCHAR
STARTCHAR 015A
ENCODING 346
SWIDTH 615 0
DWIDTH 8 0
BBX 6 10 1 0
BITMAP
10
20
70
88
80
60
18
04
88
F8
ENDCHAR
STARTCHAR 015B
ENCODING 347
SWIDTH 615 0
DWIDTH 8 0
BBX 5 9 1 0
BITMAP
10
20
00
70
88
60
18
88
F8
ENDCHAR
STARTCHAR 015C
ENCODING 348
SWIDTH 615 0
DWIDTH 8 0
BBX 6 10 1 0
BITMAP
20
58
70
88
80
60
18
04
88
F8
ENDCHAR
STARTCHAR 015D
ENCODING 349
SWIDTH 615 0
DWIDTH 8 0
BBX 5 9 1 0
BITMAP
20
58
00
70
88
60
18
88
F8
ENDCHAR
STARTCHAR 015E
ENCODING 350
SWIDTH 615 0
DWIDTH 8 0
BBX 6 10 1 -2
BITMAP
70
88
80
60
18
04
88
F8
20
30
ENDCHAR
STARTCHAR 015F
ENCODING 351
SWIDTH 615 0
DWIDTH 8 0
BBX 5 8 1 -2
BITMAP
70
88
60
18
88
D8
20
30
ENDCHAR
STARTCHAR 0160
ENCODING 352
SWIDTH 615 0
DWIDTH 8 0
BBX 6 10 1 0
BITMAP
48
30
70
88
80
60
18
04
88
F8
ENDCHAR
STARTCHAR 0161
ENCODING 353
SWIDTH 615 0
DWIDTH 8 0
BBX 5 9 1 0
BITMAP
48
30
00
70
88
60
18
88
F8
ENDCHAR
STARTCHAR 0162
ENCODING 354
SWIDTH 615 0
DWIDTH 8 0
BBX 6 10 1 -2
BITMAP
FC
24
20
20
20
20
20
78
20
30
ENDCHAR
STARTCHAR 0163
ENCODING 355
SWIDTH 615 0
DWIDTH 8 0
BBX 5 10 1 -2
BITMAP
80
80
F0
80
80
80
80
78
20
30
ENDCHAR
STARTCHAR 0164
ENCODING 356
SWIDTH 615 0
DWIDTH 8 0
BBX 6 10 1 0
BITMAP
30
00
FC
24
20
20
20
20
20
78
ENDCHAR
STARTCHAR 0165
ENCODING 357
SWIDTH 615 0
DWIDTH 8 0
BBX 5 8 1 0
BITMAP
A0
80
F0
80
80
80
80
78
ENDCHAR
STARTCHAR 0168
ENCODING 360
SWIDTH 615 0
DWIDTH 8 0
BBX 6 10 1 1
BITMAP
68
10
CC
88
88
88
88
88
88
70
ENDCHAR
STARTCHAR 0169
ENCODING 361
SWIDTH 615 0
DWIDTH 8 0
BBX 6 8 1 0
BITMAP
68
10
98
88
88
88
88
74
ENDCHAR
STARTCHAR 016A
ENCODING 362
SWIDTH 615 0
DWIDTH 8 0
BBX 6 10 1 0
BITMAP
78
00
CC
88
88
88
88
88
88
70
ENDCHAR
STARTCHAR 016B
ENCODING 363
SWIDTH 615 0
DWIDTH 8 0
BBX 6 8 1 0
BITMAP
78
00
98
88
88
88
88
74
ENDCHAR
STARTCHAR 016C
ENCODING 364
SWIDTH 615 0
DWIDTH 8 0
BBX 6 10 1 0
BITMAP
48
30
CC
88
88
88
88
88
88
70
ENDCHAR
STARTCHAR 016D
ENCODING 365
SWIDTH 615 0
DWIDTH 8 0
BBX 6 9 1 0
BITMAP
48
30
00
98
88
88
88
88
74
ENDCHAR
STARTCHAR 016E
ENCODING 366
SWIDTH 615 0
DWIDTH 8 0
BBX 6 10 1 0
BITMAP
70
50
EC
88
88
88
88
88
88
70
ENDCHAR
STARTCHAR 016F
ENCODING 367
SWIDTH 615 0
DWIDTH 8 0
BBX 6 9 1 0
BITMAP
70
50
20
98
88
88
88
88
74
ENDCHAR
STARTCHAR 0170
ENCODING 368
SWIDTH 615 0
DWIDTH 8 0
BBX 6 10 1 1
BITMAP
78
00
CC
88
88
88
88
88
88
70
ENDCHAR
STARTCHAR 0171
ENCODING 369
SWIDTH 615 0
DWIDTH 8 0
BBX 6 8 1 1
BITMAP
68
00
98
88
88
88
88
74
ENDCHAR
STARTCHAR 0172
ENCODING 370
SWIDTH 615 0
DWIDTH 8 0
BBX 6 11 1 -3
BITMAP
CC
88
88
88
88
88
88
70
20
20
10
ENDCHAR
STARTCHAR 0173
ENCODING 371
SWIDTH 615 0
DWIDTH 8 0
BBX 6 9 1 -3
BITMAP
98
88
88
88
88
74
08
10
0C
ENDCHAR
STARTCHAR 0174
ENCODING 372
SWIDTH 615 0
DWIDTH 8 0
BBX 7 10 0 0
BITMAP
18
00
E6
82
5A
5A
6A
6C
64
24
ENDCHAR
STARTCHAR 0175
ENCODING 373
SWIDTH 615 0
DWIDTH 8 0
BBX 6 9 1 0
BITMAP
20
58
00
8C
84
B8
B8
C8
48
ENDCHAR
STARTCHAR 0176
ENCODING 374
SWIDTH 615 0
DWIDTH 8 0
BBX 6 10 1 0
BITMAP
30
00
CC
48
50
30
20
20
20
78
ENDCHAR
STARTCHAR 0177
ENCODING 375
SWIDTH 615 0
DWIDTH 8 0
BBX 6 12 1 -3
BITMAP
30
48
00
CC
88
48
50
30
20
20
40
E0
ENDCHAR
STARTCHAR 0178
ENCODING 376
SWIDTH 615 0
DWIDTH 8 0
BBX 6 10 1 0
BITMAP
58
00
CC
48
50
30
20
20
20
78
ENDCHAR
STARTCHAR 0179
ENCODING 377
SWIDTH 615 0
DWIDTH 8 0
BBX 5 10 1 0
BITMAP
10
00
78
88
10
20
20
40
88
F8
ENDCHAR
STARTCHAR 017A
ENCODING 378
SWIDTH 615 0
DWIDTH 8 0
BBX 4 9 2 0
BITMAP
20
40
00
F0
20
20
40
80
F0
ENDCHAR
STARTCHAR 017B
ENCODING 379
SWIDTH 615 0
DWIDTH 8 0
BBX 5 10 1 0
BITMAP
20
00
78
88
10
20
20
40
88
F8
ENDCHAR
STARTCHAR 017C
ENCODING 380
SWIDTH 615 0
DWIDTH 8 0
BBX 4 8 2 0
BITMAP
60
00
F0
20
20
40
80
F0
ENDCHAR
STARTCHAR 017D
ENCODING 381
SWIDTH 615 0
DWIDTH 8 0
BBX 5 10 1 0
BITMAP
50
20
78
88
10
20
20
40
88
F8
ENDCHAR
STARTCHAR 017E
ENCODING 382
SWIDTH 615 0
DWIDTH 8 0
BBX 4 9 2 0
BITMAP
90
60
00
F0
20
20
40
80
F0
ENDCHAR
STARTCHAR 017F
ENCODING 383
SWIDTH 615 0
DWIDTH 8 0
BBX 5 8 2 0
BITMAP
78
40
C0
40
40
40
40
E0
ENDCHAR
STARTCHAR 018E
ENCODING 398
SWIDTH 615 0
DWIDTH 8 0
BBX 6 8 1 0
BITMAP
FC
88
08
38
48
08
88
FC
ENDCHAR
STARTCHAR 0192
ENCODING 402
SWIDTH 615 0
DWIDTH 8 0
BBX 6 9 1 -1
BITMAP
1C
20
20
78
20
20
20
20
E0
ENDCHAR
STARTCHAR 01A0
ENCODING 416
SWIDTH 615 0
DWIDTH 8 0
BBX 6 8 1 0
BITMAP
74
88
84
84
84
84
88
70
ENDCHAR
STARTCHAR 01A1
ENCODING 417
SWIDTH 615 0
DWIDTH 8 0
BBX 6 6 1 0
BITMAP
7C
88
84
84
88
78
ENDCHAR
STARTCHAR 01AF
ENCODING 431
SWIDTH 615 0
DWIDTH 8 0
BBX 7 8 1 0
BITMAP
CA
8C
88
88
88
88
88
70
ENDCHAR
STARTCHAR 01B0
ENCODING 432
SWIDTH 615 0
DWIDTH 8 0
BBX 6 6 1 0
BITMAP
9C
88
88
88
88
74
ENDCHAR
STARTCHAR 01DD
ENCODING 477
SWIDTH 615 0
DWIDTH 8 0
BBX 6 6 1 0
BITMAP
70
88
04
FC
88
78
ENDCHAR
STARTCHAR 01E6
ENCODING 486
SWIDTH 615 0
DWIDTH 8 0
BBX 6 10 1 0
BITMAP
48
30
7C
84
80
80
9C
84
84
78
ENDCHAR
STARTCHAR 01E7
ENCODING 487
SWIDTH 615 0
DWIDTH 8 0
BBX 6 11 1 -2
BITMAP
50
20
00
74
88
88
88
88
78
08
78
ENDCHAR
STARTCHAR 01EA
ENCODING 490
SWIDTH 615 0
DWIDTH 8 0
BBX 6 11 1 -3
BITMAP
70
88
84
84
84
84
88
70
20
20
10
ENDCHAR
STARTCHAR 01EB
ENCODING 491
SWIDTH 615 0
DWIDTH 8 0
BBX 6 9 1 -3
BITMAP
78
88
84
84
88
78
20
20
10
ENDCHAR
STARTCHAR 01F4
ENCODING 500
SWIDTH 615 0
DWIDTH 8 0
BBX 6 9 1 1
BITMAP
30
7C
84
80
80
9C
84
84
78
ENDCHAR
STARTCHAR 01F5
ENCODING 501
SWIDTH 615 0
DWIDTH 8 0
BBX 6 11 1 -2
BITMAP
10
20
00
74
88
88
88
88
78
08
78
ENDCHAR
STARTCHAR 01FA
ENCODING 506
SWIDTH 615 0
DWIDTH 8 0
BBX 8 13 0 0
BITMAP
08
10
18
28
18
70
28
28
28
44
3C
42
E7
ENDCHAR
STARTCHAR 01FB
ENCODING 507
SWIDTH 615 0
DWIDTH 8 0
BBX 6 11 1 0
BITMAP
10
20
30
50
30
70
08
28
D8
88
FC
ENDCHAR
STARTCHAR 01FC
ENCODING 508
SWIDTH 615 0
DWIDTH 8 0
BBX 8 10 0 0
BITMAP
08
00
3E
32
30
2C
54
70
51
DF
ENDCHAR
STARTCHAR 01FD
ENCODING 509
SWIDTH 615 0
DWIDTH 8 0
BBX 7 9 0 0
BITMAP
08
10
00
7E
12
3E
D0
98
6E
ENDCHAR
STARTCHAR 01FE
ENCODING 510
SWIDTH 615 0
DWIDTH 8 0
BBX 6 10 1 -1
BITMAP
10
20
74
88
94
94
A4
C4
88
F0
ENDCHAR
STARTCHAR 01FF
ENCODING 511
SWIDTH 615 0
DWIDTH 8 0
BBX 6 10 1 -1
BITMAP
10
20
04
7C
88
94
A4
C8
F8
80
ENDCHAR
STARTCHAR 0200
ENCODING 512
SWIDTH 615 0
DWIDTH 8 0
BBX 8 11 0 0
BITMAP
50
28
00
70
28
28
28
44
3C
42
E7
ENDCHAR
STARTCHAR 0201
ENCODING 513
SWIDTH 615 0
DWIDTH 8 0
BBX 6 9 1 0
BITMAP
A0
50
00
70
08
28
D8
88
FC
ENDCHAR
STARTCHAR 0204
ENCODING 516
SWIDTH 615 0
DWIDTH 8 0
BBX 6 11 1 0
BITMAP
A0
50
00
F8
88
80
70
90
84
84
FC
ENDCHAR
STARTCHAR 0205
ENCODING 517
SWIDTH 615 0
DWIDTH 8 0
BBX 6 9 1 0
BITMAP
A0
50
00
70
88
FC
80
80
78
ENDCHAR
STARTCHAR 0208
ENCODING 520
SWIDTH 615 0
DWIDTH 8 0
BBX 5 11 1 0
BITMAP
A0
50
00
78
20
20
20
20
20
20
78
ENDCHAR
STARTCHAR 0209
ENCODING 521
SWIDTH 615 0
DWIDTH 8 0
BBX 5 9 1 0
BITMAP
A0
50
00
60
20
20
20
20
F8
ENDCHAR
STARTCHAR 020C
ENCODING 524
SWIDTH 615 0
DWIDTH 8 0
BBX 6 11 1 0
BITMAP
A0
50
00
70
88
84
84
84
84
88
70
ENDCHAR
STARTCHAR 020D
ENCODING 525
SWIDTH 615 0
DWIDTH 8 0
BBX 6 9 1 0
BITMAP
A0
50
00
78
88
84
84
88
78
ENDCHAR
STARTCHAR 0210
ENCODING 528
SWIDTH 615 0
DWIDTH 8 0
BBX 6 11 1 0
BITMAP
A0
50
00
F8
88
88
88
70
88
88
C4
ENDCHAR
STARTCHAR 0211
ENCODING 529
SWIDTH 615 0
DWIDTH 8 0
BBX 6 9 1 0
BITMAP
A0
A0
00
DC
20
40
40
40
F8
ENDCHAR
STARTCHAR 0214
ENCODING 532
SWIDTH 615 0
DWIDTH 8 0
BBX 6 11 1 0
BITMAP
A0
50
00
CC
88
88
88
88
88
88
70
ENDCHAR
STARTCHAR 0215
ENCODING 533
SWIDTH 615 0
DWIDTH 8 0
BBX 6 9 1 0
BITMAP
A0
50
00
98
88
88
88
88
74
ENDCHAR
STARTCHAR 0218
ENCODING 536
SWIDTH 615 0
DWIDTH 8 0
BBX 6 11 1 -3
BITMAP
70
88
80
60
18
04
88
F8
00
10
20
ENDCHAR
STARTCHAR 0219
ENCODING 537
SWIDTH 615 0
DWIDTH 8 0
BBX 5 9 1 -3
BITMAP
70
88
60
18
88
D8
20
10
20
ENDCHAR
STARTCHAR 021A
ENCODING 538
SWIDTH 615 0
DWIDTH 8 0
BBX 6 11 1 -3
BITMAP
FC
24
20
20
20
20
20
78
00
10
20
ENDCHAR
STARTCHAR 021B
ENCODING 539
SWIDTH 615 0
DWIDTH 8 0
BBX 5 11 1 -3
BITMAP
80
80
F0
80
80
80
80
78
00
00
60
ENDCHAR
STARTCHAR 0258
ENCODING 600
SWIDTH 615 0
DWIDTH 8 0
BBX 6 6 1 0
BITMAP
78
88
FC
04
08
F0
ENDCHAR
STARTCHAR 0259
ENCODING 601
SWIDTH 615 0
DWIDTH 8 0
BBX 6 6 1 0
BITMAP
70
88
04
FC
88
78
ENDCHAR
STARTCHAR 02BE
ENCODING 702
SWIDTH 615 0
DWIDTH 8 0
BBX 4 4 2 3
BITMAP
E0
10
90
E0
ENDCHAR
STARTCHAR 02BF
ENCODING 703
SWIDTH 615 0
DWIDTH 8 0
BBX 4 4 2 3
BITMAP
70
90
80
F0
ENDCHAR
STARTCHAR 02C6
ENCODING 710
SWIDTH 615 0
DWIDTH 8 0
BBX 4 2 2 6
BITMAP
40
B0
ENDCHAR
STARTCHAR 02C7
ENCODING 711
SWIDTH 615 0
DWIDTH 8 0
BBX 4 2 2 6
BITMAP
90
60
ENDCHAR
STARTCHAR 02D8
ENCODING 728
SWIDTH 615 0
DWIDTH 8 0
BBX 4 2 2 6
BITMAP
90
60
ENDCHAR
STARTCHAR 02D9
ENCODING 729
SWIDTH 615 0
DWIDTH 8 0
BBX 2 1 3 7
BITMAP
C0
ENDCHAR
STARTCHAR 02DA
ENCODING 730
SWIDTH 615 0
DWIDTH 8 0
BBX 2 2 3 6
BITMAP
C0
C0
ENDCHAR
STARTCHAR 02DB
ENCODING 731
SWIDTH 615 0
DWIDTH 8 0
BBX 1 3 3 -3
BITMAP
80
80
80
ENDCHAR
STARTCHAR 02DC
ENCODING 732
SWIDTH 615 0
DWIDTH 8 0
BBX 4 2 2 6
BITMAP
D0
20
ENDCHAR
STARTCHAR 02DD
ENCODING 733
SWIDTH 615 0
DWIDTH 8 0
BBX 3 1 3 7
BITMAP
E0
ENDCHAR
STARTCHAR 0300
ENCODING 768
SWIDTH 0 0
DWIDTH 0 0
BBX 2 2 -5 6
BITMAP
80
40
ENDCHAR
STARTCHAR 0301
ENCODING 769
SWIDTH 0 0
DWIDTH 0 0
BBX 2 1 -5 7
BITMAP
C0
ENDCHAR
STARTCHAR 0302
ENCODING 770
SWIDTH 0 0
DWIDTH 0 0
BBX 4 2 -6 6
BITMAP
20
D0
ENDCHAR
STARTCHAR 0303
ENCODING 771
SWIDTH 0 0
DWIDTH 0 0
BBX 4 2 -6 6
BITMAP
D0
20
ENDCHAR
STARTCHAR 0304
ENCODING 772
SWIDTH 0 0
DWIDTH 0 0
BBX 4 1 -6 7
BITMAP
F0
ENDCHAR
STARTCHAR 0306
ENCODING 774
SWIDTH 0 0
DWIDTH 0 0
BBX 4 2 -6 6
BITMAP
90
60
ENDCHAR
STARTCHAR 0307
ENCODING 775
SWIDTH 0 0
DWIDTH 0 0
BBX 2 1 -5 7
BITMAP
C0
ENDCHAR
STARTCHAR 0308
ENCODING 776
SWIDTH 0 0
DWIDTH 0 0
BBX 4 1 -6 7
BITMAP
D0
ENDCHAR
STARTCHAR 0309
ENCODING 777
SWIDTH 0 0
DWIDTH 0 0
BBX 2 2 -2 7
BITMAP
C0
80
ENDCHAR
STARTCHAR 030A
ENCODING 778
SWIDTH 0 0
DWIDTH 0 0
BBX 2 2 -5 6
BITMAP
C0
C0
ENDCHAR
STARTCHAR 030B
ENCODING 779
SWIDTH 0 0
DWIDTH 0 0
BBX 4 2 -5 6
BITMAP
50
A0
ENDCHAR
STARTCHAR 030C
ENCODING 780
SWIDTH 0 0
DWIDTH 0 0
BBX 4 2 -6 6
BITMAP
90
60
ENDCHAR
STARTCHAR 030F
ENCODING 783
SWIDTH 0 0
DWIDTH 0 0
BBX 4 2 -7 6
BITMAP
A0
50
ENDCHAR
STARTCHAR 0311
ENCODING 785
SWIDTH 0 0
DWIDTH 0 0
BBX 4 2 -6 6
BITMAP
70
90
ENDCHAR
STARTCHAR 0323
ENCODING 803
SWIDTH 0 0
DWIDTH 0 0
BBX 2 1 -5 -2
BITMAP
C0
ENDCHAR
STARTCHAR 0326
ENCODING 806
SWIDTH 0 0
DWIDTH 0 0
BBX 2 2 -5 -3
BITMAP
40
80
ENDCHAR
STARTCHAR 032E
ENCODING 814
SWIDTH 0 0
DWIDTH 0 0
BBX 4 2 -6 -3
BITMAP
90
60
ENDCHAR
STARTCHAR 032F
ENCODING 815
SWIDTH 0 0
DWIDTH 0 0
BBX 4 2 -6 -3
BITMAP
70
90
ENDCHAR
STARTCHAR 0330
ENCODING 816
SWIDTH 0 0
DWIDTH 0 0
BBX 4 2 -6 -3
BITMAP
D0
20
ENDCHAR
STARTCHAR 0331
ENCODING 817
SWIDTH 0 0
DWIDTH 0 0
BBX 4 1 -6 -2
BITMAP
F0
ENDCHAR
STARTCHAR 0332
ENCODING 818
SWIDTH 0 0
DWIDTH 0 0
BBX 4 1 -6 -2
BITMAP
F0
ENDCHAR
STARTCHAR 0391
ENCODING 913
SWIDTH 615 0
DWIDTH 8 0
BBX 8 8 0 0
BITMAP
70
28
28
28
44
3C
42
E7
ENDCHAR
STARTCHAR 0392
ENCODING 914
SWIDTH 615 0
DWIDTH 8 0
BBX 6 8 1 0
BITMAP
F8
88
88
78
84
84
84
F8
ENDCHAR
STARTCHAR 0393
ENCODING 915
SWIDTH 615 0
DWIDTH 8 0
BBX 6 8 1 0
BITMAP
FC
84
80
80
80
80
80
E0
ENDCHAR
STARTCHAR 0394
ENCODING 916
SWIDTH 615 0
DWIDTH 8 0
BBX 6 8 1 0
BITMAP
20
30
50
48
88
88
84
FC
ENDCHAR
STARTCHAR 0395
ENCODING 917
SWIDTH 615 0
DWIDTH 8 0
BBX 6 8 1 0
BITMAP
F8
88
80
70
90
84
84
FC
ENDCHAR
STARTCHAR 0396
ENCODING 918
SWIDTH 615 0
DWIDTH 8 0
BBX 5 8 1 0
BITMAP
78
88
10
20
20
40
88
F8
ENDCHAR
STARTCHAR 0397
ENCODING 919
SWIDTH 615 0
DWIDTH 8 0
BBX 6 8 1 0
BITMAP
CC
88
88
78
88
88
88
CC
ENDCHAR
STARTCHAR 0398
ENCODING 920
SWIDTH 615 0
DWIDTH 8 0
BBX 6 8 1 0
BITMAP
78
88
84
FC
8C
84
88
70
ENDCHAR
STARTCHAR 0399
ENCODING 921
SWIDTH 615 0
DWIDTH 8 0
BBX 4 8 2 0
BITMAP
F0
40
40
40
40
40
40
F0
ENDCHAR
STARTCHAR 039A
ENCODING 922
SWIDTH 615 0
DWIDTH 8 0
BBX 6 8 1 0
BITMAP
CC
90
90
A0
50
88
88
C4
ENDCHAR
STARTCHAR 039B
ENCODING 923
SWIDTH 615 0
DWIDTH 8 0
BBX 8 8 0 0
BITMAP
70
28
28
28
44
44
42
E7
ENDCHAR
STARTCHAR 039C
ENCODING 924
SWIDTH 615 0
DWIDTH 8 0
BBX 8 8 0 0
BITMAP
C2
A6
AA
AA
9A
82
82
E7
ENDCHAR
STARTCHAR 039D
ENCODING 925
SWIDTH 615 0
DWIDTH 8 0
BBX 7 8 0 0
BITMAP
C6
62
62
52
52
4A
46
62
ENDCHAR
STARTCHAR 039E
ENCODING 926
SWIDTH 615 0
DWIDTH 8 0
BBX 6 8 1 0
BITMAP
FC
84
00
78
08
00
84
FC
ENDCHAR
STARTCHAR 039F
ENCODING 927
SWIDTH 615 0
DWIDTH 8 0
BBX 6 8 1 0
BITMAP
70
88
84
84
84
84
88
70
ENDCHAR
STARTCHAR 03A0
ENCODING 928
SWIDTH 615 0
DWIDTH 8 0
BBX 6 8 1 0
BITMAP
FC
88
88
88
88
88
88
CC
ENDCHAR
STARTCHAR 03A1
ENCODING 929
SWIDTH 615 0
DWIDTH 8 0
BBX 5 8 1 0
BITMAP
F8
88
88
88
70
80
80
E0
ENDCHAR
STARTCHAR 03A3
ENCODING 931
SWIDTH 615 0
DWIDTH 8 0
BBX 6 8 1 0
BITMAP
FC
80
40
20
20
40
40
FC
ENDCHAR
STARTCHAR 03A4
ENCODING 932
SWIDTH 615 0
DWIDTH 8 0
BBX 6 8 1 0
BITMAP
FC
24
20
20
20
20
20
78
ENDCHAR
STARTCHAR 03A5
ENCODING 933
SWIDTH 615 0
DWIDTH 8 0
BBX 6 8 1 0
BITMAP
CC
B4
20
20
20
20
20
78
ENDCHAR
STARTCHAR 03A6
ENCODING 934
SWIDTH 615 0
DWIDTH 8 0
BBX 8 8 0 0
BITMAP
3C
10
7E
91
91
7E
10
3C
ENDCHAR
STARTCHAR 03A7
ENCODING 935
SWIDTH 615 0
DWIDTH 8 0
BBX 6 8 1 0
BITMAP
CC
48
50
20
30
50
88
CC
ENDCHAR
STARTCHAR 03A8
ENCODING 936
SWIDTH 615 0
DWIDTH 8 0
BBX 8 8 0 0
BITMAP
3C
91
91
91
52
3C
10
3C
ENDCHAR
STARTCHAR 03A9
ENCODING 937
SWIDTH 615 0
DWIDTH 8 0
BBX 6 8 1 0
BITMAP
78
84
84
84
84
88
50
CC
ENDCHAR
STARTCHAR 03B1
ENCODING 945
SWIDTH 615 0
DWIDTH 8 0
BBX 6 6 1 0
BITMAP
70
8C
88
88
88
74
ENDCHAR
STARTCHAR 03B2
ENCODING 946
SWIDTH 615 0
DWIDTH 8 0
BBX 7 11 0 -3
BITMAP
3C
42
82
BC
86
82
82
FC
80
80
80
ENDCHAR
STARTCHAR 03B3
ENCODING 947
SWIDTH 615 0
DWIDTH 8 0
BBX 6 8 1 -2
BITMAP
84
48
48
30
10
20
20
20
ENDCHAR
STARTCHAR 03B4
ENCODING 948
SWIDTH 615 0
DWIDTH 8 0
BBX 6 8 1 0
BITMAP
F8
20
58
84
84
84
88
78
ENDCHAR
STARTCHAR 03B5
ENCODING 949
SWIDTH 615 0
DWIDTH 8 0
BBX 6 7 1 -1
BITMAP
20
DC
80
F0
80
84
78
ENDCHAR
STARTCHAR 03B6
ENCODING 950
SWIDTH 615 0
DWIDTH 8 0
BBX 6 10 1 -2
BITMAP
FC
20
40
80
80
80
80
70
0C
04
ENDCHAR
STARTCHAR 03B7
ENCODING 951
SWIDTH 615 0
DWIDTH 8 0
BBX 6 8 1 -2
BITMAP
38
C4
84
84
84
04
04
04
ENDCHAR
STARTCHAR 03B8
ENCODING 952
SWIDTH 615 0
DWIDTH 8 0
BBX 6 8 1 0
BITMAP
70
88
84
84
FC
84
88
70
ENDCHAR
STARTCHAR 03B9
ENCODING 953
SWIDTH 615 0
DWIDTH 8 0
BBX 2 6 4 0
BITMAP
80
80
80
80
80
40
ENDCHAR
STARTCHAR 03BA
ENCODING 954
SWIDTH 615 0
DWIDTH 8 0
BBX 6 6 1 0
BITMAP
98
A0
C0
A0
90
8C
ENDCHAR
STARTCHAR 03BB
ENCODING 955
SWIDTH 615 0
DWIDTH 8 0
BBX 6 8 1 0
BITMAP
C0
20
10
30
50
48
88
84
ENDCHAR
STARTCHAR 03BC
ENCODING 956
SWIDTH 615 0
DWIDTH 8 0
BBX 6 8 1 -2
BITMAP
84
84
84
84
84
FC
80
80
ENDCHAR
STARTCHAR 03BD
ENCODING 957
SWIDTH 615 0
DWIDTH 8 0
BBX 6 6 1 0
BITMAP
84
84
44
44
48
30
ENDCHAR
STARTCHAR 03BE
ENCODING 958
SWIDTH 615 0
DWIDTH 8 0
BBX 6 10 1 -2
BITMAP
FC
80
80
78
80
80
80
70
0C
04
ENDCHAR
STARTCHAR 03BF
ENCODING 959
SWIDTH 615 0
DWIDTH 8 0
BBX 6 6 1 0
BITMAP
78
88
84
84
88
78
ENDCHAR
STARTCHAR 03C0
ENCODING 960
SWIDTH 615 0
DWIDTH 8 0
BBX 7 5 0 1
BITMAP
7E
A8
28
28
28
ENDCHAR
STARTCHAR 03C1
ENCODING 961
SWIDTH 615 0
DWIDTH 8 0
BBX 6 8 1 -2
BITMAP
78
84
84
84
84
F8
80
80
ENDCHAR
STARTCHAR 03C2
ENCODING 962
SWIDTH 615 0
DWIDTH 8 0
BBX 6 8 1 -2
BITMAP
78
84
80
80
80
70
0C
04
ENDCHAR
STARTCHAR 03C3
ENCODING 963
SWIDTH 615 0
DWIDTH 8 0
BBX 6 6 1 0
BITMAP
7C
88
84
84
88
78
ENDCHAR
STARTCHAR 03C4
ENCODING 964
SWIDTH 615 0
DWIDTH 8 0
BBX 6 6 1 0
BITMAP
FC
20
20
20
20
18
ENDCHAR
STARTCHAR 03C5
ENCODING 965
SWIDTH 615 0
DWIDTH 8 0
BBX 6 6 1 0
BITMAP
84
84
84
84
88
70
ENDCHAR
STARTCHAR 03C6
ENCODING 966
SWIDTH 615 0
DWIDTH 8 0
BBX 6 8 1 -2
BITMAP
58
A4
A4
A4
A8
70
20
20
ENDCHAR
STARTCHAR 03C7
ENCODING 967
SWIDTH 615 0
DWIDTH 8 0
BBX 6 8 1 -2
BITMAP
84
84
88
70
30
C8
84
84
ENDCHAR
STARTCHAR 03C8
ENCODING 968
SWIDTH 615 0
DWIDTH 8 0
BBX 6 10 1 -2
BITMAP
20
20
A4
A4
A4
A4
A4
78
20
20
ENDCHAR
STARTCHAR 03C9
ENCODING 969
SWIDTH 615 0
DWIDTH 8 0
BBX 7 5 0 1
BITMAP
82
92
92
92
6E
ENDCHAR
STARTCHAR 03D1
ENCODING 977
SWIDTH 615 0
DWIDTH 8 0
BBX 6 8 1 0
BITMAP
78
84
84
7C
84
84
88
78
ENDCHAR
STARTCHAR 03D5
ENCODING 981
SWIDTH 615 0
DWIDTH 8 0
BBX 6 10 1 -2
BITMAP
20
20
78
A4
A4
A4
A8
70
20
20
ENDCHAR
STARTCHAR 03D6
ENCODING 982
SWIDTH 615 0
DWIDTH 8 0
BBX 7 7 0 0
BITMAP
7C
02
82
92
92
92
6E
ENDCHAR
STARTCHAR 03F5
ENCODING 1013
SWIDTH 615 0
DWIDTH 8 0
BBX 6 6 1 0
BITMAP
7C
80
F0
80
84
78
ENDCHAR
STARTCHAR 0400
ENCODING 1024
SWIDTH 615 0
DWIDTH 8 0
BBX 6 10 1 1
BITMAP
18
00
FC
84
90
70
90
80
84
FC
ENDCHAR
STARTCHAR 0401
ENCODING 1025
SWIDTH 615 0
DWIDTH 8 0
BBX 6 10 1 0
BITMAP
48
00
FC
84
90
70
90
80
84
FC
ENDCHAR
STARTCHAR 0402
ENCODING 1026
SWIDTH 615 0
DWIDTH 8 0
BBX 7 9 0 -1
BITMAP
F8
A0
24
1A
22
22
22
7A
02
ENDCHAR
STARTCHAR 0403
ENCODING 1027
SWIDTH 615 0
DWIDTH 8 0
BBX 6 11 1 0
BITMAP
10
20
00
FC
84
80
80
80
80
80
E0
ENDCHAR
STARTCHAR 0404
ENCODING 1028
SWIDTH 615 0
DWIDTH 8 0
BBX 6 8 1 0
BITMAP
7C
84
80
F0
80
80
84
78
ENDCHAR
STARTCHAR 0405
ENCODING 1029
SWIDTH 615 0
DWIDTH 8 0
BBX 6 8 1 0
BITMAP
70
88
80
60
18
04
88
F8
ENDCHAR
STARTCHAR 0406
ENCODING 1030
SWIDTH 615 0
DWIDTH 8 0
BBX 4 8 2 0
BITMAP
F0
40
40
40
40
40
40
F0
ENDCHAR
STARTCHAR 0407
ENCODING 1031
SWIDTH 615 0
DWIDTH 8 0
BBX 4 10 2 0
BITMAP
A0
00
F0
40
40
40
40
40
40
F0
ENDCHAR
STARTCHAR 0408
ENCODING 1032
SWIDTH 615 0
DWIDTH 8 0
BBX 6 8 1 0
BITMAP
3C
08
08
08
08
88
90
F0
ENDCHAR
STARTCHAR 0409
ENCODING 1033
SWIDTH 615 0
DWIDTH 8 0
BBX 8 8 0 0
BITMAP
78
50
50
48
56
51
D1
DE
ENDCHAR
STARTCHAR 040A
ENCODING 1034
SWIDTH 615 0
DWIDTH 8 0
BBX 8 8 0 0
BITMAP
D8
90
90
78
96
91
92
DE
ENDCHAR
STARTCHAR 040B
ENCODING 1035
SWIDTH 615 0
DWIDTH 8 0
BBX 8 8 0 0
BITMAP
F8
A0
24
1A
22
22
22
7B
ENDCHAR
STARTCHAR 040C
ENCODING 1036
SWIDTH 615 0
DWIDTH 8 0
BBX 6 11 1 0
BITMAP
10
20
00
CC
90
A0
C0
A0
90
88
C4
ENDCHAR
STARTCHAR 040D
ENCODING 1037
SWIDTH 615 0
DWIDTH 8 0
BBX 6 11 1 0
BITMAP
20
10
00
CC
88
88
98
A8
48
88
CC
ENDCHAR
STARTCHAR 040E
ENCODING 1038
SWIDTH 615 0
DWIDTH 8 0
BBX 6 10 1 1
BITMAP
48
70
00
CC
88
50
30
20
20
40
ENDCHAR
STARTCHAR 040F
ENCODING 1039
SWIDTH 615 0
DWIDTH 8 0
BBX 6 9 1 -2
BITMAP
CC
88
88
88
88
88
88
FC
20
ENDCHAR
STARTCHAR 0410
ENCODING 1040
SWIDTH 615 0
DWIDTH 8 0
BBX 8 8 0 0
BITMAP
70
28
28
28
44
3C
42
E7
ENDCHAR
STARTCHAR 0411
ENCODING 1041
SWIDTH 615 0
DWIDTH 8 0
BBX 6 8 1 0
BITMAP
FC
84
80
70
8C
84
84
F8
ENDCHAR
STARTCHAR 0412
ENCODING 1042
SWIDTH 615 0
DWIDTH 8 0
BBX 6 8 1 0
BITMAP
F8
84
84
78
84
84
84
F8
ENDCHAR
STARTCHAR 0413
ENCODING 1043
SWIDTH 615 0
DWIDTH 8 0
BBX 6 8 1 0
BITMAP
FC
84
80
80
80
80
80
E0
ENDCHAR
STARTCHAR 0414
ENCODING 1044
SWIDTH 615 0
DWIDTH 8 0
BBX 7 10 0 -2
BITMAP
3E
24
24
24
24
24
24
FE
82
80
ENDCHAR
STARTCHAR 0415
ENCODING 1045
SWIDTH 615 0
DWIDTH 8 0
BBX 6 8 1 0
BITMAP
FC
84
90
70
90
80
84
FC
ENDCHAR
STARTCHAR 0416
ENCODING 1046
SWIDTH 615 0
DWIDTH 8 0
BBX 8 8 0 0
BITMAP
DB
54
38
18
34
54
52
9B
ENDCHAR
STARTCHAR 0417
ENCODING 1047
SWIDTH 615 0
DWIDTH 8 0
BBX 6 8 1 0
BITMAP
F8
88
08
30
08
04
88
F8
ENDCHAR
STARTCHAR 0418
ENCODING 1048
SWIDTH 615 0
DWIDTH 8 0
BBX 6 8 1 0
BITMAP
CC
88
88
98
A8
48
88
CC
ENDCHAR
STARTCHAR 0419
ENCODING 1049
SWIDTH 615 0
DWIDTH 8 0
BBX 6 11 1 0
BITMAP
48
70
00
CC
88
88
98
A8
48
88
CC
ENDCHAR
STARTCHAR 041A
ENCODING 1050
SWIDTH 615 0
DWIDTH 8 0
BBX 6 8 1 0
BITMAP
CC
90
A0
40
A0
90
88
C4
ENDCHAR
STARTCHAR 041B
ENCODING 1051
SWIDTH 615 0
DWIDTH 8 0
BBX 6 8 1 0
BITMAP
7C
48
48
48
48
48
48
CC
ENDCHAR
STARTCHAR 041C
ENCODING 1052
SWIDTH 615 0
DWIDTH 8 0
BBX 8 8 0 0
BITMAP
C2
C6
AA
AA
9A
82
82
E7
ENDCHAR
STARTCHAR 041D
ENCODING 1053
SWIDTH 615 0
DWIDTH 8 0
BBX 6 8 1 0
BITMAP
CC
88
88
78
88
88
88
CC
ENDCHAR
STARTCHAR 041E
ENCODING 1054
SWIDTH 615 0
DWIDTH 8 0
BBX 6 8 1 0
BITMAP
70
88
84
84
84
84
88
70
ENDCHAR
STARTCHAR 041F
ENCODING 1055
SWIDTH 615 0
DWIDTH 8 0
BBX 6 8 1 0
BITMAP
FC
88
88
88
88
88
88
CC
ENDCHAR
STARTCHAR 0420
ENCODING 1056
SWIDTH 615 0
DWIDTH 8 0
BBX 6 8 1 0
BITMAP
F8
84
84
84
78
80
80
E0
ENDCHAR
STARTCHAR 0421
ENCODING 1057
SWIDTH 615 0
DWIDTH 8 0
BBX 6 8 1 0
BITMAP
7C
84
80
80
80
80
84
78
ENDCHAR
STARTCHAR 0422
ENCODING 1058
SWIDTH 615 0
DWIDTH 8 0
BBX 6 8 1 0
BITMAP
FC
24
20
20
20
20
20
78
ENDCHAR
STARTCHAR 0423
ENCODING 1059
SWIDTH 615 0
DWIDTH 8 0
BBX 6 8 1 0
BITMAP
CC
88
48
30
10
20
20
C0
ENDCHAR
STARTCHAR 0424
ENCODING 1060
SWIDTH 615 0
DWIDTH 8 0
BBX 8 8 0 0
BITMAP
3C
38
D6
91
92
7E
10
3C
ENDCHAR
STARTCHAR 0425
ENCODING 1061
SWIDTH 615 0
DWIDTH 8 0
BBX 6 8 1 0
BITMAP
CC
48
50
30
30
50
88
CC
ENDCHAR
STARTCHAR 0426
ENCODING 1062
SWIDTH 615 0
DWIDTH 8 0
BBX 6 9 1 -2
BITMAP
CC
88
88
88
88
88
88
FC
04
ENDCHAR
STARTCHAR 0427
ENCODING 1063
SWIDTH 615 0
DWIDTH 8 0
BBX 6 8 1 0
BITMAP
CC
88
88
88
78
08
08
0C
ENDCHAR
STARTCHAR 0428
ENCODING 1064
SWIDTH 615 0
DWIDTH 8 0
BBX 8 8 0 0
BITMAP
DB
92
92
92
92
92
92
FF
ENDCHAR
STARTCHAR 0429
ENCODING 1065
SWIDTH 615 0
DWIDTH 8 0
BBX 8 10 0 -2
BITMAP
DA
92
92
92
92
92
92
FF
01
01
ENDCHAR
STARTCHAR 042A
ENCODING 1066
SWIDTH 615 0
DWIDTH 8 0
BBX 7 8 0 0
BITMAP
F0
A0
20
38
26
22
22
3C
ENDCHAR
STARTCHAR 042B
ENCODING 1067
SWIDTH 615 0
DWIDTH 8 0
BBX 8 8 0 0
BITMAP
C3
82
82
72
8A
86
86
FB
ENDCHAR
STARTCHAR 042C
ENCODING 1068
SWIDTH 615 0
DWIDTH 8 0
BBX 6 8 1 0
BITMAP
E0
80
80
70
8C
84
84
F8
ENDCHAR
STARTCHAR 042D
ENCODING 1069
SWIDTH 615 0
DWIDTH 8 0
BBX 6 8 1 0
BITMAP
F0
88
04
3C
04
04
88
70
ENDCHAR
STARTCHAR 042E
ENCODING 1070
SWIDTH 615 0
DWIDTH 8 0
BBX 8 8 0 0
BITMAP
DC
A2
A1
61
A1
A1
A2
DC
ENDCHAR
STARTCHAR 042F
ENCODING 1071
SWIDTH 615 0
DWIDTH 8 0
BBX 7 8 0 0
BITMAP
3E
44
44
24
1C
24
44
C6
ENDCHAR
STARTCHAR 0430
ENCODING 1072
SWIDTH 615 0
DWIDTH 8 0
BBX 6 6 1 0
BITMAP
70
08
28
D8
88
FC
ENDCHAR
STARTCHAR 0431
ENCODING 1073
SWIDTH 615 0
DWIDTH 8 0
BBX 6 8 1 1
BITMAP
38
C0
F8
88
84
84
88
70
ENDCHAR
STARTCHAR 0432
ENCODING 1074
SWIDTH 615 0
DWIDTH 8 0
BBX 4 6 2 0
BITMAP
F0
90
F0
90
90
F0
ENDCHAR
STARTCHAR 0433
ENCODING 1075
SWIDTH 615 0
DWIDTH 8 0
BBX 4 6 2 0
BITMAP
F0
90
80
80
80
C0
ENDCHAR
STARTCHAR 0434
ENCODING 1076
SWIDTH 615 0
DWIDTH 8 0
BBX 6 7 1 -2
BITMAP
78
48
48
48
48
FC
84
ENDCHAR
STARTCHAR 0435
ENCODING 1077
SWIDTH 615 0
DWIDTH 8 0
BBX 6 6 1 0
BITMAP
78
84
FC
80
80
78
ENDCHAR
STARTCHAR 0436
ENCODING 1078
SWIDTH 615 0
DWIDTH 8 0
BBX 8 6 0 0
BITMAP
DA
34
18
34
54
DB
ENDCHAR
STARTCHAR 0437
ENCODING 1079
SWIDTH 615 0
DWIDTH 8 0
BBX 5 6 1 0
BITMAP
78
88
38
08
88
F8
ENDCHAR
STARTCHAR 0438
ENCODING 1080
SWIDTH 615 0
DWIDTH 8 0
BBX 6 6 1 0
BITMAP
CC
88
98
A8
48
CC
ENDCHAR
STARTCHAR 0439
ENCODING 1081
SWIDTH 615 0
DWIDTH 8 0
BBX 6 9 1 0
BITMAP
48
30
00
CC
88
98
A8
48
CC
ENDCHAR
STARTCHAR 043A
ENCODING 1082
SWIDTH 615 0
DWIDTH 8 0
BBX 6 6 1 0
BITMAP
98
A0
C0
A0
90
8C
ENDCHAR
STARTCHAR 043B
ENCODING 1083
SWIDTH 615 0
DWIDTH 8 0
BBX 6 6 1 0
BITMAP
7C
48
48
48
C8
C8
ENDCHAR
STARTCHAR 043C
ENCODING 1084
SWIDTH 615 0
DWIDTH 8 0
BBX 6 6 1 0
BITMAP
CC
D8
D8
A8
88
CC
ENDCHAR
STARTCHAR 043D
ENCODING 1085
SWIDTH 615 0
DWIDTH 8 0
BBX 6 6 1 0
BITMAP
CC
88
88
78
88
CC
ENDCHAR
STARTCHAR 043E
ENCODING 1086
SWIDTH 615 0
DWIDTH 8 0
BBX 6 6 1 0
BITMAP
78
88
84
84
88
78
ENDCHAR
STARTCHAR 043F
ENCODING 1087
SWIDTH 615 0
DWIDTH 8 0
BBX 6 6 1 0
BITMAP
FC
88
88
88
88
CC
ENDCHAR
STARTCHAR 0440
ENCODING 1088
SWIDTH 615 0
DWIDTH 8 0
BBX 6 9 1 -3
BITMAP
B8
44
84
84
44
B8
80
80
E0
ENDCHAR
STARTCHAR 0441
ENCODING 1089
SWIDTH 615 0
DWIDTH 8 0
BBX 6 6 1 0
BITMAP
7C
84
80
80
84
78
ENDCHAR
STARTCHAR 0442
ENCODING 1090
SWIDTH 615 0
DWIDTH 8 0
BBX 5 6 1 0
BITMAP
F8
A8
20
20
20
30
ENDCHAR
STARTCHAR 0443
ENCODING 1091
SWIDTH 615 0
DWIDTH 8 0
BBX 6 9 1 -3
BITMAP
CC
88
48
50
30
20
20
20
E0
ENDCHAR
STARTCHAR 0444
ENCODING 1092
SWIDTH 615 0
DWIDTH 8 0
BBX 8 11 0 -3
BITMAP
10
10
7E
92
91
91
92
7E
10
10
18
ENDCHAR
STARTCHAR 0445
ENCODING 1093
SWIDTH 615 0
DWIDTH 8 0
BBX 6 6 1 0
BITMAP
CC
48
30
30
48
CC
ENDCHAR
STARTCHAR 0446
ENCODING 1094
SWIDTH 615 0
DWIDTH 8 0
BBX 6 7 1 -2
BITMAP
CC
88
88
88
88
FC
04
ENDCHAR
STARTCHAR 0447
ENCODING 1095
SWIDTH 615 0
DWIDTH 8 0
BBX 5 6 1 0
BITMAP
C8
48
48
78
08
08
ENDCHAR
STARTCHAR 0448
ENCODING 1096
SWIDTH 615 0
DWIDTH 8 0
BBX 8 6 0 0
BITMAP
DB
92
92
92
92
FF
ENDCHAR
STARTCHAR 0449
ENCODING 1097
SWIDTH 615 0
DWIDTH 8 0
BBX 8 8 0 -2
BITMAP
DB
92
92
92
92
FF
01
01
ENDCHAR
STARTCHAR 044A
ENCODING 1098
SWIDTH 615 0
DWIDTH 8 0
BBX 6 6 1 0
BITMAP
E0
C0
38
44
44
7C
ENDCHAR
STARTCHAR 044B
ENCODING 1099
SWIDTH 615 0
DWIDTH 8 0
BBX 8 6 0 0
BITMAP
C3
82
72
8A
8A
FB
ENDCHAR
STARTCHAR 044C
ENCODING 1100
SWIDTH 615 0
DWIDTH 8 0
BBX 4 6 2 0
BITMAP
80
80
E0
90
90
F0
ENDCHAR
STARTCHAR 044D
ENCODING 1101
SWIDTH 615 0
DWIDTH 8 0
BBX 6 6 1 0
BITMAP
F8
88
04
3C
04
F8
ENDCHAR
STARTCHAR 044E
ENCODING 1102
SWIDTH 615 0
DWIDTH 8 0
BBX 8 6 0 0
BITMAP
CE
51
61
61
52
CE
ENDCHAR
STARTCHAR 044F
ENCODING 1103
SWIDTH 615 0
DWIDTH 8 0
BBX 6 6 1 0
BITMAP
7C
88
88
78
28
C8
ENDCHAR
STARTCHAR 0450
ENCODING 1104
SWIDTH 615 0
DWIDTH 8 0
BBX 6 8 1 1
BITMAP
10
00
78
84
FC
80
80
78
ENDCHAR
STARTCHAR 0451
ENCODING 1105
SWIDTH 615 0
DWIDTH 8 0
BBX 6 8 1 1
BITMAP
48
00
78
84
FC
80
80
78
ENDCHAR
STARTCHAR 0452
ENCODING 1106
SWIDTH 615 0
DWIDTH 8 0
BBX 5 9 1 -1
BITMAP
80
E0
80
B8
C8
88
88
C8
08
ENDCHAR
STARTCHAR 0453
ENCODING 1107
SWIDTH 615 0
DWIDTH 8 0
BBX 4 8 2 0
BITMAP
20
40
F0
90
80
80
80
C0
ENDCHAR
STARTCHAR 0454
ENCODING 1108
SWIDTH 615 0
DWIDTH 8 0
BBX 6 6 1 0
BITMAP
7C
84
80
F0
84
78
ENDCHAR
STARTCHAR 0455
ENCODING 1109
SWIDTH 615 0
DWIDTH 8 0
BBX 5 6 1 0
BITMAP
70
88
70
08
88
F8
ENDCHAR
STARTCHAR 0456
ENCODING 1110
SWIDTH 615 0
DWIDTH 8 0
BBX 5 9 1 0
BITMAP
20
20
00
60
20
20
20
20
F8
ENDCHAR
STARTCHAR 0457
ENCODING 1111
SWIDTH 615 0
DWIDTH 8 0
BBX 5 8 1 0
BITMAP
50
00
60
20
20
20
20
F8
ENDCHAR
STARTCHAR 0458
ENCODING 1112
SWIDTH 615 0
DWIDTH 8 0
BBX 4 12 2 -3
BITMAP
10
10
00
F0
10
10
10
10
10
10
10
E0
ENDCHAR
STARTCHAR 0459
ENCODING 1113
SWIDTH 615 0
DWIDTH 8 0
BBX 7 6 0 0
BITMAP
78
48
4C
4A
CA
CE
ENDCHAR
STARTCHAR 045A
ENCODING 1114
SWIDTH 615 0
DWIDTH 8 0
BBX 7 6 0 0
BITMAP
D8
48
7C
4A
4A
4E
ENDCHAR
STARTCHAR 045B
ENCODING 1115
SWIDTH 615 0
DWIDTH 8 0
BBX 6 8 1 0
BITMAP
80
E0
80
B8
C8
88
88
CC
ENDCHAR
STARTCHAR 045C
ENCODING 1116
SWIDTH 615 0
DWIDTH 8 0
BBX 6 8 1 0
BITMAP
10
20
98
A0
C0
A0
90
8C
ENDCHAR
STARTCHAR 045D
ENCODING 1117
SWIDTH 615 0
DWIDTH 8 0
BBX 6 8 1 0
BITMAP
20
10
CC
88
98
A8
48
CC
ENDCHAR
STARTCHAR 045E
ENCODING 1118
SWIDTH 615 0
DWIDTH 8 0
BBX 6 11 1 -3
BITMAP
48
30
CC
88
48
50
30
20
20
20
E0
ENDCHAR
STARTCHAR 045F
ENCODING 1119
SWIDTH 615 0
DWIDTH 8 0
BBX 6 7 1 -2
BITMAP
CC
88
88
88
88
FC
20
ENDCHAR
STARTCHAR 048C
ENCODING 1164
SWIDTH 615 0
DWIDTH 8 0
BBX 6 8 1 0
BITMAP
F0
F0
40
70
48
44
44
F8
ENDCHAR
STARTCHAR 048D
ENCODING 1165
SWIDTH 615 0
DWIDTH 8 0
BBX 5 6 1 0
BITMAP
40
C0
70
48
48
78
ENDCHAR
STARTCHAR 048E
ENCODING 1166
SWIDTH 615 0
DWIDTH 8 0
BBX 6 8 1 0
BITMAP
F8
44
44
58
78
44
40
F0
ENDCHAR
STARTCHAR 048F
ENCODING 1167
SWIDTH 615 0
DWIDTH 8 0
BBX 6 9 1 -3
BITMAP
B8
44
84
84
4C
B8
84
80
E0
ENDCHAR
STARTCHAR 0490
ENCODING 1168
SWIDTH 615 0
DWIDTH 8 0
BBX 6 9 1 1
BITMAP
04
FC
80
80
80
80
80
80
E0
ENDCHAR
STARTCHAR 0491
ENCODING 1169
SWIDTH 615 0
DWIDTH 8 0
BBX 4 7 2 1
BITMAP
10
F0
80
80
80
80
C0
ENDCHAR
STARTCHAR 0492
ENCODING 1170
SWIDTH 615 0
DWIDTH 8 0
BBX 6 8 1 0
BITMAP
FC
84
E0
80
80
80
80
E0
ENDCHAR
STARTCHAR 0493
ENCODING 1171
SWIDTH 615 0
DWIDTH 8 0
BBX 4 6 2 0
BITMAP
F0
90
C0
80
80
C0
ENDCHAR
STARTCHAR 0494
ENCODING 1172
SWIDTH 615 0
DWIDTH 8 0
BBX 6 9 1 -1
BITMAP
FC
84
80
78
88
88
88
E8
08
ENDCHAR
STARTCHAR 0495
ENCODING 1173
SWIDTH 615 0
DWIDTH 8 0
BBX 4 6 2 0
BITMAP
F0
90
80
80
80
C0
ENDCHAR
STARTCHAR 0496
ENCODING 1174
SWIDTH 615 0
DWIDTH 8 0
BBX 8 10 0 -2
BITMAP
DB
54
38
18
34
54
52
9B
01
01
ENDCHAR
STARTCHAR 0497
ENCODING 1175
SWIDTH 615 0
DWIDTH 8 0
BBX 8 8 0 -2
BITMAP
DA
34
18
34
54
DA
01
01
ENDCHAR
STARTCHAR 0498
ENCODING 1176
SWIDTH 615 0
DWIDTH 8 0
BBX 6 8 1 0
BITMAP
F8
88
08
30
08
04
88
F8
ENDCHAR
STARTCHAR 0499
ENCODING 1177
SWIDTH 615 0
DWIDTH 8 0
BBX 5 6 1 0
BITMAP
78
88
38
08
88
F8
ENDCHAR
STARTCHAR 049A
ENCODING 1178
SWIDTH 615 0
DWIDTH 8 0
BBX 6 9 1 -2
BITMAP
CC
90
A0
40
A0
90
88
C4
04
ENDCHAR
STARTCHAR 049B
ENCODING 1179
SWIDTH 615 0
DWIDTH 8 0
BBX 6 8 1 -2
BITMAP
98
A0
C0
A0
90
8C
04
04
ENDCHAR
STARTCHAR 049C
ENCODING 1180
SWIDTH 615 0
DWIDTH 8 0
BBX 6 8 1 0
BITMAP
CC
90
E0
C0
F0
90
88
C4
ENDCHAR
STARTCHAR 049D
ENCODING 1181
SWIDTH 615 0
DWIDTH 8 0
BBX 6 6 1 0
BITMAP
98
D0
60
A0
90
8C
ENDCHAR
STARTCHAR 049E
ENCODING 1182
SWIDTH 615 0
DWIDTH 8 0
BBX 6 8 1 0
BITMAP
CC
D0
A0
C0
A0
90
88
C4
ENDCHAR
STARTCHAR 049F
ENCODING 1183
SWIDTH 615 0
DWIDTH 8 0
BBX 6 6 1 0
BITMAP
98
D0
A0
40
B0
8C
ENDCHAR
STARTCHAR 04A0
ENCODING 1184
SWIDTH 615 0
DWIDTH 8 0
BBX 6 8 1 0
BITMAP
CC
90
A0
C0
A0
90
88
C4
ENDCHAR
STARTCHAR 04A1
ENCODING 1185
SWIDTH 615 0
DWIDTH 8 0
BBX 6 6 1 0
BITMAP
98
A0
C0
A0
90
8C
ENDCHAR
STARTCHAR 04A2
ENCODING 1186
SWIDTH 615 0
DWIDTH 8 0
BBX 6 9 1 -2
BITMAP
CC
88
88
78
88
88
88
CC
04
ENDCHAR
STARTCHAR 04A3
ENCODING 1187
SWIDTH 615 0
DWIDTH 8 0
BBX 6 7 1 -2
BITMAP
CC
88
88
78
88
CC
04
ENDCHAR
STARTCHAR 04A4
ENCODING 1188
SWIDTH 615 0
DWIDTH 8 0
BBX 6 8 1 0
BITMAP
CC
88
88
78
88
88
88
CC
ENDCHAR
STARTCHAR 04A5
ENCODING 1189
SWIDTH 615 0
DWIDTH 8 0
BBX 6 6 1 0
BITMAP
CC
88
88
78
88
CC
ENDCHAR
STARTCHAR 04A6
ENCODING 1190
SWIDTH 615 0
DWIDTH 8 0
BBX 6 8 1 0
BITMAP
FC
88
88
88
88
88
88
CC
ENDCHAR
STARTCHAR 04A7
ENCODING 1191
SWIDTH 615 0
DWIDTH 8 0
BBX 6 6 1 0
BITMAP
FC
88
88
88
88
CC
ENDCHAR
STARTCHAR 04A8
ENCODING 1192
SWIDTH 615 0
DWIDTH 8 0
BBX 6 8 1 0
BITMAP
7C
84
80
80
80
80
84
78
ENDCHAR
STARTCHAR 04A9
ENCODING 1193
SWIDTH 615 0
DWIDTH 8 0
BBX 6 6 1 0
BITMAP
7C
84
80
80
84
78
ENDCHAR
STARTCHAR 04AA
ENCODING 1194
SWIDTH 615 0
DWIDTH 8 0
BBX 6 8 1 0
BITMAP
7C
84
80
80
80
80
84
78
ENDCHAR
STARTCHAR 04AB
ENCODING 1195
SWIDTH 615 0
DWIDTH 8 0
BBX 6 6 1 0
BITMAP
7C
84
80
80
84
78
ENDCHAR
STARTCHAR 04AC
ENCODING 1196
SWIDTH 615 0
DWIDTH 8 0
BBX 6 10 1 -2
BITMAP
FC
24
20
20
20
20
20
78
08
08
ENDCHAR
STARTCHAR 04AD
ENCODING 1197
SWIDTH 615 0
DWIDTH 8 0
BBX 4 7 2 -2
BITMAP
F0
D0
40
40
40
60
20
ENDCHAR
STARTCHAR 04AE
ENCODING 1198
SWIDTH 615 0
DWIDTH 8 0
BBX 6 8 1 0
BITMAP
CC
48
50
30
20
20
20
78
ENDCHAR
STARTCHAR 04AF
ENCODING 1199
SWIDTH 615 0
DWIDTH 8 0
BBX 7 10 0 -4
BITMAP
E6
44
24
28
28
10
10
10
10
18
ENDCHAR
STARTCHAR 04B0
ENCODING 1200
SWIDTH 615 0
DWIDTH 8 0
BBX 6 8 1 0
BITMAP
CC
48
50
30
78
20
20
78
ENDCHAR
STARTCHAR 04B1
ENCODING 1201
SWIDTH 615 0
DWIDTH 8 0
BBX 7 10 0 -4
BITMAP
E6
44
24
28
28
18
3C
10
10
18
ENDCHAR
STARTCHAR 04B2
ENCODING 1202
SWIDTH 615 0
DWIDTH 8 0
BBX 6 9 1 -2
BITMAP
CC
48
50
30
30
50
88
CC
04
ENDCHAR
STARTCHAR 04B3
ENCODING 1203
SWIDTH 615 0
DWIDTH 8 0
BBX 6 7 1 -2
BITMAP
CC
48
30
30
48
CC
04
ENDCHAR
STARTCHAR 04B4
ENCODING 1204
SWIDTH 615 0
DWIDTH 8 0
BBX 6 10 1 -2
BITMAP
CC
88
88
88
88
88
88
FC
04
04
ENDCHAR
STARTCHAR 04B5
ENCODING 1205
SWIDTH 615 0
DWIDTH 8 0
BBX 6 7 1 -2
BITMAP
CC
88
88
88
88
FC
04
ENDCHAR
STARTCHAR 04B6
ENCODING 1206
SWIDTH 615 0
DWIDTH 8 0
BBX 6 10 1 -2
BITMAP
D8
88
88
88
78
08
08
1C
04
04
ENDCHAR
STARTCHAR 04B7
ENCODING 1207
SWIDTH 615 0
DWIDTH 8 0
BBX 6 7 1 -2
BITMAP
C8
48
48
78
08
08
04
ENDCHAR
STARTCHAR 04B8
ENCODING 1208
SWIDTH 615 0
DWIDTH 8 0
BBX 6 8 1 0
BITMAP
D8
88
88
A8
68
38
08
1C
ENDCHAR
STARTCHAR 04B9
ENCODING 1209
SWIDTH 615 0
DWIDTH 8 0
BBX 5 6 1 0
BITMAP
C8
48
48
78
28
08
ENDCHAR
STARTCHAR 04BA
ENCODING 1210
SWIDTH 615 0
DWIDTH 8 0
BBX 6 8 1 0
BITMAP
C0
80
80
B8
C8
88
88
CC
ENDCHAR
STARTCHAR 04BB
ENCODING 1211
SWIDTH 615 0
DWIDTH 8 0
BBX 5 6 1 0
BITMAP
C0
40
78
48
48
D8
ENDCHAR
STARTCHAR 04BC
ENCODING 1212
SWIDTH 615 0
DWIDTH 8 0
BBX 6 8 1 0
BITMAP
7C
84
80
80
80
80
84
78
ENDCHAR
STARTCHAR 04BD
ENCODING 1213
SWIDTH 615 0
DWIDTH 8 0
BBX 6 6 1 0
BITMAP
7C
84
80
80
84
78
ENDCHAR
STARTCHAR 04BE
ENCODING 1214
SWIDTH 615 0
DWIDTH 8 0
BBX 6 8 1 0
BITMAP
7C
84
80
80
80
80
84
78
ENDCHAR
STARTCHAR 04BF
ENCODING 1215
SWIDTH 615 0
DWIDTH 8 0
BBX 6 6 1 0
BITMAP
7C
84
80
80
84
78
ENDCHAR
STARTCHAR 04C0
ENCODING 1216
SWIDTH 615 0
DWIDTH 8 0
BBX 4 8 2 0
BITMAP
F0
40
40
40
40
40
40
F0
ENDCHAR
STARTCHAR 04C1
ENCODING 1217
SWIDTH 615 0
DWIDTH 8 0
BBX 8 10 0 1
BITMAP
24
38
00
DB
54
38
18
74
52
92
ENDCHAR
STARTCHAR 04C2
ENCODING 1218
SWIDTH 615 0
DWIDTH 8 0
BBX 8 9 0 0
BITMAP
24
38
00
DA
34
18
34
54
DB
ENDCHAR
STARTCHAR 04C3
ENCODING 1219
SWIDTH 615 0
DWIDTH 8 0
BBX 6 8 1 0
BITMAP
CC
90
A0
C0
A0
90
88
C4
ENDCHAR
STARTCHAR 04C4
ENCODING 1220
SWIDTH 615 0
DWIDTH 8 0
BBX 6 6 1 0
BITMAP
98
A0
C0
A0
90
8C
ENDCHAR
STARTCHAR 04C7
ENCODING 1223
SWIDTH 615 0
DWIDTH 8 0
BBX 6 8 1 0
BITMAP
CC
88
88
78
88
88
88
CC
ENDCHAR
STARTCHAR 04C8
ENCODING 1224
SWIDTH 615 0
DWIDTH 8 0
BBX 6 6 1 0
BITMAP
CC
88
88
78
88
CC
ENDCHAR
STARTCHAR 04CB
ENCODING 1227
SWIDTH 615 0
DWIDTH 8 0
BBX 6 8 1 0
BITMAP
D8
88
88
88
78
08
08
1C
ENDCHAR
STARTCHAR 04CC
ENCODING 1228
SWIDTH 615 0
DWIDTH 8 0
BBX 5 6 1 0
BITMAP
C8
48
48
78
08
08
ENDCHAR
STARTCHAR 04D0
ENCODING 1232
SWIDTH 615 0
DWIDTH 8 0
BBX 8 11 0 0
BITMAP
24
38
00
70
28
28
28
44
3C
42
E7
ENDCHAR
STARTCHAR 04D1
ENCODING 1233
SWIDTH 615 0
DWIDTH 8 0
BBX 6 9 1 0
BITMAP
48
70
00
70
08
28
D8
88
FC
ENDCHAR
STARTCHAR 04D2
ENCODING 1234
SWIDTH 615 0
DWIDTH 8 0
BBX 8 10 0 0
BITMAP
28
00
70
28
28
28
44
3C
42
E7
ENDCHAR
STARTCHAR 04D3
ENCODING 1235
SWIDTH 615 0
DWIDTH 8 0
BBX 6 8 1 0
BITMAP
50
00
70
08
28
D8
88
FC
ENDCHAR
STARTCHAR 04D4
ENCODING 1236
SWIDTH 615 0
DWIDTH 8 0
BBX 8 8 0 0
BITMAP
3E
32
30
2C
54
70
51
DF
ENDCHAR
STARTCHAR 04D5
ENCODING 1237
SWIDTH 615 0
DWIDTH 8 0
BBX 8 6 0 0
BITMAP
76
1A
39
D6
88
76
ENDCHAR
STARTCHAR 04D6
ENCODING 1238
SWIDTH 615 0
DWIDTH 8 0
BBX 6 11 1 0
BITMAP
48
70
00
FC
84
90
70
90
80
84
FC
ENDCHAR
STARTCHAR 04D7
ENCODING 1239
SWIDTH 615 0
DWIDTH 8 0
BBX 6 9 1 0
BITMAP
48
70
00
78
84
FC
80
80
78
ENDCHAR
STARTCHAR 04D8
ENCODING 1240
SWIDTH 615 0
DWIDTH 8 0
BBX 6 8 1 0
BITMAP
70
88
04
04
FC
84
84
78
ENDCHAR
STARTCHAR 04D9
ENCODING 1241
SWIDTH 615 0
DWIDTH 8 0
BBX 6 6 1 0
BITMAP
78
84
FC
84
88
78
ENDCHAR
STARTCHAR 04DA
ENCODING 1242
SWIDTH 615 0
DWIDTH 8 0
BBX 6 10 1 0
BITMAP
48
00
70
88
04
04
FC
84
84
78
ENDCHAR
STARTCHAR 04DB
ENCODING 1243
SWIDTH 615 0
DWIDTH 8 0
BBX 6 8 1 0
BITMAP
50
40
78
84
FC
84
88
78
ENDCHAR
STARTCHAR 04DC
ENCODING 1244
SWIDTH 615 0
DWIDTH 8 0
BBX 8 10 0 0
BITMAP
24
00
DB
54
38
18
34
54
52
9B
ENDCHAR
STARTCHAR 04DD
ENCODING 1245
SWIDTH 615 0
DWIDTH 8 0
BBX 8 8 0 0
BITMAP
24
00
DA
34
18
34
54
DB
ENDCHAR
STARTCHAR 04DE
ENCODING 1246
SWIDTH 615 0
DWIDTH 8 0
BBX 6 10 1 0
BITMAP
48
00
F8
88
08
30
08
04
88
F8
ENDCHAR
STARTCHAR 04DF
ENCODING 1247
SWIDTH 615 0
DWIDTH 8 0
BBX 5 8 1 0
BITMAP
48
00
78
88
38
08
88
F8
ENDCHAR
STARTCHAR 04E0
ENCODING 1248
SWIDTH 615 0
DWIDTH 8 0
BBX 6 8 1 0
BITMAP
F8
88
08
30
08
04
88
F8
ENDCHAR
STARTCHAR 04E1
ENCODING 1249
SWIDTH 615 0
DWIDTH 8 0
BBX 5 6 1 0
BITMAP
78
88
38
08
88
F8
ENDCHAR
STARTCHAR 04E2
ENCODING 1250
SWIDTH 615 0
DWIDTH 8 0
BBX 6 10 1 0
BITMAP
70
00
CC
88
88
98
A8
48
88
CC
ENDCHAR
STARTCHAR 04E3
ENCODING 1251
SWIDTH 615 0
DWIDTH 8 0
BBX 6 8 1 0
BITMAP
70
00
CC
88
98
A8
48
CC
ENDCHAR
STARTCHAR 04E4
ENCODING 1252
SWIDTH 615 0
DWIDTH 8 0
BBX 6 10 1 0
BITMAP
48
00
CC
88
88
98
A8
48
88
CC
ENDCHAR
STARTCHAR 04E5
ENCODING 1253
SWIDTH 615 0
DWIDTH 8 0
BBX 6 8 1 0
BITMAP
48
00
CC
88
98
A8
48
CC
ENDCHAR
STARTCHAR 04E6
ENCODING 1254
SWIDTH 615 0
DWIDTH 8 0
BBX 6 10 1 0
BITMAP
50
00
70
88
84
84
84
84
88
70
ENDCHAR
STARTCHAR 04E7
ENCODING 1255
SWIDTH 615 0
DWIDTH 8 0
BBX 6 8 1 0
BITMAP
50
00
78
88
84
84
88
78
ENDCHAR
STARTCHAR 04E8
ENCODING 1256
SWIDTH 615 0
DWIDTH 8 0
BBX 6 8 1 0
BITMAP
70
88
84
84
FC
84
84
78
ENDCHAR
STARTCHAR 04E9
ENCODING 1257
SWIDTH 615 0
DWIDTH 8 0
BBX 6 6 1 0
BITMAP
78
88
84
FC
84
78
ENDCHAR
STARTCHAR 04EA
ENCODING 1258
SWIDTH 615 0
DWIDTH 8 0
BBX 6 10 1 0
BITMAP
50
00
70
88
84
84
FC
84
84
78
ENDCHAR
STARTCHAR 04EB
ENCODING 1259
SWIDTH 615 0
DWIDTH 8 0
BBX 6 8 1 0
BITMAP
50
40
78
88
84
FC
84
78
ENDCHAR
STARTCHAR 04EC
ENCODING 1260
SWIDTH 615 0
DWIDTH 8 0
BBX 6 10 1 0
BITMAP
50
00
F0
88
04
3C
04
04
88
70
ENDCHAR
STARTCHAR 04ED
ENCODING 1261
SWIDTH 615 0
DWIDTH 8 0
BBX 6 8 1 0
BITMAP
50
40
F8
88
04
3C
04
F8
ENDCHAR
STARTCHAR 04EE
ENCODING 1262
SWIDTH 615 0
DWIDTH 8 0
BBX 6 10 1 0
BITMAP
70
00
CC
88
48
30
10
20
20
C0
ENDCHAR
STARTCHAR 04EF
ENCODING 1263
SWIDTH 615 0
DWIDTH 8 0
BBX 6 11 1 -3
BITMAP
70
00
CC
88
48
50
30
20
20
20
E0
ENDCHAR
STARTCHAR 04F0
ENCODING 1264
SWIDTH 615 0
DWIDTH 8 0
BBX 6 10 1 0
BITMAP
50
00
CC
88
48
30
10
20
20
C0
ENDCHAR
STARTCHAR 04F1
ENCODING 1265
SWIDTH 615 0
DWIDTH 8 0
BBX 6 11 1 -3
BITMAP
50
00
CC
88
48
50
30
20
20
20
E0
ENDCHAR
STARTCHAR 04F2
ENCODING 1266
SWIDTH 615 0
DWIDTH 8 0
BBX 6 11 1 0
BITMAP
14
28
00
CC
88
48
30
10
20
20
C0
ENDCHAR
STARTCHAR 04F3
ENCODING 1267
SWIDTH 615 0
DWIDTH 8 0
BBX 6 12 1 -3
BITMAP
28
50
00
CC
88
48
50
30
20
20
20
E0
ENDCHAR
STARTCHAR 04F4
ENCODING 1268
SWIDTH 615 0
DWIDTH 8 0
BBX 6 10 1 0
BITMAP
50
00
CC
88
88
88
78
08
08
0C
ENDCHAR
STARTCHAR 04F5
ENCODING 1269
SWIDTH 615 0
DWIDTH 8 0
BBX 5 8 1 0
BITMAP
50
00
C8
48
48
78
08
08
ENDCHAR
STARTCHAR 04F8
ENCODING 1272
SWIDTH 615 0
DWIDTH 8 0
BBX 8 10 0 0
BITMAP
28
00
C3
82
82
72
8A
86
86
FB
ENDCHAR
STARTCHAR 04F9
ENCODING 1273
SWIDTH 615 0
DWIDTH 8 0
BBX 8 8 0 0
BITMAP
28
00
C3
82
72
8A
8A
FB
ENDCHAR
STARTCHAR 0E3F
ENCODING 3647
SWIDTH 615 0
DWIDTH 8 0
BBX 6 10 1 -1
BITMAP
20
F8
88
88
78
84
84
84
F8
20
ENDCHAR
STARTCHAR 1E0C
ENCODING 7692
SWIDTH 615 0
DWIDTH 8 0
BBX 6 10 1 -2
BITMAP
F0
88
84
84
84
84
88
F0
00
20
ENDCHAR
STARTCHAR 1E0D
ENCODING 7693
SWIDTH 615 0
DWIDTH 8 0
BBX 6 10 1 -2
BITMAP
0C
04
74
8C
84
84
84
7C
00
30
ENDCHAR
STARTCHAR 1E0E
ENCODING 7694
SWIDTH 615 0
DWIDTH 8 0
BBX 6 10 1 -2
BITMAP
F0
88
84
84
84
84
88
F0
00
70
ENDCHAR
STARTCHAR 1E0F
ENCODING 7695
SWIDTH 615 0
DWIDTH 8 0
BBX 6 10 1 -2
BITMAP
0C
04
74
8C
84
84
84
7C
00
78
ENDCHAR
STARTCHAR 1E24
ENCODING 7716
SWIDTH 615 0
DWIDTH 8 0
BBX 6 10 1 -2
BITMAP
CC
88
88
78
88
88
88
CC
00
30
ENDCHAR
STARTCHAR 1E25
ENCODING 7717
SWIDTH 615 0
DWIDTH 8 0
BBX 6 10 1 -2
BITMAP
80
80
B8
C8
88
88
88
CC
00
20
ENDCHAR
STARTCHAR 1E26
ENCODING 7718
SWIDTH 615 0
DWIDTH 8 0
BBX 6 10 1 0
BITMAP
58
00
CC
88
88
78
88
88
88
CC
ENDCHAR
STARTCHAR 1E27
ENCODING 7719
SWIDTH 615 0
DWIDTH 8 0
BBX 6 10 1 0
BITMAP
58
00
80
80
B8
C8
88
88
88
CC
ENDCHAR
STARTCHAR 1E2A
ENCODING 7722
SWIDTH 615 0
DWIDTH 8 0
BBX 6 11 1 -3
BITMAP
CC
88
88
78
88
88
88
CC
00
48
30
ENDCHAR
STARTCHAR 1E2B
ENCODING 7723
SWIDTH 615 0
DWIDTH 8 0
BBX 6 11 1 -3
BITMAP
80
80
B8
C8
88
88
88
CC
00
48
30
ENDCHAR
STARTCHAR 1E36
ENCODING 7734
SWIDTH 615 0
DWIDTH 8 0
BBX 6 10 1 -2
BITMAP
E0
40
40
40
40
44
44
FC
00
30
ENDCHAR
STARTCHAR 1E37
ENCODING 7735
SWIDTH 615 0
DWIDTH 8 0
BBX 5 10 1 -2
BITMAP
60
20
20
20
20
20
20
F8
00
30
ENDCHAR
STARTCHAR 1E38
ENCODING 7736
SWIDTH 615 0
DWIDTH 8 0
BBX 6 12 1 -2
BITMAP
E0
00
E0
40
40
40
40
44
44
FC
00
30
ENDCHAR
STARTCHAR 1E39
ENCODING 7737
SWIDTH 615 0
DWIDTH 8 0
BBX 5 12 1 -2
BITMAP
78
00
60
20
20
20
20
20
20
F8
00
30
ENDCHAR
STARTCHAR 1E42
ENCODING 7746
SWIDTH 615 0
DWIDTH 8 0
BBX 8 10 0 -2
BITMAP
C2
A6
AA
AA
9A
82
82
E7
00
18
ENDCHAR
STARTCHAR 1E43
ENCODING 7747
SWIDTH 615 0
DWIDTH 8 0
BBX 8 8 0 -2
BITMAP
BE
D2
92
92
92
CB
00
18
ENDCHAR
STARTCHAR 1E44
ENCODING 7748
SWIDTH 615 0
DWIDTH 8 0
BBX 7 10 0 0
BITMAP
18
00
C6
62
62
52
52
4A
46
62
ENDCHAR
STARTCHAR 1E45
ENCODING 7749
SWIDTH 615 0
DWIDTH 8 0
BBX 6 8 1 0
BITMAP
30
00
B8
C8
88
88
88
CC
ENDCHAR
STARTCHAR 1E46
ENCODING 7750
SWIDTH 615 0
DWIDTH 8 0
BBX 7 10 0 -2
BITMAP
C6
62
62
52
52
4A
46
62
00
18
ENDCHAR
STARTCHAR 1E47
ENCODING 7751
SWIDTH 615 0
DWIDTH 8 0
BBX 6 8 1 -2
BITMAP
B8
C8
88
88
88
CC
00
30
ENDCHAR
STARTCHAR 1E58
ENCODING 7768
SWIDTH 615 0
DWIDTH 8 0
BBX 6 10 1 0
BITMAP
20
00
F8
88
88
88
70
88
88
C4
ENDCHAR
STARTCHAR 1E59
ENCODING 7769
SWIDTH 615 0
DWIDTH 8 0
BBX 6 8 1 0
BITMAP
20
00
DC
20
40
40
40
F8
ENDCHAR
STARTCHAR 1E5A
ENCODING 7770
SWIDTH 615 0
DWIDTH 8 0
BBX 6 10 1 -2
BITMAP
F8
88
88
88
70
88
88
C4
00
20
ENDCHAR
STARTCHAR 1E5B
ENCODING 7771
SWIDTH 615 0
DWIDTH 8 0
BBX 6 8 1 -2
BITMAP
DC
20
40
40
40
F8
00
20
ENDCHAR
STARTCHAR 1E5C
ENCODING 7772
SWIDTH 615 0
DWIDTH 8 0
BBX 6 12 1 -2
BITMAP
70
00
F8
88
88
88
70
88
88
C4
00
20
ENDCHAR
STARTCHAR 1E5D
ENCODING 7773
SWIDTH 615 0
DWIDTH 8 0
BBX 6 10 1 -2
BITMAP
F0
00
DC
20
40
40
40
F8
00
20
ENDCHAR
STARTCHAR 1E62
ENCODING 7778
SWIDTH 615 0
DWIDTH 8 0
BBX 6 10 1 -2
BITMAP
70
88
80
60
18
04
88
F8
00
30
ENDCHAR
STARTCHAR 1E63
ENCODING 7779
SWIDTH 615 0
DWIDTH 8 0
BBX 5 8 1 -2
BITMAP
70
88
60
18
88
D8
20
20
ENDCHAR
STARTCHAR 1E6C
ENCODING 7788
SWIDTH 615 0
DWIDTH 8 0
BBX 6 10 1 -2
BITMAP
FC
24
20
20
20
20
20
78
00
30
ENDCHAR
STARTCHAR 1E6D
ENCODING 7789
SWIDTH 615 0
DWIDTH 8 0
BBX 5 10 1 -2
BITMAP
80
80
F0
80
80
80
80
78
00
20
ENDCHAR
STARTCHAR 1E6E
ENCODING 7790
SWIDTH 615 0
DWIDTH 8 0
BBX 6 10 1 -2
BITMAP
FC
24
20
20
20
20
20
78
00
78
ENDCHAR
STARTCHAR 1E6F
ENCODING 7791
SWIDTH 615 0
DWIDTH 8 0
BBX 5 10 1 -2
BITMAP
80
80
F0
80
80
80
80
78
00
70
ENDCHAR
STARTCHAR 1E80
ENCODING 7808
SWIDTH 615 0
DWIDTH 8 0
BBX 7 10 0 0
BITMAP
10
00
E6
82
5A
5A
6A
6C
64
24
ENDCHAR
STARTCHAR 1E81
ENCODING 7809
SWIDTH 615 0
DWIDTH 8 0
BBX 6 9 1 0
BITMAP
40
20
00
8C
84
B8
B8
C8
48
ENDCHAR
STARTCHAR 1E82
ENCODING 7810
SWIDTH 615 0
DWIDTH 8 0
BBX 7 10 0 0
BITMAP
08
00
E6
82
5A
5A
6A
6C
64
24
ENDCHAR
STARTCHAR 1E83
ENCODING 7811
SWIDTH 615 0
DWIDTH 8 0
BBX 6 9 1 0
BITMAP
10
20
00
8C
84
B8
B8
C8
48
ENDCHAR
STARTCHAR 1E84
ENCODING 7812
SWIDTH 615 0
DWIDTH 8 0
BBX 7 10 0 0
BITMAP
2C
00
E6
82
5A
5A
6A
6C
64
24
ENDCHAR
STARTCHAR 1E85
ENCODING 7813
SWIDTH 615 0
DWIDTH 8 0
BBX 6 8 1 0
BITMAP
58
00
8C
84
B8
B8
C8
48
ENDCHAR
STARTCHAR 1E92
ENCODING 7826
SWIDTH 615 0
DWIDTH 8 0
BBX 5 10 1 -2
BITMAP
78
88
10
20
20
40
88
F8
00
20
ENDCHAR
STARTCHAR 1E93
ENCODING 7827
SWIDTH 615 0
DWIDTH 8 0
BBX 4 8 2 -2
BITMAP
F0
20
20
40
80
F0
00
60
ENDCHAR
STARTCHAR 1E97
ENCODING 7831
SWIDTH 615 0
DWIDTH 8 0
BBX 6 10 0 0
BITMAP
D0
00
40
40
78
40
40
40
40
3C
ENDCHAR
STARTCHAR 1EA0
ENCODING 7840
SWIDTH 615 0
DWIDTH 8 0
BBX 8 10 0 -2
BITMAP
70
28
28
28
44
3C
42
E7
00
18
ENDCHAR
STARTCHAR 1EA1
ENCODING 7841
SWIDTH 615 0
DWIDTH 8 0
BBX 6 8 1 -2
BITMAP
70
08
28
D8
88
FC
00
30
ENDCHAR
STARTCHAR 1EA2
ENCODING 7842
SWIDTH 615 0
DWIDTH 8 0
BBX 8 11 0 0
BITMAP
18
08
00
70
28
28
28
44
3C
42
E7
ENDCHAR
STARTCHAR 1EA3
ENCODING 7843
SWIDTH 615 0
DWIDTH 8 0
BBX 6 9 1 0
BITMAP
30
10
00
70
08
28
D8
88
FC
ENDCHAR
STARTCHAR 1EA4
ENCODING 7844
SWIDTH 615 0
DWIDTH 8 0
BBX 8 11 0 1
BITMAP
30
38
00
70
28
28
28
44
3C
42
E7
ENDCHAR
STARTCHAR 1EA5
ENCODING 7845
SWIDTH 615 0
DWIDTH 8 0
BBX 6 10 1 0
BITMAP
10
60
20
58
70
08
28
D8
88
FC
ENDCHAR
STARTCHAR 1EA6
ENCODING 7846
SWIDTH 615 0
DWIDTH 8 0
BBX 8 12 0 0
BITMAP
10
08
38
00
70
28
28
28
44
3C
42
E7
ENDCHAR
STARTCHAR 1EA7
ENCODING 7847
SWIDTH 615 0
DWIDTH 8 0
BBX 6 10 1 0
BITMAP
20
10
20
58
70
08
28
D8
88
FC
ENDCHAR
STARTCHAR 1EA8
ENCODING 7848
SWIDTH 615 0
DWIDTH 8 0
BBX 8 12 0 1
BITMAP
0C
08
38
00
70
28
28
28
44
3C
42
E7
ENDCHAR
STARTCHAR 1EA9
ENCODING 7849
SWIDTH 615 0
DWIDTH 8 0
BBX 6 10 1 1
BITMAP
18
10
20
58
70
08
28
D8
88
FC
ENDCHAR
STARTCHAR 1EAA
ENCODING 7850
SWIDTH 615 0
DWIDTH 8 0
BBX 8 11 0 0
BITMAP
38
38
00
70
28
28
28
44
3C
42
E7
ENDCHAR
STARTCHAR 1EAB
ENCODING 7851
SWIDTH 615 0
DWIDTH 8 0
BBX 6 9 1 0
BITMAP
78
20
58
70
08
28
D8
88
FC
ENDCHAR
STARTCHAR 1EAC
ENCODING 7852
SWIDTH 615 0
DWIDTH 8 0
BBX 8 12 0 -2
BITMAP
38
00
70
28
28
28
44
3C
42
E7
00
18
ENDCHAR
STARTCHAR 1EAD
ENCODING 7853
SWIDTH 615 0
DWIDTH 8 0
BBX 6 11 1 -2
BITMAP
20
58
00
70
08
28
D8
88
FC
00
30
ENDCHAR
STARTCHAR 1EAE
ENCODING 7854
SWIDTH 615 0
DWIDTH 8 0
BBX 8 12 0 0
BITMAP
08
10
24
18
70
28
28
28
44
3C
42
E7
ENDCHAR
STARTCHAR 1EAF
ENCODING 7855
SWIDTH 615 0
DWIDTH 8 0
BBX 6 10 1 0
BITMAP
10
20
48
30
70
08
28
D8
88
FC
ENDCHAR
STARTCHAR 1EB0
ENCODING 7856
SWIDTH 615 0
DWIDTH 8 0
BBX 8 12 0 0
BITMAP
20
10
24
18
70
28
28
28
44
3C
42
E7
ENDCHAR
STARTCHAR 1EB1
ENCODING 7857
SWIDTH 615 0
DWIDTH 8 0
BBX 6 9 1 1
BITMAP
20
48
30
70
08
28
D8
88
FC
ENDCHAR
STARTCHAR 1EB2
ENCODING 7858
SWIDTH 615 0
DWIDTH 8 0
BBX 8 12 0 0
BITMAP
18
08
24
18
70
28
28
28
44
3C
42
E7
ENDCHAR
STARTCHAR 1EB3
ENCODING 7859
SWIDTH 615 0
DWIDTH 8 0
BBX 6 10 1 0
BITMAP
30
10
48
30
70
08
28
D8
88
FC
ENDCHAR
STARTCHAR 1EB4
ENCODING 7860
SWIDTH 615 0
DWIDTH 8 0
BBX 8 12 0 0
BITMAP
34
08
24
18
70
28
28
28
44
3C
42
E7
ENDCHAR
STARTCHAR 1EB5
ENCODING 7861
SWIDTH 615 0
DWIDTH 8 0
BBX 6 10 1 0
BITMAP
68
10
48
30
70
08
28
D8
88
FC
ENDCHAR
STARTCHAR 1EB6
ENCODING 7862
SWIDTH 615 0
DWIDTH 8 0
BBX 8 13 0 -2
BITMAP
44
38
00
70
28
28
28
44
3C
42
E7
00
18
ENDCHAR
STARTCHAR 1EB7
ENCODING 7863
SWIDTH 615 0
DWIDTH 8 0
BBX 6 11 1 -2
BITMAP
48
70
00
70
08
28
D8
88
FC
00
30
ENDCHAR
STARTCHAR 1EB8
ENCODING 7864
SWIDTH 615 0
DWIDTH 8 0
BBX 6 10 1 -2
BITMAP
F8
88
80
70
90
84
84
FC
00
30
ENDCHAR
STARTCHAR 1EB9
ENCODING 7865
SWIDTH 615 0
DWIDTH 8 0
BBX 6 8 1 -2
BITMAP
70
88
FC
80
80
78
00
20
ENDCHAR
STARTCHAR 1EBA
ENCODING 7866
SWIDTH 615 0
DWIDTH 8 0
BBX 6 11 1 0
BITMAP
70
10
00
F8
88
80
70
90
84
84
FC
ENDCHAR
STARTCHAR 1EBB
ENCODING 7867
SWIDTH 615 0
DWIDTH 8 0
BBX 6 9 1 0
BITMAP
30
10
00
70
88
FC
80
80
78
ENDCHAR
STARTCHAR 1EBC
ENCODING 7868
SWIDTH 615 0
DWIDTH 8 0
BBX 6 10 1 1
BITMAP
68
10
F8
88
80
70
90
84
84
FC
ENDCHAR
STARTCHAR 1EBD
ENCODING 7869
SWIDTH 615 0
DWIDTH 8 0
BBX 6 8 1 0
BITMAP
68
10
70
88
FC
80
80
78
ENDCHAR
STARTCHAR 1EBE
ENCODING 7870
SWIDTH 615 0
DWIDTH 8 0
BBX 6 11 1 1
BITMAP
60
70
00
F8
88
80
70
90
84
84
FC
ENDCHAR
STARTCHAR 1EBF
ENCODING 7871
SWIDTH 615 0
DWIDTH 8 0
BBX 6 10 1 0
BITMAP
10
60
20
58
70
88
FC
80
80
78
ENDCHAR
STARTCHAR 1EC0
ENCODING 7872
SWIDTH 615 0
DWIDTH 8 0
BBX 6 12 1 0
BITMAP
20
10
70
00
F8
88
80
70
90
84
84
FC
ENDCHAR
STARTCHAR 1EC1
ENCODING 7873
SWIDTH 615 0
DWIDTH 8 0
BBX 6 10 1 0
BITMAP
20
10
20
58
70
88
FC
80
80
78
ENDCHAR
STARTCHAR 1EC2
ENCODING 7874
SWIDTH 615 0
DWIDTH 8 0
BBX 6 12 1 1
BITMAP
18
10
70
00
F8
88
80
70
90
84
84
FC
ENDCHAR
STARTCHAR 1EC3
ENCODING 7875
SWIDTH 615 0
DWIDTH 8 0
BBX 6 10 1 1
BITMAP
18
10
20
58
70
88
FC
80
80
78
ENDCHAR
STARTCHAR 1EC4
ENCODING 7876
SWIDTH 615 0
DWIDTH 8 0
BBX 6 11 1 0
BITMAP
70
70
00
F8
88
80
70
90
84
84
FC
ENDCHAR
STARTCHAR 1EC5
ENCODING 7877
SWIDTH 615 0
DWIDTH 8 0
BBX 6 9 1 0
BITMAP
70
20
58
70
88
FC
80
80
78
ENDCHAR
STARTCHAR 1EC6
ENCODING 7878
SWIDTH 615 0
DWIDTH 8 0
BBX 6 12 1 -2
BITMAP
70
00
F8
88
80
70
90
84
84
FC
00
30
ENDCHAR
STARTCHAR 1EC7
ENCODING 7879
SWIDTH 615 0
DWIDTH 8 0
BBX 6 11 1 -2
BITMAP
20
58
00
70
88
FC
80
80
78
00
20
ENDCHAR
STARTCHAR 1EC8
ENCODING 7880
SWIDTH 615 0
DWIDTH 8 0
BBX 4 11 2 0
BITMAP
60
20
00
F0
40
40
40
40
40
40
F0
ENDCHAR
STARTCHAR 1EC9
ENCODING 7881
SWIDTH 615 0
DWIDTH 8 0
BBX 5 9 1 0
BITMAP
30
10
00
60
20
20
20
20
F8
ENDCHAR
STARTCHAR 1ECA
ENCODING 7882
SWIDTH 615 0
DWIDTH 8 0
BBX 4 10 2 -2
BITMAP
F0
40
40
40
40
40
40
F0
00
60
ENDCHAR
STARTCHAR 1ECB
ENCODING 7883
SWIDTH 615 0
DWIDTH 8 0
BBX 5 10 1 -2
BITMAP
30
00
60
20
20
20
20
F8
00
30
ENDCHAR
STARTCHAR 1ECC
ENCODING 7884
SWIDTH 615 0
DWIDTH 8 0
BBX 6 10 1 -2
BITMAP
70
88
84
84
84
84
88
70
00
30
ENDCHAR
STARTCHAR 1ECD
ENCODING 7885
SWIDTH 615 0
DWIDTH 8 0
BBX 6 8 1 -2
BITMAP
78
88
84
84
88
78
00
30
ENDCHAR
STARTCHAR 1ECE
ENCODING 7886
SWIDTH 615 0
DWIDTH 8 0
BBX 6 11 1 0
BITMAP
30
10
00
70
88
84
84
84
84
88
70
ENDCHAR
STARTCHAR 1ECF
ENCODING 7887
SWIDTH 615 0
DWIDTH 8 0
BBX 6 9 1 0
BITMAP
30
10
00
78
88
84
84
88
78
ENDCHAR
STARTCHAR 1ED0
ENCODING 7888
SWIDTH 615 0
DWIDTH 8 0
BBX 6 12 1 0
BITMAP
10
60
20
58
70
88
84
84
84
84
88
70
ENDCHAR
STARTCHAR 1ED1
ENCODING 7889
SWIDTH 615 0
DWIDTH 8 0
BBX 6 10 1 0
BITMAP
10
60
20
58
78
88
84
84
88
78
ENDCHAR
STARTCHAR 1ED2
ENCODING 7890
SWIDTH 615 0
DWIDTH 8 0
BBX 6 12 1 0
BITMAP
20
10
20
58
70
88
84
84
84
84
88
70
ENDCHAR
STARTCHAR 1ED3
ENCODING 7891
SWIDTH 615 0
DWIDTH 8 0
BBX 6 10 1 0
BITMAP
20
10
20
58
78
88
84
84
88
78
ENDCHAR
STARTCHAR 1ED4
ENCODING 7892
SWIDTH 615 0
DWIDTH 8 0
BBX 6 12 1 1
BITMAP
18
10
20
58
70
88
84
84
84
84
88
70
ENDCHAR
STARTCHAR 1ED5
ENCODING 7893
SWIDTH 615 0
DWIDTH 8 0
BBX 6 10 1 1
BITMAP
18
10
20
58
78
88
84
84
88
78
ENDCHAR
STARTCHAR 1ED6
ENCODING 7894
SWIDTH 615 0
DWIDTH 8 0
BBX 6 11 1 0
BITMAP
78
20
58
70
88
84
84
84
84
88
70
ENDCHAR
STARTCHAR 1ED7
ENCODING 7895
SWIDTH 615 0
DWIDTH 8 0
BBX 6 9 1 0
BITMAP
78
20
58
78
88
84
84
88
78
ENDCHAR
STARTCHAR 1ED8
ENCODING 7896
SWIDTH 615 0
DWIDTH 8 0
BBX 6 12 1 -2
BITMAP
30
00
70
88
84
84
84
84
88
70
00
30
ENDCHAR
STARTCHAR 1ED9
ENCODING 7897
SWIDTH 615 0
DWIDTH 8 0
BBX 6 11 1 -2
BITMAP
20
58
00
78
88
84
84
88
78
00
30
ENDCHAR
STARTCHAR 1EDA
ENCODING 7898
SWIDTH 615 0
DWIDTH 8 0
BBX 6 10 1 0
BITMAP
10
20
74
88
84
84
84
84
88
70
ENDCHAR
STARTCHAR 1EDB
ENCODING 7899
SWIDTH 615 0
DWIDTH 8 0
BBX 6 9 1 0
BITMAP
10
20
00
7C
88
84
84
88
78
ENDCHAR
STARTCHAR 1EDC
ENCODING 7900
SWIDTH 615 0
DWIDTH 8 0
BBX 6 10 1 0
BITMAP
40
20
74
88
84
84
84
84
88
70
ENDCHAR
STARTCHAR 1EDD
ENCODING 7901
SWIDTH 615 0
DWIDTH 8 0
BBX 6 9 1 0
BITMAP
40
20
00
7C
88
84
84
88
78
ENDCHAR
STARTCHAR 1EDE
ENCODING 7902
SWIDTH 615 0
DWIDTH 8 0
BBX 6 11 1 0
BITMAP
30
10
00
74
88
84
84
84
84
88
70
ENDCHAR
STARTCHAR 1EDF
ENCODING 7903
SWIDTH 615 0
DWIDTH 8 0
BBX 6 9 1 0
BITMAP
30
10
00
7C
88
84
84
88
78
ENDCHAR
STARTCHAR 1EE0
ENCODING 7904
SWIDTH 615 0
DWIDTH 8 0
BBX 6 10 1 0
BITMAP
68
10
74
88
84
84
84
84
88
70
ENDCHAR
STARTCHAR 1EE1
ENCODING 7905
SWIDTH 615 0
DWIDTH 8 0
BBX 6 8 1 0
BITMAP
68
10
7C
88
84
84
88
78
ENDCHAR
STARTCHAR 1EE2
ENCODING 7906
SWIDTH 615 0
DWIDTH 8 0
BBX 6 10 1 -2
BITMAP
74
88
84
84
84
84
88
70
00
30
ENDCHAR
STARTCHAR 1EE3
ENCODING 7907
SWIDTH 615 0
DWIDTH 8 0
BBX 6 8 1 -2
BITMAP
7C
88
84
84
88
78
00
30
ENDCHAR
STARTCHAR 1EE4
ENCODING 7908
SWIDTH 615 0
DWIDTH 8 0
BBX 6 10 1 -2
BITMAP
CC
88
88
88
88
88
88
70
00
30
ENDCHAR
STARTCHAR 1EE5
ENCODING 7909
SWIDTH 615 0
DWIDTH 8 0
BBX 6 8 1 -2
BITMAP
98
88
88
88
88
74
00
30
ENDCHAR
STARTCHAR 1EE6
ENCODING 7910
SWIDTH 615 0
DWIDTH 8 0
BBX 6 11 1 0
BITMAP
30
10
00
CC
88
88
88
88
88
88
70
ENDCHAR
STARTCHAR 1EE7
ENCODING 7911
SWIDTH 615 0
DWIDTH 8 0
BBX 6 9 1 0
BITMAP
30
10
00
98
88
88
88
88
74
ENDCHAR
STARTCHAR 1EE8
ENCODING 7912
SWIDTH 615 0
DWIDTH 8 0
BBX 7 10 1 0
BITMAP
10
20
CA
8C
88
88
88
88
88
70
ENDCHAR
STARTCHAR 1EE9
ENCODING 7913
SWIDTH 615 0
DWIDTH 8 0
BBX 6 9 1 0
BITMAP
10
20
00
9C
88
88
88
88
74
ENDCHAR
STARTCHAR 1EEA
ENCODING 7914
SWIDTH 615 0
DWIDTH 8 0
BBX 7 10 1 0
BITMAP
40
20
CA
8C
88
88
88
88
88
70
ENDCHAR
STARTCHAR 1EEB
ENCODING 7915
SWIDTH 615 0
DWIDTH 8 0
BBX 6 9 1 0
BITMAP
40
30
00
9C
88
88
88
88
74
ENDCHAR
STARTCHAR 1EEC
ENCODING 7916
SWIDTH 615 0
DWIDTH 8 0
BBX 7 11 1 0
BITMAP
30
10
00
CA
8C
88
88
88
88
88
70
ENDCHAR
STARTCHAR 1EED
ENCODING 7917
SWIDTH 615 0
DWIDTH 8 0
BBX 6 9 1 0
BITMAP
30
10
00
9C
88
88
88
88
74
ENDCHAR
STARTCHAR 1EEE
ENCODING 7918
SWIDTH 615 0
DWIDTH 8 0
BBX 7 10 1 0
BITMAP
68
10
CA
8C
88
88
88
88
88
70
ENDCHAR
STARTCHAR 1EEF
ENCODING 7919
SWIDTH 615 0
DWIDTH 8 0
BBX 6 8 1 0
BITMAP
68
10
9C
88
88
88
88
74
ENDCHAR
STARTCHAR 1EF0
ENCODING 7920
SWIDTH 615 0
DWIDTH 8 0
BBX 7 10 1 -2
BITMAP
CA
8C
88
88
88
88
88
70
00
30
ENDCHAR
STARTCHAR 1EF1
ENCODING 7921
SWIDTH 615 0
DWIDTH 8 0
BBX 6 8 1 -2
BITMAP
9C
88
88
88
88
74
00
30
ENDCHAR
STARTCHAR 1EF2
ENCODING 7922
SWIDTH 615 0
DWIDTH 8 0
BBX 6 10 1 0
BITMAP
20
00
CC
48
50
30
20
20
20
78
ENDCHAR
STARTCHAR 1EF3
ENCODING 7923
SWIDTH 615 0
DWIDTH 8 0
BBX 6 12 1 -3
BITMAP
40
30
00
CC
88
48
50
30
20
20
40
E0
ENDCHAR
STARTCHAR 1EF4
ENCODING 7924
SWIDTH 615 0
DWIDTH 8 0
BBX 6 10 1 -2
BITMAP
CC
48
50
30
20
20
20
78
00
30
ENDCHAR
STARTCHAR 1EF5
ENCODING 7925
SWIDTH 615 0
DWIDTH 8 0
BBX 6 9 1 -3
BITMAP
CC
88
48
50
30
20
20
48
E0
ENDCHAR
STARTCHAR 1EF6
ENCODING 7926
SWIDTH 615 0
DWIDTH 8 0
BBX 6 11 1 0
BITMAP
30
10
00
CC
48
50
30
20
20
20
78
ENDCHAR
STARTCHAR 1EF7
ENCODING 7927
SWIDTH 615 0
DWIDTH 8 0
BBX 6 12 1 -3
BITMAP
30
10
00
CC
88
48
50
30
20
20
40
E0
ENDCHAR
STARTCHAR 1EF8
ENCODING 7928
SWIDTH 615 0
DWIDTH 8 0
BBX 6 10 1 1
BITMAP
68
10
CC
48
50
30
20
20
20
78
ENDCHAR
STARTCHAR 1EF9
ENCODING 7929
SWIDTH 615 0
DWIDTH 8 0
BBX 6 11 1 -3
BITMAP
68
10
CC
88
48
50
30
20
20
40
E0
ENDCHAR
STARTCHAR 2013
ENCODING 8211
SWIDTH 615 0
DWIDTH 8 0
BBX 6 1 1 3
BITMAP
FC
ENDCHAR
STARTCHAR 2014
ENCODING 8212
SWIDTH 615 0
DWIDTH 8 0
BBX 6 1 1 3
BITMAP
FC
ENDCHAR
STARTCHAR 2016
ENCODING 8214
SWIDTH 615 0
DWIDTH 8 0
BBX 2 10 3 -2
BITMAP
C0
C0
C0
C0
C0
C0
C0
C0
C0
C0
ENDCHAR
STARTCHAR 2018
ENCODING 8216
SWIDTH 615 0
DWIDTH 8 0
BBX 2 4 3 4
BITMAP
80
40
40
40
ENDCHAR
STARTCHAR 2019
ENCODING 8217
SWIDTH 615 0
DWIDTH 8 0
BBX 1 4 3 4
BITMAP
80
80
80
80
ENDCHAR
STARTCHAR 201A
ENCODING 8218
SWIDTH 615 0
DWIDTH 8 0
BBX 1 4 2 -2
BITMAP
80
80
80
80
ENDCHAR
STARTCHAR 201C
ENCODING 8220
SWIDTH 615 0
DWIDTH 8 0
BBX 4 4 2 4
BITMAP
90
50
50
50
ENDCHAR
STARTCHAR 201D
ENCODING 8221
SWIDTH 615 0
DWIDTH 8 0
BBX 4 4 1 4
BITMAP
50
50
90
A0
ENDCHAR
STARTCHAR 201E
ENCODING 8222
SWIDTH 615 0
DWIDTH 8 0
BBX 4 4 1 -2
BITMAP
90
A0
A0
C0
ENDCHAR
STARTCHAR 2020
ENCODING 8224
SWIDTH 615 0
DWIDTH 8 0
BBX 4 9 2 -1
BITMAP
40
40
F0
40
40
40
40
40
40
ENDCHAR
STARTCHAR 2021
ENCODING 8225
SWIDTH 615 0
DWIDTH 8 0
BBX 4 9 2 -1
BITMAP
40
40
F0
40
40
F0
40
40
40
ENDCHAR
STARTCHAR 2022
ENCODING 8226
SWIDTH 615 0
DWIDTH 8 0
BBX 4 4 2 1
BITMAP
60
F0
F0
60
ENDCHAR
STARTCHAR 2026
ENCODING 8230
SWIDTH 615 0
DWIDTH 8 0
BBX 6 1 1 0
BITMAP
B4
ENDCHAR
STARTCHAR 2030
ENCODING 8240
SWIDTH 615 0
DWIDTH 8 0
BBX 7 8 0 0
BITMAP
60
A0
44
38
00
66
9A
66
ENDCHAR
STARTCHAR 2031
ENCODING 8241
SWIDTH 1230 0
DWIDTH 16 0
BBX 11 8 0 0
BITMAP
6000
A000
4400
3800
0000
66C0
9B20
66C0
ENDCHAR
STARTCHAR 2039
ENCODING 8249
SWIDTH 615 0
DWIDTH 8 0
BBX 3 6 1 0
BITMAP
20
40
80
80
40
20
ENDCHAR
STARTCHAR 203A
ENCODING 8250
SWIDTH 615 0
DWIDTH 8 0
BBX 3 6 4 0
BITMAP
80
40
60
60
40
80
ENDCHAR
STARTCHAR 203B
ENCODING 8251
SWIDTH 615 0
DWIDTH 8 0
BBX 7 7 0 0
BITMAP
18
14
7A
DA
28
14
18
ENDCHAR
STARTCHAR 203D
ENCODING 8253
SWIDTH 615 0
DWIDTH 8 0
BBX 4 8 2 0
BITMAP
40
F0
50
50
20
00
00
60
ENDCHAR
STARTCHAR 2044
ENCODING 8260
SWIDTH 615 0
DWIDTH 8 0
BBX 6 4 1 2
BITMAP
04
18
20
C0
ENDCHAR
STARTCHAR 2045
ENCODING 8261
SWIDTH 615 0
DWIDTH 8 0
BBX 2 10 3 -2
BITMAP
C0
80
80
80
C0
80
80
80
80
40
ENDCHAR
STARTCHAR 2046
ENCODING 8262
SWIDTH 615 0
DWIDTH 8 0
BBX 3 10 3 -2
BITMAP
C0
20
20
20
C0
40
20
20
40
80
ENDCHAR
STARTCHAR 2052
ENCODING 8274
SWIDTH 615 0
DWIDTH 8 0
BBX 8 8 0 0
BITMAP
01
C2
C4
08
10
22
43
80
ENDCHAR
STARTCHAR 20A1
ENCODING 8353
SWIDTH 615 0
DWIDTH 8 0
BBX 6 10 1 -1
BITMAP
20
7C
A4
A0
A0
A0
A0
A4
78
20
ENDCHAR
STARTCHAR 20A4
ENCODING 8356
SWIDTH 615 0
DWIDTH 8 0
BBX 6 8 1 0
BITMAP
30
40
40
E0
E0
40
40
FC
ENDCHAR
STARTCHAR 20A6
ENCODING 8358
SWIDTH 615 0
DWIDTH 8 0
BBX 7 8 0 0
BITMAP
C6
62
FE
52
FE
4A
46
62
ENDCHAR
STARTCHAR 20A9
ENCODING 8361
SWIDTH 615 0
DWIDTH 8 0
BBX 7 8 0 0
BITMAP
E6
82
FE
5A
FE
6C
64
24
ENDCHAR
STARTCHAR 20AB
ENCODING 8363
SWIDTH 615 0
DWIDTH 8 0
BBX 5 9 1 -1
BITMAP
08
18
78
88
88
88
98
60
F8
ENDCHAR
STARTCHAR 20AC
ENCODING 8364
SWIDTH 615 0
DWIDTH 8 0
BBX 7 8 0 0
BITMAP
3E
42
80
F0
80
F0
42
3E
ENDCHAR
STARTCHAR 20B1
ENCODING 8369
SWIDTH 615 0
DWIDTH 8 0
BBX 5 8 1 0
BITMAP
F8
88
88
88
70
80
C0
E0
ENDCHAR
STARTCHAR 2103
ENCODING 8451
SWIDTH 615 0
DWIDTH 8 0
BBX 7 8 0 0
BITMAP
6E
B2
50
10
10
10
10
0E
ENDCHAR
STARTCHAR 2113
ENCODING 8467
SWIDTH 615 0
DWIDTH 8 0
BBX 3 8 2 0
BITMAP
60
A0
A0
A0
C0
80
A0
60
ENDCHAR
STARTCHAR 2116
ENCODING 8470
SWIDTH 615 0
DWIDTH 8 0
BBX 8 8 0 0
BITMAP
44
6A
68
5F
5D
5B
C8
C8
ENDCHAR
STARTCHAR 2117
ENCODING 8471
SWIDTH 615 0
DWIDTH 8 0
BBX 8 7 0 0
BITMAP
7C
BA
A6
99
82
92
7C
ENDCHAR
STARTCHAR 2118
ENCODING 8472
SWIDTH 615 0
DWIDTH 8 0
BBX 6 10 1 -3
BITMAP
80
80
BC
C4
C4
84
98
C0
C0
C0
ENDCHAR
STARTCHAR 211E
ENCODING 8478
SWIDTH 615 0
DWIDTH 8 0
BBX 7 8 1 0
BITMAP
F8
88
88
88
70
8A
84
CC
ENDCHAR
STARTCHAR 2120
ENCODING 8480
SWIDTH 615 0
DWIDTH 8 0
BBX 6 2 1 5
BITMAP
8C
44
ENDCHAR
STARTCHAR 2122
ENCODING 8482
SWIDTH 615 0
DWIDTH 8 0
BBX 6 2 1 5
BITMAP
CC
04
ENDCHAR
STARTCHAR 2126
ENCODING 8486
SWIDTH 615 0
DWIDTH 8 0
BBX 6 8 1 0
BITMAP
78
84
84
84
84
88
50
CC
ENDCHAR
STARTCHAR 2127
ENCODING 8487
SWIDTH 615 0
DWIDTH 8 0
BBX 6 8 1 0
BITMAP
CC
50
88
84
84
84
84
78
ENDCHAR
STARTCHAR 212E
ENCODING 8494
SWIDTH 615 0
DWIDTH 8 0
BBX 8 6 0 0
BITMAP
7C
42
C3
FC
40
3C
ENDCHAR
STARTCHAR 2190
ENCODING 8592
SWIDTH 615 0
DWIDTH 8 0
BBX 6 6 1 0
BITMAP
20
40
FC
80
40
20
ENDCHAR
STARTCHAR 2191
ENCODING 8593
SWIDTH 615 0
DWIDTH 8 0
BBX 6 6 1 0
BITMAP
20
78
A4
20
20
20
ENDCHAR
STARTCHAR 2192
ENCODING 8594
SWIDTH 615 0
DWIDTH 8 0
BBX 6 6 1 0
BITMAP
10
08
FC
08
10
20
ENDCHAR
STARTCHAR 2193
ENCODING 8595
SWIDTH 615 0
DWIDTH 8 0
BBX 6 6 1 0
BITMAP
20
20
20
A4
68
30
ENDCHAR
STARTCHAR 2202
ENCODING 8706
SWIDTH 615 0
DWIDTH 8 0
BBX 6 8 1 0
BITMAP
60
18
78
84
84
84
88
78
ENDCHAR
STARTCHAR 2211
ENCODING 8721
SWIDTH 615 0
DWIDTH 8 0
BBX 6 10 1 -2
BITMAP
FC
44
40
20
20
20
40
44
84
78
ENDCHAR
STARTCHAR 2212
ENCODING 8722
SWIDTH 615 0
DWIDTH 8 0
BBX 6 1 1 3
BITMAP
FC
ENDCHAR
STARTCHAR 2213
ENCODING 8723
SWIDTH 615 0
DWIDTH 8 0
BBX 6 8 1 -1
BITMAP
FC
00
20
20
FC
20
20
20
ENDCHAR
STARTCHAR 2215
ENCODING 8725
SWIDTH 0 0
DWIDTH 0 0
BBX 6 4 -3 2
BITMAP
04
18
20
C0
ENDCHAR
STARTCHAR 2217
ENCODING 8727
SWIDTH 615 0
DWIDTH 8 0
BBX 6 6 1 0
BITMAP
20
20
EC
30
50
48
ENDCHAR
STARTCHAR 221A
ENCODING 8730
SWIDTH 615 0
DWIDTH 8 0
BBX 6 9 1 0
BITMAP
0C
10
10
10
20
A0
C0
40
40
ENDCHAR
STARTCHAR 221E
ENCODING 8734
SWIDTH 615 0
DWIDTH 8 0
BBX 7 5 0 0
BITMAP
6E
92
92
9A
64
ENDCHAR
STARTCHAR 2222
ENCODING 8738
SWIDTH 615 0
DWIDTH 8 0
BBX 6 7 1 0
BITMAP
10
0C
78
88
68
18
14
ENDCHAR
STARTCHAR 2248
ENCODING 8776
SWIDTH 615 0
DWIDTH 8 0
BBX 6 5 1 1
BITMAP
40
A8
10
E4
18
ENDCHAR
STARTCHAR 2260
ENCODING 8800
SWIDTH 615 0
DWIDTH 8 0
BBX 6 5 1 1
BITMAP
08
FC
20
FC
40
ENDCHAR
STARTCHAR 2264
ENCODING 8804
SWIDTH 615 0
DWIDTH 8 0
BBX 5 7 1 0
BITMAP
08
30
C0
60
18
00
78
ENDCHAR
STARTCHAR 2265
ENCODING 8805
SWIDTH 615 0
DWIDTH 8 0
BBX 5 7 1 0
BITMAP
C0
30
08
10
60
00
78
ENDCHAR
STARTCHAR 22C6
ENCODING 8902
SWIDTH 615 0
DWIDTH 8 0
BBX 7 5 0 2
BITMAP
10
90
7E
18
24
ENDCHAR
STARTCHAR 2300
ENCODING 8960
SWIDTH 615 0
DWIDTH 8 0
BBX 6 7 1 0
BITMAP
20
DC
94
A4
C4
88
70
ENDCHAR
STARTCHAR 2329
ENCODING 9001
SWIDTH 615 0
DWIDTH 8 0
BBX 4 10 2 -2
BITMAP
10
20
40
40
80
80
40
40
20
10
ENDCHAR
STARTCHAR 232A
ENCODING 9002
SWIDTH 615 0
DWIDTH 8 0
BBX 3 10 2 -2
BITMAP
80
80
40
20
20
20
20
40
80
80
ENDCHAR
STARTCHAR 2422
ENCODING 9250
SWIDTH 615 0
DWIDTH 8 0
BBX 7 8 0 0
BITMAP
C0
60
5C
62
42
42
42
FC
ENDCHAR
STARTCHAR 2423
ENCODING 9251
SWIDTH 615 0
DWIDTH 8 0
BBX 6 4 1 -1
BITMAP
04
84
84
FC
ENDCHAR
STARTCHAR 25CA
ENCODING 9674
SWIDTH 615 0
DWIDTH 8 0
BBX 5 8 1 0
BITMAP
20
50
48
88
88
48
50
20
ENDCHAR
STARTCHAR 25E6
ENCODING 9702
SWIDTH 615 0
DWIDTH 8 0
BBX 4 3 2 2
BITMAP
F0
90
60
ENDCHAR
STARTCHAR 266A
ENCODING 9834
SWIDTH 615 0
DWIDTH 8 0
BBX 6 8 1 0
BITMAP
20
10
28
24
24
20
E0
E0
ENDCHAR
STARTCHAR 26AD
ENCODING 9901
SWIDTH 615 0
DWIDTH 8 0
BBX 10 6 -1 0
BITMAP
7700
8880
8C40
8840
8C80
7300
ENDCHAR
STARTCHAR 26AE
ENCODING 9902
SWIDTH 615 0
DWIDTH 8 0
BBX 10 11 -1 -2
BITMAP
0800
0800
0800
E980
AA40
9A40
9A40
AA40
4980
0800
0800
ENDCHAR
STARTCHAR 27E6
ENCODING 10214
SWIDTH 615 0
DWIDTH 8 0
BBX 2 10 3 -2
BITMAP
C0
C0
C0
C0
C0
C0
C0
C0
C0
C0
ENDCHAR
STARTCHAR 27E7
ENCODING 10215
SWIDTH 615 0
DWIDTH 8 0
BBX 2 10 3 -2
BITMAP
C0
C0
C0
C0
C0
C0
C0
C0
C0
C0
ENDCHAR
STARTCHAR 2A7D
ENCODING 10877
SWIDTH 615 0
DWIDTH 8 0
BBX 5 7 1 0
BITMAP
08
30
C0
60
98
60
18
ENDCHAR
STARTCHAR 2A7E
ENCODING 10878
SWIDTH 615 0
DWIDTH 8 0
BBX 5 7 1 0
BITMAP
C0
30
08
10
68
30
C0
ENDCHAR
STARTCHAR E000
ENCODING 57344
SWIDTH 615 0
DWIDTH 8 0
BBX 6 10 1 0
BITMAP
10
20
48
30
60
50
50
78
88
CC
ENDCHAR
STARTCHAR E001
ENCODING 57345
SWIDTH 615 0
DWIDTH 8 0
BBX 6 11 1 -2
BITMAP
88
70
00
60
50
50
78
88
CC
00
30
ENDCHAR
STARTCHAR E002
ENCODING 57346
SWIDTH 615 0
DWIDTH 8 0
BBX 6 10 1 0
BITMAP
40
20
48
30
60
50
50
78
88
CC
ENDCHAR
STARTCHAR E003
ENCODING 57347
SWIDTH 615 0
DWIDTH 8 0
BBX 6 10 1 0
BITMAP
30
10
48
30
60
50
50
78
88
CC
ENDCHAR
STARTCHAR E004
ENCODING 57348
SWIDTH 615 0
DWIDTH 8 0
BBX 6 10 1 0
BITMAP
68
10
48
30
60
50
50
78
88
CC
ENDCHAR
STARTCHAR E005
ENCODING 57349
SWIDTH 615 0
DWIDTH 8 0
BBX 6 9 1 1
BITMAP
60
20
58
60
50
50
78
88
CC
ENDCHAR
STARTCHAR E006
ENCODING 57350
SWIDTH 615 0
DWIDTH 8 0
BBX 6 11 1 -2
BITMAP
20
58
00
60
50
50
78
88
CC
00
30
ENDCHAR
STARTCHAR E007
ENCODING 57351
SWIDTH 615 0
DWIDTH 8 0
BBX 6 10 1 0
BITMAP
20
10
20
58
60
50
50
78
88
CC
ENDCHAR
STARTCHAR E008
ENCODING 57352
SWIDTH 615 0
DWIDTH 8 0
BBX 6 10 1 1
BITMAP
18
10
20
58
60
50
50
78
88
CC
ENDCHAR
STARTCHAR E009
ENCODING 57353
SWIDTH 615 0
DWIDTH 8 0
BBX 6 9 1 0
BITMAP
70
20
58
60
50
50
78
88
CC
ENDCHAR
STARTCHAR E00A
ENCODING 57354
SWIDTH 615 0
DWIDTH 8 0
BBX 6 9 1 0
BITMAP
A0
50
00
60
50
50
78
88
CC
ENDCHAR
STARTCHAR E00B
ENCODING 57355
SWIDTH 615 0
DWIDTH 8 0
BBX 6 8 1 -2
BITMAP
60
50
50
78
88
CC
00
30
ENDCHAR
STARTCHAR E00C
ENCODING 57356
SWIDTH 615 0
DWIDTH 8 0
BBX 6 9 1 0
BITMAP
30
10
00
60
50
50
78
88
CC
ENDCHAR
STARTCHAR E00E
ENCODING 57358
SWIDTH 615 0
DWIDTH 8 0
BBX 6 12 1 -3
BITMAP
10
20
00
60
50
50
78
88
CC
08
08
04
ENDCHAR
STARTCHAR E00F
ENCODING 57359
SWIDTH 615 0
DWIDTH 8 0
BBX 6 11 1 0
BITMAP
10
20
30
50
30
60
50
50
78
88
CC
ENDCHAR
STARTCHAR E010
ENCODING 57360
SWIDTH 615 0
DWIDTH 8 0
BBX 5 6 1 0
BITMAP
F0
88
E8
88
88
F0
ENDCHAR
STARTCHAR E011
ENCODING 57361
SWIDTH 615 0
DWIDTH 8 0
BBX 5 8 1 -2
BITMAP
F0
88
88
88
88
F0
00
20
ENDCHAR
STARTCHAR E012
ENCODING 57362
SWIDTH 615 0
DWIDTH 8 0
BBX 5 8 1 -2
BITMAP
F0
88
88
88
88
F0
00
70
ENDCHAR
STARTCHAR E013
ENCODING 57363
SWIDTH 615 0
DWIDTH 8 0
BBX 4 6 2 0
BITMAP
F0
40
40
40
40
F0
ENDCHAR
STARTCHAR E014
ENCODING 57364
SWIDTH 615 0
DWIDTH 8 0
BBX 6 6 1 0
BITMAP
3C
08
08
88
88
70
ENDCHAR
STARTCHAR E015
ENCODING 57365
SWIDTH 615 0
DWIDTH 8 0
BBX 5 6 1 0
BITMAP
F8
88
38
08
88
F8
ENDCHAR
STARTCHAR E016
ENCODING 57366
SWIDTH 615 0
DWIDTH 8 0
BBX 5 5 1 0
BITMAP
F8
08
38
88
F8
ENDCHAR
STARTCHAR E017
ENCODING 57367
SWIDTH 615 0
DWIDTH 8 0
BBX 6 9 1 1
BITMAP
60
20
50
F8
80
70
90
84
FC
ENDCHAR
STARTCHAR E018
ENCODING 57368
SWIDTH 615 0
DWIDTH 8 0
BBX 6 11 1 -2
BITMAP
20
50
00
F8
80
70
90
84
FC
00
30
ENDCHAR
STARTCHAR E019
ENCODING 57369
SWIDTH 615 0
DWIDTH 8 0
BBX 6 10 1 0
BITMAP
20
10
20
50
F8
80
70
90
84
FC
ENDCHAR
STARTCHAR E01A
ENCODING 57370
SWIDTH 615 0
DWIDTH 8 0
BBX 6 10 1 1
BITMAP
18
10
20
50
F8
80
70
90
84
FC
ENDCHAR
STARTCHAR E01B
ENCODING 57371
SWIDTH 615 0
DWIDTH 8 0
BBX 6 9 1 0
BITMAP
70
20
50
F8
80
70
90
84
FC
ENDCHAR
STARTCHAR E01C
ENCODING 57372
SWIDTH 615 0
DWIDTH 8 0
BBX 6 9 1 0
BITMAP
A0
50
00
F8
80
70
90
84
FC
ENDCHAR
STARTCHAR E01D
ENCODING 57373
SWIDTH 615 0
DWIDTH 8 0
BBX 6 8 1 -2
BITMAP
F8
80
70
90
84
FC
00
30
ENDCHAR
STARTCHAR E01E
ENCODING 57374
SWIDTH 615 0
DWIDTH 8 0
BBX 6 9 1 0
BITMAP
70
10
00
F8
80
70
90
84
FC
ENDCHAR
STARTCHAR E01F
ENCODING 57375
SWIDTH 615 0
DWIDTH 8 0
BBX 6 12 1 -3
BITMAP
10
20
00
F8
80
70
90
84
FC
10
10
08
ENDCHAR
STARTCHAR E020
ENCODING 57376
SWIDTH 615 0
DWIDTH 8 0
BBX 6 8 1 0
BITMAP
68
10
F8
80
70
90
84
FC
ENDCHAR
STARTCHAR E021
ENCODING 57377
SWIDTH 615 0
DWIDTH 8 0
BBX 6 8 1 1
BITMAP
30
00
7C
80
80
9C
84
7C
ENDCHAR
STARTCHAR E022
ENCODING 57378
SWIDTH 615 0
DWIDTH 8 0
BBX 6 9 1 0
BITMAP
48
30
00
7C
80
80
9C
84
7C
ENDCHAR
STARTCHAR E023
ENCODING 57379
SWIDTH 1230 0
DWIDTH 16 0
BBX 12 6 2 0
BITMAP
70F0
8110
4080
3870
0810
F1E0
ENDCHAR
STARTCHAR E024
ENCODING 57380
SWIDTH 615 0
DWIDTH 8 0
BBX 6 9 1 -3
BITMAP
C8
88
78
88
88
CC
00
48
30
ENDCHAR
STARTCHAR E025
ENCODING 57381
SWIDTH 615 0
DWIDTH 8 0
BBX 6 8 1 0
BITMAP
58
00
C8
88
78
88
88
CC
ENDCHAR
STARTCHAR E026
ENCODING 57382
SWIDTH 615 0
DWIDTH 8 0
BBX 6 8 1 0
BITMAP
68
10
C8
88
78
88
88
CC
ENDCHAR
STARTCHAR E027
ENCODING 57383
SWIDTH 615 0
DWIDTH 8 0
BBX 5 9 1 0
BITMAP
A0
50
00
78
20
20
20
20
78
ENDCHAR
STARTCHAR E028
ENCODING 57384
SWIDTH 615 0
DWIDTH 8 0
BBX 4 8 2 -2
BITMAP
F0
40
40
40
40
F0
00
60
ENDCHAR
STARTCHAR E029
ENCODING 57385
SWIDTH 615 0
DWIDTH 8 0
BBX 4 9 2 0
BITMAP
60
20
00
F0
40
40
40
40
F0
ENDCHAR
STARTCHAR E02A
ENCODING 57386
SWIDTH 615 0
DWIDTH 8 0
BBX 4 12 2 -3
BITMAP
20
40
00
F0
40
40
40
40
F0
40
40
20
ENDCHAR
STARTCHAR E02B
ENCODING 57387
SWIDTH 615 0
DWIDTH 8 0
BBX 6 9 1 0
BITMAP
04
08
00
3C
08
08
88
88
70
ENDCHAR
STARTCHAR E02C
ENCODING 57388
SWIDTH 615 0
DWIDTH 8 0
BBX 6 6 1 0
BITMAP
E0
40
30
C4
44
FC
ENDCHAR
STARTCHAR E02D
ENCODING 57389
SWIDTH 615 0
DWIDTH 8 0
BBX 6 8 1 0
BITMAP
68
10
E0
40
40
40
44
FC
ENDCHAR
STARTCHAR E02E
ENCODING 57390
SWIDTH 615 0
DWIDTH 8 0
BBX 6 10 1 0
BITMAP
10
60
20
58
78
88
84
84
88
78
ENDCHAR
STARTCHAR E02F
ENCODING 57391
SWIDTH 615 0
DWIDTH 8 0
BBX 6 11 1 -2
BITMAP
20
58
00
78
88
84
84
88
78
00
30
ENDCHAR
STARTCHAR E030
ENCODING 57392
SWIDTH 615 0
DWIDTH 8 0
BBX 6 10 1 0
BITMAP
20
10
20
58
78
88
84
84
88
78
ENDCHAR
STARTCHAR E031
ENCODING 57393
SWIDTH 615 0
DWIDTH 8 0
BBX 6 10 1 1
BITMAP
18
10
20
58
78
88
84
84
88
78
ENDCHAR
STARTCHAR E032
ENCODING 57394
SWIDTH 615 0
DWIDTH 8 0
BBX 6 9 1 0
BITMAP
78
20
58
78
88
84
84
88
78
ENDCHAR
STARTCHAR E033
ENCODING 57395
SWIDTH 615 0
DWIDTH 8 0
BBX 6 9 1 0
BITMAP
A0
50
00
78
88
84
84
88
78
ENDCHAR
STARTCHAR E034
ENCODING 57396
SWIDTH 615 0
DWIDTH 8 0
BBX 6 8 1 -2
BITMAP
78
88
84
84
88
78
00
30
ENDCHAR
STARTCHAR E035
ENCODING 57397
SWIDTH 615 0
DWIDTH 8 0
BBX 7 6 0 0
BITMAP
3E
D2
8C
94
90
7E
ENDCHAR
STARTCHAR E036
ENCODING 57398
SWIDTH 615 0
DWIDTH 8 0
BBX 6 9 1 0
BITMAP
30
10
00
78
88
84
84
88
78
ENDCHAR
STARTCHAR E037
ENCODING 57399
SWIDTH 615 0
DWIDTH 8 0
BBX 6 6 1 0
BITMAP
7C
88
84
84
88
78
ENDCHAR
STARTCHAR E038
ENCODING 57400
SWIDTH 615 0
DWIDTH 8 0
BBX 6 9 1 0
BITMAP
10
20
00
7C
88
84
84
88
78
ENDCHAR
STARTCHAR E039
ENCODING 57401
SWIDTH 615 0
DWIDTH 8 0
BBX 6 8 1 -2
BITMAP
7C
88
84
84
88
78
00
30
ENDCHAR
STARTCHAR E03A
ENCODING 57402
SWIDTH 615 0
DWIDTH 8 0
BBX 6 9 1 0
BITMAP
40
20
00
7C
88
84
84
88
78
ENDCHAR
STARTCHAR E03B
ENCODING 57403
SWIDTH 615 0
DWIDTH 8 0
BBX 6 9 1 0
BITMAP
30
10
00
7C
88
84
84
88
78
ENDCHAR
STARTCHAR E03C
ENCODING 57404
SWIDTH 615 0
DWIDTH 8 0
BBX 6 8 1 0
BITMAP
68
10
7C
88
84
84
88
78
ENDCHAR
STARTCHAR E03D
ENCODING 57405
SWIDTH 615 0
DWIDTH 8 0
BBX 6 9 1 -3
BITMAP
78
88
84
84
88
78
20
40
30
ENDCHAR
STARTCHAR E03E
ENCODING 57406
SWIDTH 615 0
DWIDTH 8 0
BBX 6 12 1 -3
BITMAP
10
20
00
78
88
84
84
88
78
20
40
30
ENDCHAR
STARTCHAR E03F
ENCODING 57407
SWIDTH 615 0
DWIDTH 8 0
BBX 6 9 1 0
BITMAP
A0
50
00
F8
88
88
70
88
C4
ENDCHAR
STARTCHAR E040
ENCODING 57408
SWIDTH 615 0
DWIDTH 8 0
BBX 6 8 1 0
BITMAP
20
00
F8
88
88
70
88
C4
ENDCHAR
STARTCHAR E041
ENCODING 57409
SWIDTH 615 0
DWIDTH 8 0
BBX 5 9 1 0
BITMAP
48
30
00
78
80
60
18
88
F8
ENDCHAR
STARTCHAR E042
ENCODING 57410
SWIDTH 615 0
DWIDTH 8 0
BBX 5 8 1 -2
BITMAP
78
80
60
18
88
F8
00
30
ENDCHAR
STARTCHAR E043
ENCODING 57411
SWIDTH 615 0
DWIDTH 8 0
BBX 6 8 1 -2
BITMAP
FC
A4
20
20
20
78
20
30
ENDCHAR
STARTCHAR E044
ENCODING 57412
SWIDTH 615 0
DWIDTH 8 0
BBX 6 8 1 0
BITMAP
58
00
FC
A4
20
20
20
78
ENDCHAR
STARTCHAR E045
ENCODING 57413
SWIDTH 615 0
DWIDTH 8 0
BBX 6 8 1 -2
BITMAP
FC
A4
20
20
20
78
00
30
ENDCHAR
STARTCHAR E046
ENCODING 57414
SWIDTH 615 0
DWIDTH 8 0
BBX 6 8 1 -2
BITMAP
FC
A4
20
20
20
78
00
78
ENDCHAR
STARTCHAR E047
ENCODING 57415
SWIDTH 615 0
DWIDTH 8 0
BBX 6 8 1 0
BITMAP
68
10
FC
A4
20
20
20
78
ENDCHAR
STARTCHAR E049
ENCODING 57417
SWIDTH 615 0
DWIDTH 8 0
BBX 6 9 1 -3
BITMAP
CC
88
88
88
88
70
00
70
48
ENDCHAR
STARTCHAR E04A
ENCODING 57418
SWIDTH 615 0
DWIDTH 8 0
BBX 6 9 1 0
BITMAP
A0
50
00
CC
88
88
88
88
70
ENDCHAR
STARTCHAR E04B
ENCODING 57419
SWIDTH 615 0
DWIDTH 8 0
BBX 6 8 1 -2
BITMAP
CC
88
88
88
88
70
00
30
ENDCHAR
STARTCHAR E04C
ENCODING 57420
SWIDTH 615 0
DWIDTH 8 0
BBX 6 9 1 0
BITMAP
30
10
00
CC
88
88
88
88
70
ENDCHAR
STARTCHAR E04D
ENCODING 57421
SWIDTH 615 0
DWIDTH 8 0
BBX 6 6 1 0
BITMAP
CC
88
88
88
88
70
ENDCHAR
STARTCHAR E04E
ENCODING 57422
SWIDTH 615 0
DWIDTH 8 0
BBX 6 9 1 0
BITMAP
10
20
00
CC
88
88
88
88
70
ENDCHAR
STARTCHAR E04F
ENCODING 57423
SWIDTH 615 0
DWIDTH 8 0
BBX 6 8 1 -2
BITMAP
CC
88
88
88
88
70
00
30
ENDCHAR
STARTCHAR E050
ENCODING 57424
SWIDTH 615 0
DWIDTH 8 0
BBX 6 9 1 0
BITMAP
40
20
00
CC
88
88
88
88
70
ENDCHAR
STARTCHAR E051
ENCODING 57425
SWIDTH 615 0
DWIDTH 8 0
BBX 6 9 1 0
BITMAP
30
10
00
CC
88
88
88
88
70
ENDCHAR
STARTCHAR E052
ENCODING 57426
SWIDTH 615 0
DWIDTH 8 0
BBX 6 8 1 0
BITMAP
68
10
CC
88
88
88
88
70
ENDCHAR
STARTCHAR E053
ENCODING 57427
SWIDTH 615 0
DWIDTH 8 0
BBX 6 8 1 -2
BITMAP
CC
48
30
20
20
78
00
30
ENDCHAR
STARTCHAR E054
ENCODING 57428
SWIDTH 615 0
DWIDTH 8 0
BBX 6 9 1 0
BITMAP
30
10
00
CC
48
30
20
20
78
ENDCHAR
STARTCHAR E055
ENCODING 57429
SWIDTH 615 0
DWIDTH 8 0
BBX 6 8 1 0
BITMAP
68
10
CC
48
30
20
20
78
ENDCHAR
STARTCHAR E056
ENCODING 57430
SWIDTH 615 0
DWIDTH 8 0
BBX 4 9 2 0
BITMAP
90
60
00
F0
A0
40
40
90
F0
ENDCHAR
STARTCHAR E057
ENCODING 57431
SWIDTH 615 0
DWIDTH 8 0
BBX 4 8 2 -2
BITMAP
F0
A0
40
40
90
F0
00
40
ENDCHAR
STARTCHAR E058
ENCODING 57432
SWIDTH 615 0
DWIDTH 8 0
BBX 4 8 2 0
BITMAP
40
00
F0
40
40
40
40
F0
ENDCHAR
STARTCHAR EA00
ENCODING 59904
SWIDTH 615 0
DWIDTH 8 0
BBX 2 2 3 6
BITMAP
40
80
ENDCHAR
STARTCHAR EA01
ENCODING 59905
SWIDTH 0 0
DWIDTH 0 0
BBX 2 1 -5 9
BITMAP
C0
ENDCHAR
STARTCHAR EA02
ENCODING 59906
SWIDTH 615 0
DWIDTH 8 0
BBX 4 2 2 6
BITMAP
90
E0
ENDCHAR
STARTCHAR EA03
ENCODING 59907
SWIDTH 615 0
DWIDTH 8 0
BBX 4 4 2 6
BITMAP
20
40
90
E0
ENDCHAR
STARTCHAR EA04
ENCODING 59908
SWIDTH 615 0
DWIDTH 8 0
BBX 4 4 2 6
BITMAP
20
40
90
E0
ENDCHAR
STARTCHAR EA05
ENCODING 59909
SWIDTH 615 0
DWIDTH 8 0
BBX 4 2 2 -3
BITMAP
90
60
ENDCHAR
STARTCHAR EA06
ENCODING 59910
SWIDTH 615 0
DWIDTH 8 0
BBX 4 2 2 -3
BITMAP
E0
90
ENDCHAR
STARTCHAR EA07
ENCODING 59911
SWIDTH 0 0
DWIDTH 0 0
BBX 4 2 -6 8
BITMAP
90
70
ENDCHAR
STARTCHAR EA08
ENCODING 59912
SWIDTH 615 0
DWIDTH 8 0
BBX 4 3 2 7
BITMAP
40
90
E0
ENDCHAR
STARTCHAR EA09
ENCODING 59913
SWIDTH 615 0
DWIDTH 8 0
BBX 4 3 2 7
BITMAP
40
90
E0
ENDCHAR
STARTCHAR EA0A
ENCODING 59914
SWIDTH 615 0
DWIDTH 8 0
BBX 4 4 2 6
BITMAP
60
20
90
E0
ENDCHAR
STARTCHAR EA0B
ENCODING 59915
SWIDTH 615 0
DWIDTH 8 0
BBX 4 4 2 6
BITMAP
60
20
90
E0
ENDCHAR
STARTCHAR EA0C
ENCODING 59916
SWIDTH 615 0
DWIDTH 8 0
BBX 4 2 2 6
BITMAP
40
B0
ENDCHAR
STARTCHAR EA0D
ENCODING 59917
SWIDTH 615 0
DWIDTH 8 0
BBX 4 2 2 6
BITMAP
E0
90
ENDCHAR
STARTCHAR EA0E
ENCODING 59918
SWIDTH 0 0
DWIDTH 0 0
BBX 4 2 -6 8
BITMAP
20
D0
ENDCHAR
STARTCHAR EA0F
ENCODING 59919
SWIDTH 615 0
DWIDTH 8 0
BBX 4 4 2 6
BITMAP
10
E0
90
E0
ENDCHAR
STARTCHAR EA10
ENCODING 59920
SWIDTH 615 0
DWIDTH 8 0
BBX 4 4 2 6
BITMAP
10
E0
90
E0
ENDCHAR
STARTCHAR EA11
ENCODING 59921
SWIDTH 615 0
DWIDTH 8 0
BBX 4 2 2 6
BITMAP
90
60
ENDCHAR
STARTCHAR EA14
ENCODING 59924
SWIDTH 0 0
DWIDTH 0 0
BBX 4 2 -6 8
BITMAP
90
60
ENDCHAR
STARTCHAR EA15
ENCODING 59925
SWIDTH 615 0
DWIDTH 8 0
BBX 4 2 2 6
BITMAP
40
B0
ENDCHAR
STARTCHAR EA16
ENCODING 59926
SWIDTH 615 0
DWIDTH 8 0
BBX 4 4 2 6
BITMAP
20
C0
40
B0
ENDCHAR
STARTCHAR EA17
ENCODING 59927
SWIDTH 615 0
DWIDTH 8 0
BBX 4 4 2 6
BITMAP
20
C0
40
B0
ENDCHAR
STARTCHAR EA18
ENCODING 59928
SWIDTH 0 0
DWIDTH 0 0
BBX 4 2 -6 8
BITMAP
20
D0
ENDCHAR
STARTCHAR EA19
ENCODING 59929
SWIDTH 615 0
DWIDTH 8 0
BBX 4 4 2 6
BITMAP
40
20
40
B0
ENDCHAR
STARTCHAR EA1A
ENCODING 59930
SWIDTH 615 0
DWIDTH 8 0
BBX 4 4 2 6
BITMAP
40
20
40
B0
ENDCHAR
STARTCHAR EA1B
ENCODING 59931
SWIDTH 615 0
DWIDTH 8 0
BBX 4 4 2 7
BITMAP
30
20
40
B0
ENDCHAR
STARTCHAR EA1C
ENCODING 59932
SWIDTH 615 0
DWIDTH 8 0
BBX 4 4 2 7
BITMAP
30
20
40
B0
ENDCHAR
STARTCHAR EA1D
ENCODING 59933
SWIDTH 615 0
DWIDTH 8 0
BBX 4 3 2 6
BITMAP
F0
40
B0
ENDCHAR
STARTCHAR EA1E
ENCODING 59934
SWIDTH 615 0
DWIDTH 8 0
BBX 4 3 2 6
BITMAP
F0
40
B0
ENDCHAR
STARTCHAR EA1F
ENCODING 59935
SWIDTH 615 0
DWIDTH 8 0
BBX 2 2 3 -3
BITMAP
40
80
ENDCHAR
STARTCHAR EA21
ENCODING 59937
SWIDTH 615 0
DWIDTH 8 0
BBX 4 2 2 6
BITMAP
90
E0
ENDCHAR
STARTCHAR EA22
ENCODING 59938
SWIDTH 615 0
DWIDTH 8 0
BBX 4 2 2 6
BITMAP
90
60
ENDCHAR
STARTCHAR EA23
ENCODING 59939
SWIDTH 615 0
DWIDTH 8 0
BBX 4 2 2 6
BITMAP
40
B0
ENDCHAR
STARTCHAR EA24
ENCODING 59940
SWIDTH 615 0
DWIDTH 8 0
BBX 4 2 2 6
BITMAP
E0
90
ENDCHAR
STARTCHAR EA25
ENCODING 59941
SWIDTH 615 0
DWIDTH 8 0
BBX 4 2 1 6
BITMAP
A0
50
ENDCHAR
STARTCHAR EA26
ENCODING 59942
SWIDTH 615 0
DWIDTH 8 0
BBX 4 2 1 6
BITMAP
A0
50
ENDCHAR
STARTCHAR EA27
ENCODING 59943
SWIDTH 0 0
DWIDTH 0 0
BBX 4 2 -7 8
BITMAP
A0
50
ENDCHAR
STARTCHAR EA28
ENCODING 59944
SWIDTH 615 0
DWIDTH 8 0
BBX 4 1 2 7
BITMAP
B0
ENDCHAR
STARTCHAR EA2B
ENCODING 59947
SWIDTH 0 0
DWIDTH 0 0
BBX 4 1 -6 8
BITMAP
D0
ENDCHAR
STARTCHAR EA2E
ENCODING 59950
SWIDTH 615 0
DWIDTH 8 0
BBX 2 1 3 7
BITMAP
C0
ENDCHAR
STARTCHAR EA2F
ENCODING 59951
SWIDTH 0 0
DWIDTH 0 0
BBX 2 1 -5 8
BITMAP
C0
ENDCHAR
STARTCHAR EA30
ENCODING 59952
SWIDTH 615 0
DWIDTH 8 0
BBX 2 2 2 6
BITMAP
80
40
ENDCHAR
STARTCHAR EA31
ENCODING 59953
SWIDTH 0 0
DWIDTH 0 0
BBX 2 2 -5 8
BITMAP
80
40
ENDCHAR
STARTCHAR EA32
ENCODING 59954
SWIDTH 615 0
DWIDTH 8 0
BBX 2 2 3 6
BITMAP
C0
40
ENDCHAR
STARTCHAR EA33
ENCODING 59955
SWIDTH 615 0
DWIDTH 8 0
BBX 2 1 3 7
BITMAP
C0
ENDCHAR
STARTCHAR EA34
ENCODING 59956
SWIDTH 0 0
DWIDTH 0 0
BBX 2 2 -2 8
BITMAP
C0
40
ENDCHAR
STARTCHAR EA35
ENCODING 59957
SWIDTH 615 0
DWIDTH 8 0
BBX 0 0 6 5
BITMAP
ENDCHAR
STARTCHAR EA36
ENCODING 59958
SWIDTH 615 0
DWIDTH 8 0
BBX 3 1 3 7
BITMAP
E0
ENDCHAR
STARTCHAR EA37
ENCODING 59959
SWIDTH 0 0
DWIDTH 0 0
BBX 4 2 -5 8
BITMAP
50
A0
ENDCHAR
STARTCHAR EA38
ENCODING 59960
SWIDTH 615 0
DWIDTH 8 0
BBX 4 1 2 -2
BITMAP
F0
ENDCHAR
STARTCHAR EA39
ENCODING 59961
SWIDTH 615 0
DWIDTH 8 0
BBX 4 1 2 6
BITMAP
F0
ENDCHAR
STARTCHAR EA3A
ENCODING 59962
SWIDTH 615 0
DWIDTH 8 0
BBX 1 1 3 6
BITMAP
80
ENDCHAR
STARTCHAR EA3B
ENCODING 59963
SWIDTH 615 0
DWIDTH 8 0
BBX 1 1 3 7
BITMAP
80
ENDCHAR
STARTCHAR EA3C
ENCODING 59964
SWIDTH 615 0
DWIDTH 8 0
BBX 4 1 2 -2
BITMAP
F0
ENDCHAR
STARTCHAR EA3D
ENCODING 59965
SWIDTH 0 0
DWIDTH 0 0
BBX 4 1 -6 8
BITMAP
F0
ENDCHAR
STARTCHAR EA3E
ENCODING 59966
SWIDTH 615 0
DWIDTH 8 0
BBX 2 2 3 6
BITMAP
C0
C0
ENDCHAR
STARTCHAR EA3F
ENCODING 59967
SWIDTH 615 0
DWIDTH 8 0
BBX 2 4 3 6
BITMAP
80
C0
C0
C0
ENDCHAR
STARTCHAR EA40
ENCODING 59968
SWIDTH 615 0
DWIDTH 8 0
BBX 2 4 3 6
BITMAP
80
C0
C0
C0
ENDCHAR
STARTCHAR EA41
ENCODING 59969
SWIDTH 0 0
DWIDTH 0 0
BBX 2 2 -5 8
BITMAP
C0
C0
ENDCHAR
STARTCHAR EA42
ENCODING 59970
SWIDTH 615 0
DWIDTH 8 0
BBX 4 2 2 6
BITMAP
D0
20
ENDCHAR
STARTCHAR EA43
ENCODING 59971
SWIDTH 615 0
DWIDTH 8 0
BBX 4 2 2 -3
BITMAP
D0
20
ENDCHAR
STARTCHAR EA44
ENCODING 59972
SWIDTH 0 0
DWIDTH 0 0
BBX 4 2 -6 8
BITMAP
40
B0
ENDCHAR
STARTCHAR EB02
ENCODING 60162
SWIDTH 615 0
DWIDTH 8 0
BBX 2 2 3 6
BITMAP
40
80
ENDCHAR
STARTCHAR EB03
ENCODING 60163
SWIDTH 615 0
DWIDTH 8 0
BBX 8 13 0 -3
BITMAP
08
00
70
28
28
28
44
3C
42
E7
04
04
02
ENDCHAR
STARTCHAR EB04
ENCODING 60164
SWIDTH 615 0
DWIDTH 8 0
BBX 6 12 1 -3
BITMAP
10
20
00
70
08
28
D8
88
FC
08
10
0C
ENDCHAR
STARTCHAR EB05
ENCODING 60165
SWIDTH 615 0
DWIDTH 8 0
BBX 5 9 1 -3
BITMAP
70
88
88
B8
A8
98
80
40
30
ENDCHAR
STARTCHAR EB08
ENCODING 60168
SWIDTH 615 0
DWIDTH 8 0
BBX 8 7 0 0
BITMAP
7C
82
82
81
82
82
7C
ENDCHAR
STARTCHAR EB09
ENCODING 60169
SWIDTH 615 0
DWIDTH 8 0
BBX 7 5 0 2
BITMAP
10
90
7E
18
24
ENDCHAR
STARTCHAR EB0A
ENCODING 60170
SWIDTH 615 0
DWIDTH 8 0
BBX 4 2 2 6
BITMAP
90
60
ENDCHAR
STARTCHAR EB0D
ENCODING 60173
SWIDTH 615 0
DWIDTH 8 0
BBX 4 2 2 6
BITMAP
90
60
ENDCHAR
STARTCHAR EB0F
ENCODING 60175
SWIDTH 615 0
DWIDTH 8 0
BBX 8 7 0 0
BITMAP
7C
9A
86
85
86
9A
7C
ENDCHAR
STARTCHAR EB10
ENCODING 60176
SWIDTH 0 0
DWIDTH 0 0
BBX 0 0 0 0
BITMAP
ENDCHAR
STARTCHAR EB11
ENCODING 60177
SWIDTH 0 0
DWIDTH 0 0
BBX 0 0 0 0
BITMAP
ENDCHAR
STARTCHAR EB12
ENCODING 60178
SWIDTH 0 0
DWIDTH 0 0
BBX 0 0 0 0
BITMAP
ENDCHAR
STARTCHAR EB15
ENCODING 60181
SWIDTH 615 0
DWIDTH 8 0
BBX 4 2 1 6
BITMAP
A0
50
ENDCHAR
STARTCHAR EB16
ENCODING 60182
SWIDTH 615 0
DWIDTH 8 0
BBX 6 8 1 0
BITMAP
20
20
FC
20
20
20
20
20
ENDCHAR
STARTCHAR EB17
ENCODING 60183
SWIDTH 615 0
DWIDTH 8 0
BBX 4 1 2 7
BITMAP
B0
ENDCHAR
STARTCHAR EB19
ENCODING 60185
SWIDTH 615 0
DWIDTH 8 0
BBX 2 1 3 -2
BITMAP
C0
ENDCHAR
STARTCHAR EB1E
ENCODING 60190
SWIDTH 615 0
DWIDTH 8 0
BBX 6 13 1 -3
BITMAP
10
00
F8
88
80
70
90
84
84
FC
10
10
08
ENDCHAR
STARTCHAR EB1F
ENCODING 60191
SWIDTH 615 0
DWIDTH 8 0
BBX 6 12 1 -3
BITMAP
10
20
00
70
88
FC
80
80
78
20
20
10
ENDCHAR
STARTCHAR EB28
ENCODING 60200
SWIDTH 1230 0
DWIDTH 16 0
BBX 13 8 1 0
BITMAP
7878
8488
8080
6040
1C38
0408
8488
F870
ENDCHAR
STARTCHAR EB29
ENCODING 60201
SWIDTH 615 0
DWIDTH 8 0
BBX 5 8 1 -2
BITMAP
30
00
00
20
E0
A0
68
30
ENDCHAR
STARTCHAR EB2A
ENCODING 60202
SWIDTH 615 0
DWIDTH 8 0
BBX 2 2 2 6
BITMAP
80
40
ENDCHAR
STARTCHAR EB2B
ENCODING 60203
SWIDTH 615 0
DWIDTH 8 0
BBX 6 10 1 -1
BITMAP
20
7C
84
80
80
9C
84
84
78
20
ENDCHAR
STARTCHAR EB2E
ENCODING 60206
SWIDTH 615 0
DWIDTH 8 0
BBX 3 1 3 7
BITMAP
E0
ENDCHAR
STARTCHAR EB2F
ENCODING 60207
SWIDTH 615 0
DWIDTH 8 0
BBX 3 1 2 3
BITMAP
E0
ENDCHAR
STARTCHAR EB30
ENCODING 60208
SWIDTH 615 0
DWIDTH 8 0
BBX 6 1 1 4
BITMAP
FC
ENDCHAR
STARTCHAR EB31
ENCODING 60209
SWIDTH 615 0
DWIDTH 8 0
BBX 6 3 1 2
BITMAP
FC
00
FC
ENDCHAR
STARTCHAR EB32
ENCODING 60210
SWIDTH 615 0
DWIDTH 8 0
BBX 3 3 2 2
BITMAP
E0
00
E0
ENDCHAR
STARTCHAR EB35
ENCODING 60213
SWIDTH 615 0
DWIDTH 8 0
BBX 4 13 2 -3
BITMAP
20
00
F0
40
40
40
40
40
40
F0
20
20
10
ENDCHAR
STARTCHAR EB36
ENCODING 60214
SWIDTH 615 0
DWIDTH 8 0
BBX 5 12 1 -3
BITMAP
10
20
00
60
20
20
20
20
F8
20
20
10
ENDCHAR
STARTCHAR EB3A
ENCODING 60218
SWIDTH 615 0
DWIDTH 8 0
BBX 6 10 1 0
BITMAP
04
00
3C
08
08
08
88
88
88
70
ENDCHAR
STARTCHAR EB3B
ENCODING 60219
SWIDTH 615 0
DWIDTH 8 0
BBX 4 11 2 -2
BITMAP
30
00
F0
10
10
10
10
10
10
10
E0
ENDCHAR
STARTCHAR EB40
ENCODING 60224
SWIDTH 615 0
DWIDTH 8 0
BBX 7 7 0 0
BITMAP
0C
32
D6
CE
F2
BE
78
ENDCHAR
STARTCHAR EB43
ENCODING 60227
SWIDTH 615 0
DWIDTH 8 0
BBX 4 1 2 7
BITMAP
F0
ENDCHAR
STARTCHAR EB48
ENCODING 60232
SWIDTH 615 0
DWIDTH 8 0
BBX 6 13 1 -3
BITMAP
10
20
70
88
84
84
84
84
88
70
20
20
10
ENDCHAR
STARTCHAR EB49
ENCODING 60233
SWIDTH 615 0
DWIDTH 8 0
BBX 6 12 1 -3
BITMAP
10
20
00
78
88
84
84
88
78
20
20
10
ENDCHAR
STARTCHAR EB4C
ENCODING 60236
SWIDTH 615 0
DWIDTH 8 0
BBX 4 9 2 -1
BITMAP
F0
A0
A0
A0
60
20
20
20
70
ENDCHAR
STARTCHAR EB4D
ENCODING 60237
SWIDTH 615 0
DWIDTH 8 0
BBX 3 3 3 0
BITMAP
60
A0
60
ENDCHAR
STARTCHAR EB52
ENCODING 60242
SWIDTH 615 0
DWIDTH 8 0
BBX 3 4 2 -2
BITMAP
A0
A0
A0
A0
ENDCHAR
STARTCHAR EB56
ENCODING 60246
SWIDTH 615 0
DWIDTH 8 0
BBX 1 4 3 -2
BITMAP
80
80
80
80
ENDCHAR
STARTCHAR EB57
ENCODING 60247
SWIDTH 615 0
DWIDTH 8 0
BBX 1 4 3 4
BITMAP
80
80
80
80
ENDCHAR
STARTCHAR EB5A
ENCODING 60250
SWIDTH 615 0
DWIDTH 8 0
BBX 3 3 2 5
BITMAP
E0
E0
E0
ENDCHAR
STARTCHAR EB5B
ENCODING 60251
SWIDTH 615 0
DWIDTH 8 0
BBX 6 9 1 -3
BITMAP
78
88
84
84
88
F8
80
70
0C
ENDCHAR
STARTCHAR EB61
ENCODING 60257
SWIDTH 615 0
DWIDTH 8 0
BBX 3 2 2 3
BITMAP
20
C0
ENDCHAR
STARTCHAR EB63
ENCODING 60259
SWIDTH 615 0
DWIDTH 8 0
BBX 8 2 4 6
BITMAP
7E
81
ENDCHAR
STARTCHAR EB64
ENCODING 60260
SWIDTH 615 0
DWIDTH 8 0
BBX 8 2 0 6
BITMAP
7E
81
ENDCHAR
STARTCHAR EB65
ENCODING 60261
SWIDTH 615 0
DWIDTH 8 0
BBX 8 2 4 6
BITMAP
7E
81
ENDCHAR
STARTCHAR EB66
ENCODING 60262
SWIDTH 615 0
DWIDTH 8 0
BBX 8 2 0 6
BITMAP
7E
81
ENDCHAR
STARTCHAR EB67
ENCODING 60263
SWIDTH 615 0
DWIDTH 8 0
BBX 6 2 1 -1
BITMAP
64
98
ENDCHAR
STARTCHAR EB6B
ENCODING 60267
SWIDTH 615 0
DWIDTH 8 0
BBX 8 1 0 3
BITMAP
FF
ENDCHAR
STARTCHAR EB6E
ENCODING 60270
SWIDTH 615 0
DWIDTH 8 0
BBX 6 11 1 -3
BITMAP
CC
88
88
88
88
88
88
70
00
70
48
ENDCHAR
STARTCHAR EB6F
ENCODING 60271
SWIDTH 615 0
DWIDTH 8 0
BBX 6 9 1 -3
BITMAP
98
88
88
88
88
74
00
70
48
ENDCHAR
STARTCHAR EC00
ENCODING 60416
SWIDTH 615 0
DWIDTH 8 0
BBX 3 3 2 5
BITMAP
E0
A0
E0
ENDCHAR
STARTCHAR EC06
ENCODING 60422
SWIDTH 615 0
DWIDTH 8 0
BBX 5 8 1 0
BITMAP
20
00
60
20
20
20
20
F8
ENDCHAR
STARTCHAR EC07
ENCODING 60423
SWIDTH 615 0
DWIDTH 8 0
BBX 4 8 2 2
BITMAP
F0
40
40
40
40
40
40
F0
ENDCHAR
STARTCHAR EC08
ENCODING 60424
SWIDTH 615 0
DWIDTH 8 0
BBX 6 10 1 1
BITMAP
68
10
CC
88
88
78
88
88
88
CC
ENDCHAR
STARTCHAR EC09
ENCODING 60425
SWIDTH 615 0
DWIDTH 8 0
BBX 6 10 1 1
BITMAP
68
10
80
80
B8
C8
88
88
88
CC
ENDCHAR
STARTCHAR EC0A
ENCODING 60426
SWIDTH 615 0
DWIDTH 8 0
BBX 6 10 1 1
BITMAP
68
10
E0
40
40
40
40
44
44
FC
ENDCHAR
STARTCHAR EC0B
ENCODING 60427
SWIDTH 615 0
DWIDTH 8 0
BBX 5 10 1 1
BITMAP
68
10
60
20
20
20
20
20
20
F8
ENDCHAR
STARTCHAR EC0C
ENCODING 60428
SWIDTH 615 0
DWIDTH 8 0
BBX 6 10 1 1
BITMAP
68
10
FC
24
20
20
20
20
20
78
ENDCHAR
STARTCHAR EC0D
ENCODING 60429
SWIDTH 615 0
DWIDTH 8 0
BBX 6 11 0 0
BITMAP
40
B0
00
40
40
78
40
40
40
40
3C
ENDCHAR
STARTCHAR EC0E
ENCODING 60430
SWIDTH 615 0
DWIDTH 8 0
BBX 6 10 1 0
BITMAP
58
00
FC
24
20
20
20
20
20
78
ENDCHAR
STARTCHAR F638
ENCODING 63032
SWIDTH 615 0
DWIDTH 8 0
BBX 5 8 1 0
BITMAP
B0
48
C8
A8
A8
98
88
78
ENDCHAR
STARTCHAR F639
ENCODING 63033
SWIDTH 615 0
DWIDTH 8 0
BBX 5 8 1 0
BITMAP
30
C8
88
88
88
88
88
70
ENDCHAR
STARTCHAR F63A
ENCODING 63034
SWIDTH 615 0
DWIDTH 8 0
BBX 5 8 1 0
BITMAP
70
88
08
08
10
20
40
F8
ENDCHAR
STARTCHAR F63B
ENCODING 63035
SWIDTH 615 0
DWIDTH 8 0
BBX 4 8 2 0
BITMAP
E0
10
10
60
10
10
10
E0
ENDCHAR
STARTCHAR F63C
ENCODING 63036
SWIDTH 615 0
DWIDTH 8 0
BBX 5 8 1 0
BITMAP
10
30
50
50
90
F8
10
18
ENDCHAR
STARTCHAR F63D
ENCODING 63037
SWIDTH 615 0
DWIDTH 8 0
BBX 5 8 1 0
BITMAP
78
80
90
68
08
08
88
70
ENDCHAR
STARTCHAR F63E
ENCODING 63038
SWIDTH 615 0
DWIDTH 8 0
BBX 5 8 2 0
BITMAP
38
C0
80
F0
90
88
90
70
ENDCHAR
STARTCHAR F63F
ENCODING 63039
SWIDTH 615 0
DWIDTH 8 0
BBX 5 8 1 0
BITMAP
F8
08
08
10
10
10
20
20
ENDCHAR
STARTCHAR F640
ENCODING 63040
SWIDTH 615 0
DWIDTH 8 0
BBX 5 8 1 0
BITMAP
70
88
88
70
48
88
88
70
ENDCHAR
STARTCHAR F641
ENCODING 63041
SWIDTH 615 0
DWIDTH 8 0
BBX 5 8 2 0
BITMAP
60
90
90
88
78
10
10
E0
ENDCHAR
STARTCHAR F643
ENCODING 63043
SWIDTH 615 0
DWIDTH 8 0
BBX 5 6 1 0
BITMAP
78
88
88
88
88
78
ENDCHAR
STARTCHAR F644
ENCODING 63044
SWIDTH 615 0
DWIDTH 8 0
BBX 4 6 2 0
BITMAP
40
C0
40
40
40
F0
ENDCHAR
STARTCHAR F645
ENCODING 63045
SWIDTH 615 0
DWIDTH 8 0
BBX 5 6 1 0
BITMAP
70
88
08
10
60
F8
ENDCHAR
STARTCHAR F646
ENCODING 63046
SWIDTH 615 0
DWIDTH 8 0
BBX 5 9 1 -3
BITMAP
70
08
08
30
08
08
08
88
70
ENDCHAR
STARTCHAR F647
ENCODING 63047
SWIDTH 615 0
DWIDTH 8 0
BBX 5 8 1 -2
BITMAP
10
30
50
50
90
F8
10
18
ENDCHAR
STARTCHAR F648
ENCODING 63048
SWIDTH 615 0
DWIDTH 8 0
BBX 5 9 1 -3
BITMAP
78
80
80
78
08
08
08
88
70
ENDCHAR
STARTCHAR F649
ENCODING 63049
SWIDTH 615 0
DWIDTH 8 0
BBX 5 8 2 0
BITMAP
38
C0
80
F0
90
88
90
70
ENDCHAR
STARTCHAR F64A
ENCODING 63050
SWIDTH 615 0
DWIDTH 8 0
BBX 5 8 1 -2
BITMAP
F8
88
08
10
10
10
10
20
ENDCHAR
STARTCHAR F64B
ENCODING 63051
SWIDTH 615 0
DWIDTH 8 0
BBX 5 8 1 0
BITMAP
70
88
88
70
48
88
88
70
ENDCHAR
STARTCHAR F64C
ENCODING 63052
SWIDTH 615 0
DWIDTH 8 0
BBX 5 9 2 -3
BITMAP
60
90
90
88
78
10
10
20
C0
ENDCHAR
STARTCHAR F66D
ENCODING 63085
SWIDTH 615 0
DWIDTH 8 0
BBX 6 9 1 0
BITMAP
88
70
00
60
50
50
78
88
CC
ENDCHAR
STARTCHAR F66E
ENCODING 63086
SWIDTH 615 0
DWIDTH 8 0
BBX 6 8 1 0
BITMAP
78
00
60
50
50
78
88
CC
ENDCHAR
STARTCHAR F66F
ENCODING 63087
SWIDTH 615 0
DWIDTH 8 0
BBX 6 9 1 -3
BITMAP
60
50
50
78
88
CC
08
08
04
ENDCHAR
STARTCHAR F670
ENCODING 63088
SWIDTH 615 0
DWIDTH 8 0
BBX 6 9 1 0
BITMAP
10
20
00
7C
64
58
68
A0
BC
ENDCHAR
STARTCHAR F671
ENCODING 63089
SWIDTH 615 0
DWIDTH 8 0
BBX 6 9 1 0
BITMAP
10
20
00
7C
84
80
80
80
78
ENDCHAR
STARTCHAR F672
ENCODING 63090
SWIDTH 615 0
DWIDTH 8 0
BBX 6 9 1 0
BITMAP
48
30
00
7C
84
80
80
80
78
ENDCHAR
STARTCHAR F673
ENCODING 63091
SWIDTH 615 0
DWIDTH 8 0
BBX 6 9 1 0
BITMAP
30
48
00
7C
84
80
80
80
78
ENDCHAR
STARTCHAR F674
ENCODING 63092
SWIDTH 615 0
DWIDTH 8 0
BBX 6 8 1 0
BITMAP
30
00
7C
84
80
80
80
78
ENDCHAR
STARTCHAR F675
ENCODING 63093
SWIDTH 615 0
DWIDTH 8 0
BBX 5 9 1 0
BITMAP
90
60
00
F0
88
88
88
88
F0
ENDCHAR
STARTCHAR F677
ENCODING 63095
SWIDTH 615 0
DWIDTH 8 0
BBX 6 9 1 0
BITMAP
88
70
00
F8
80
70
90
84
FC
ENDCHAR
STARTCHAR F678
ENCODING 63096
SWIDTH 615 0
DWIDTH 8 0
BBX 6 9 1 0
BITMAP
40
30
00
F8
80
70
90
84
FC
ENDCHAR
STARTCHAR F679
ENCODING 63097
SWIDTH 615 0
DWIDTH 8 0
BBX 6 8 1 0
BITMAP
20
00
F8
80
70
90
84
FC
ENDCHAR
STARTCHAR F67A
ENCODING 63098
SWIDTH 615 0
DWIDTH 8 0
BBX 6 8 1 0
BITMAP
70
00
F8
80
70
90
84
FC
ENDCHAR
STARTCHAR F67B
ENCODING 63099
SWIDTH 615 0
DWIDTH 8 0
BBX 6 9 1 -3
BITMAP
CC
C8
A8
98
98
C8
08
08
78
ENDCHAR
STARTCHAR F67C
ENCODING 63100
SWIDTH 615 0
DWIDTH 8 0
BBX 6 9 1 -3
BITMAP
F8
80
70
90
84
FC
10
10
08
ENDCHAR
STARTCHAR F67D
ENCODING 63101
SWIDTH 615 0
DWIDTH 8 0
BBX 6 9 1 0
BITMAP
48
30
00
7C
80
80
9C
84
7C
ENDCHAR
STARTCHAR F67E
ENCODING 63102
SWIDTH 615 0
DWIDTH 8 0
BBX 6 9 1 0
BITMAP
30
48
00
7C
80
80
9C
84
7C
ENDCHAR
STARTCHAR F67F
ENCODING 63103
SWIDTH 615 0
DWIDTH 8 0
BBX 6 9 1 -3
BITMAP
7C
80
80
9C
84
7C
00
10
20
ENDCHAR
STARTCHAR F680
ENCODING 63104
SWIDTH 615 0
DWIDTH 8 0
BBX 6 8 1 0
BITMAP
30
00
7C
80
80
9C
84
7C
ENDCHAR
STARTCHAR F681
ENCODING 63105
SWIDTH 615 0
DWIDTH 8 0
BBX 6 6 1 0
BITMAP
C8
B8
78
88
88
CC
ENDCHAR
STARTCHAR F682
ENCODING 63106
SWIDTH 615 0
DWIDTH 8 0
BBX 6 8 1 0
BITMAP
30
48
C8
88
78
88
88
CC
ENDCHAR
STARTCHAR F683
ENCODING 63107
SWIDTH 615 0
DWIDTH 8 0
BBX 4 9 2 0
BITMAP
90
E0
00
F0
40
40
40
40
F0
ENDCHAR
STARTCHAR F684
ENCODING 63108
SWIDTH 615 0
DWIDTH 8 0
BBX 6 6 1 0
BITMAP
CC
88
88
A8
A8
D8
ENDCHAR
STARTCHAR F685
ENCODING 63109
SWIDTH 615 0
DWIDTH 8 0
BBX 4 8 2 0
BITMAP
F0
00
F0
40
40
40
40
F0
ENDCHAR
STARTCHAR F686
ENCODING 63110
SWIDTH 615 0
DWIDTH 8 0
BBX 4 9 2 -3
BITMAP
F0
40
40
40
40
F0
40
40
20
ENDCHAR
STARTCHAR F687
ENCODING 63111
SWIDTH 615 0
DWIDTH 8 0
BBX 4 8 2 0
BITMAP
D0
20
F0
40
40
40
40
F0
ENDCHAR
STARTCHAR F688
ENCODING 63112
SWIDTH 615 0
DWIDTH 8 0
BBX 6 9 1 0
BITMAP
08
14
00
3C
08
08
88
88
70
ENDCHAR
STARTCHAR F689
ENCODING 63113
SWIDTH 615 0
DWIDTH 8 0
BBX 6 9 1 -3
BITMAP
CC
90
A0
50
88
C4
00
10
20
ENDCHAR
STARTCHAR F68A
ENCODING 63114
SWIDTH 615 0
DWIDTH 8 0
BBX 6 9 1 0
BITMAP
20
40
00
E0
40
40
40
44
FC
ENDCHAR
STARTCHAR F68B
ENCODING 63115
SWIDTH 615 0
DWIDTH 8 0
BBX 6 6 1 0
BITMAP
E8
50
50
40
44
FC
ENDCHAR
STARTCHAR F68C
ENCODING 63116
SWIDTH 615 0
DWIDTH 8 0
BBX 6 9 1 -3
BITMAP
E0
40
40
40
44
FC
00
10
20
ENDCHAR
STARTCHAR F68D
ENCODING 63117
SWIDTH 615 0
DWIDTH 8 0
BBX 6 6 1 0
BITMAP
E0
40
44
40
44
FC
ENDCHAR
STARTCHAR F68E
ENCODING 63118
SWIDTH 615 0
DWIDTH 8 0
BBX 6 9 1 0
BITMAP
10
20
00
CC
C8
A8
98
98
C8
ENDCHAR
STARTCHAR F68F
ENCODING 63119
SWIDTH 615 0
DWIDTH 8 0
BBX 6 9 1 0
BITMAP
48
30
00
CC
C8
A8
98
98
C8
ENDCHAR
STARTCHAR F690
ENCODING 63120
SWIDTH 615 0
DWIDTH 8 0
BBX 6 9 1 -3
BITMAP
CC
C8
A8
98
98
C8
00
10
20
ENDCHAR
STARTCHAR F691
ENCODING 63121
SWIDTH 615 0
DWIDTH 8 0
BBX 6 9 1 0
BITMAP
48
70
00
78
88
84
84
88
78
ENDCHAR
STARTCHAR F692
ENCODING 63122
SWIDTH 615 0
DWIDTH 8 0
BBX 6 8 1 1
BITMAP
78
00
78
88
84
84
88
78
ENDCHAR
STARTCHAR F693
ENCODING 63123
SWIDTH 615 0
DWIDTH 8 0
BBX 6 8 1 0
BITMAP
78
00
78
88
84
84
88
78
ENDCHAR
STARTCHAR F694
ENCODING 63124
SWIDTH 615 0
DWIDTH 8 0
BBX 6 9 1 0
BITMAP
10
20
04
7C
88
94
A4
C8
F8
ENDCHAR
STARTCHAR F695
ENCODING 63125
SWIDTH 615 0
DWIDTH 8 0
BBX 6 9 1 0
BITMAP
10
20
00
F8
88
88
70
88
C4
ENDCHAR
STARTCHAR F696
ENCODING 63126
SWIDTH 615 0
DWIDTH 8 0
BBX 6 9 1 0
BITMAP
50
20
00
F8
88
88
70
88
C4
ENDCHAR
STARTCHAR F697
ENCODING 63127
SWIDTH 615 0
DWIDTH 8 0
BBX 6 9 1 -3
BITMAP
F8
88
88
70
88
C4
00
00
60
ENDCHAR
STARTCHAR F698
ENCODING 63128
SWIDTH 615 0
DWIDTH 8 0
BBX 5 9 1 0
BITMAP
10
20
00
78
80
60
18
88
F8
ENDCHAR
STARTCHAR F699
ENCODING 63129
SWIDTH 615 0
DWIDTH 8 0
BBX 5 8 1 -2
BITMAP
78
80
60
18
88
F8
20
30
ENDCHAR
STARTCHAR F69A
ENCODING 63130
SWIDTH 615 0
DWIDTH 8 0
BBX 5 9 1 0
BITMAP
20
58
00
78
80
60
18
88
F8
ENDCHAR
STARTCHAR F69B
ENCODING 63131
SWIDTH 615 0
DWIDTH 8 0
BBX 5 9 1 -3
BITMAP
78
80
60
18
88
F8
00
10
20
ENDCHAR
STARTCHAR F69D
ENCODING 63133
SWIDTH 615 0
DWIDTH 8 0
BBX 6 9 1 0
BITMAP
48
30
00
FC
A4
20
20
20
78
ENDCHAR
STARTCHAR F69E
ENCODING 63134
SWIDTH 615 0
DWIDTH 8 0
BBX 6 9 1 -3
BITMAP
FC
A4
20
20
20
78
00
10
20
ENDCHAR
STARTCHAR F69F
ENCODING 63135
SWIDTH 615 0
DWIDTH 8 0
BBX 6 9 1 0
BITMAP
48
70
00
CC
88
88
88
88
70
ENDCHAR
STARTCHAR F6A0
ENCODING 63136
SWIDTH 615 0
DWIDTH 8 0
BBX 6 8 1 1
BITMAP
78
00
CC
88
88
88
88
70
ENDCHAR
STARTCHAR F6A1
ENCODING 63137
SWIDTH 615 0
DWIDTH 8 0
BBX 6 8 1 0
BITMAP
78
00
CC
88
88
88
88
70
ENDCHAR
STARTCHAR F6A2
ENCODING 63138
SWIDTH 615 0
DWIDTH 8 0
BBX 6 9 1 -3
BITMAP
CC
88
88
88
88
70
20
40
30
ENDCHAR
STARTCHAR F6A3
ENCODING 63139
SWIDTH 615 0
DWIDTH 8 0
BBX 6 9 1 0
BITMAP
70
50
20
CC
88
88
88
88
70
ENDCHAR
STARTCHAR F6A4
ENCODING 63140
SWIDTH 615 0
DWIDTH 8 0
BBX 6 8 1 0
BITMAP
68
10
CC
88
88
88
88
70
ENDCHAR
STARTCHAR F6A5
ENCODING 63141
SWIDTH 615 0
DWIDTH 8 0
BBX 6 9 1 0
BITMAP
10
20
00
CC
A4
B8
D8
D8
48
ENDCHAR
STARTCHAR F6A6
ENCODING 63142
SWIDTH 615 0
DWIDTH 8 0
BBX 6 9 1 0
BITMAP
20
58
00
CC
A4
B8
D8
D8
48
ENDCHAR
STARTCHAR F6A7
ENCODING 63143
SWIDTH 615 0
DWIDTH 8 0
BBX 6 8 1 0
BITMAP
58
00
CC
A4
B8
D8
D8
48
ENDCHAR
STARTCHAR F6A8
ENCODING 63144
SWIDTH 615 0
DWIDTH 8 0
BBX 6 9 1 0
BITMAP
40
20
00
CC
A4
B8
D8
D8
48
ENDCHAR
STARTCHAR F6A9
ENCODING 63145
SWIDTH 615 0
DWIDTH 8 0
BBX 6 9 1 0
BITMAP
30
48
00
CC
48
30
20
20
78
ENDCHAR
STARTCHAR F6AA
ENCODING 63146
SWIDTH 615 0
DWIDTH 8 0
BBX 6 9 1 0
BITMAP
40
30
00
CC
48
30
20
20
78
ENDCHAR
STARTCHAR F6AB
ENCODING 63147
SWIDTH 615 0
DWIDTH 8 0
BBX 4 9 2 0
BITMAP
20
40
00
F0
A0
40
40
90
F0
ENDCHAR
STARTCHAR F6AC
ENCODING 63148
SWIDTH 615 0
DWIDTH 8 0
BBX 4 8 2 0
BITMAP
40
00
F0
A0
40
40
90
F0
ENDCHAR
STARTCHAR F6AD
ENCODING 63149
SWIDTH 615 0
DWIDTH 8 0
BBX 4 8 2 0
BITMAP
60
00
F0
40
40
40
40
F0
ENDCHAR
STARTCHAR F6BE
ENCODING 63166
SWIDTH 615 0
DWIDTH 8 0
BBX 4 9 2 -3
BITMAP
F0
10
10
10
10
10
10
10
E0
ENDCHAR
STARTCHAR F6DC
ENCODING 63196
SWIDTH 615 0
DWIDTH 8 0
BBX 4 8 2 0
BITMAP
40
C0
40
40
40
40
40
F0
ENDCHAR
STARTCHAR F6DE
ENCODING 63198
SWIDTH 615 0
DWIDTH 8 0
BBX 8 1 0 3
BITMAP
FF
ENDCHAR
STARTCHAR F724
ENCODING 63268
SWIDTH 615 0
DWIDTH 8 0
BBX 6 10 1 -1
BITMAP
30
70
88
80
60
18
04
88
F8
30
ENDCHAR
STARTCHAR F730
ENCODING 63280
SWIDTH 615 0
DWIDTH 8 0
BBX 5 6 1 0
BITMAP
78
88
88
88
88
78
ENDCHAR
STARTCHAR F731
ENCODING 63281
SWIDTH 615 0
DWIDTH 8 0
BBX 4 6 2 0
BITMAP
40
C0
40
40
40
F0
ENDCHAR
STARTCHAR F732
ENCODING 63282
SWIDTH 615 0
DWIDTH 8 0
BBX 5 6 1 0
BITMAP
70
88
08
10
60
F8
ENDCHAR
STARTCHAR F733
ENCODING 63283
SWIDTH 615 0
DWIDTH 8 0
BBX 5 9 1 -3
BITMAP
70
08
08
30
08
08
08
88
70
ENDCHAR
STARTCHAR F734
ENCODING 63284
SWIDTH 615 0
DWIDTH 8 0
BBX 5 8 1 -2
BITMAP
10
30
50
50
90
F8
10
18
ENDCHAR
STARTCHAR F735
ENCODING 63285
SWIDTH 615 0
DWIDTH 8 0
BBX 5 9 1 -3
BITMAP
78
80
80
78
08
08
08
88
70
ENDCHAR
STARTCHAR F736
ENCODING 63286
SWIDTH 615 0
DWIDTH 8 0
BBX 5 8 2 0
BITMAP
38
C0
80
F0
90
88
90
70
ENDCHAR
STARTCHAR F737
ENCODING 63287
SWIDTH 615 0
DWIDTH 8 0
BBX 5 8 1 -2
BITMAP
F8
88
08
10
10
10
10
20
ENDCHAR
STARTCHAR F738
ENCODING 63288
SWIDTH 615 0
DWIDTH 8 0
BBX 5 8 1 0
BITMAP
70
88
88
70
48
88
88
70
ENDCHAR
STARTCHAR F739
ENCODING 63289
SWIDTH 615 0
DWIDTH 8 0
BBX 5 9 2 -3
BITMAP
60
90
90
88
78
10
10
20
C0
ENDCHAR
STARTCHAR F761
ENCODING 63329
SWIDTH 615 0
DWIDTH 8 0
BBX 6 6 1 0
BITMAP
60
50
50
78
88
CC
ENDCHAR
STARTCHAR F762
ENCODING 63330
SWIDTH 615 0
DWIDTH 8 0
BBX 6 6 1 0
BITMAP
F8
88
78
88
84
F8
ENDCHAR
STARTCHAR F763
ENCODING 63331
SWIDTH 615 0
DWIDTH 8 0
BBX 6 6 1 0
BITMAP
7C
84
80
80
80
78
ENDCHAR
STARTCHAR F764
ENCODING 63332
SWIDTH 615 0
DWIDTH 8 0
BBX 5 6 1 0
BITMAP
F0
88
88
88
88
F0
ENDCHAR
STARTCHAR F765
ENCODING 63333
SWIDTH 615 0
DWIDTH 8 0
BBX 6 6 1 0
BITMAP
F8
80
70
90
84
FC
ENDCHAR
STARTCHAR F766
ENCODING 63334
SWIDTH 615 0
DWIDTH 8 0
BBX 6 6 1 0
BITMAP
FC
80
70
90
80
E0
ENDCHAR
STARTCHAR F767
ENCODING 63335
SWIDTH 615 0
DWIDTH 8 0
BBX 6 6 1 0
BITMAP
7C
80
80
9C
84
7C
ENDCHAR
STARTCHAR F768
ENCODING 63336
SWIDTH 615 0
DWIDTH 8 0
BBX 6 6 1 0
BITMAP
C8
88
78
88
88
CC
ENDCHAR
STARTCHAR F769
ENCODING 63337
SWIDTH 615 0
DWIDTH 8 0
BBX 4 6 2 0
BITMAP
F0
40
40
40
40
F0
ENDCHAR
STARTCHAR F76A
ENCODING 63338
SWIDTH 615 0
DWIDTH 8 0
BBX 6 6 1 0
BITMAP
3C
08
08
88
88
70
ENDCHAR
STARTCHAR F76B
ENCODING 63339
SWIDTH 615 0
DWIDTH 8 0
BBX 6 6 1 0
BITMAP
CC
90
A0
50
88
C4
ENDCHAR
STARTCHAR F76C
ENCODING 63340
SWIDTH 615 0
DWIDTH 8 0
BBX 6 6 1 0
BITMAP
E0
40
40
40
44
FC
ENDCHAR
STARTCHAR F76D
ENCODING 63341
SWIDTH 615 0
DWIDTH 8 0
BBX 6 6 1 0
BITMAP
8C
CC
D4
B4
84
CC
ENDCHAR
STARTCHAR F76E
ENCODING 63342
SWIDTH 615 0
DWIDTH 8 0
BBX 6 6 1 0
BITMAP
CC
C8
A8
98
98
C8
ENDCHAR
STARTCHAR F76F
ENCODING 63343
SWIDTH 615 0
DWIDTH 8 0
BBX 6 6 1 0
BITMAP
78
88
84
84
88
78
ENDCHAR
STARTCHAR F770
ENCODING 63344
SWIDTH 615 0
DWIDTH 8 0
BBX 5 6 1 0
BITMAP
F8
88
88
70
80
E0
ENDCHAR
STARTCHAR F771
ENCODING 63345
SWIDTH 615 0
DWIDTH 8 0
BBX 6 7 1 -1
BITMAP
78
88
84
84
88
78
7C
ENDCHAR
STARTCHAR F772
ENCODING 63346
SWIDTH 615 0
DWIDTH 8 0
BBX 6 6 1 0
BITMAP
F8
88
88
70
88
C4
ENDCHAR
STARTCHAR F773
ENCODING 63347
SWIDTH 615 0
DWIDTH 8 0
BBX 5 6 1 0
BITMAP
78
80
60
18
88
F8
ENDCHAR
STARTCHAR F774
ENCODING 63348
SWIDTH 615 0
DWIDTH 8 0
BBX 6 6 1 0
BITMAP
FC
A4
20
20
20
78
ENDCHAR
STARTCHAR F775
ENCODING 63349
SWIDTH 615 0
DWIDTH 8 0
BBX 6 6 1 0
BITMAP
CC
88
88
88
88
70
ENDCHAR
STARTCHAR F776
ENCODING 63350
SWIDTH 615 0
DWIDTH 8 0
BBX 6 6 1 0
BITMAP
CC
88
48
50
50
20
ENDCHAR
STARTCHAR F777
ENCODING 63351
SWIDTH 615 0
DWIDTH 8 0
BBX 6 6 1 0
BITMAP
CC
A4
B8
D8
D8
48
ENDCHAR
STARTCHAR F778
ENCODING 63352
SWIDTH 615 0
DWIDTH 8 0
BBX 6 6 1 0
BITMAP
CC
50
30
30
48
CC
ENDCHAR
STARTCHAR F779
ENCODING 63353
SWIDTH 615 0
DWIDTH 8 0
BBX 6 6 1 0
BITMAP
CC
48
30
20
20
78
ENDCHAR
STARTCHAR F77A
ENCODING 63354
SWIDTH 615 0
DWIDTH 8 0
BBX 4 6 2 0
BITMAP
F0
A0
40
40
90
F0
ENDCHAR
STARTCHAR F7A2
ENCODING 63394
SWIDTH 615 0
DWIDTH 8 0
BBX 6 8 1 -1
BITMAP
20
7C
84
80
80
84
78
20
ENDCHAR
STARTCHAR F7E0
ENCODING 63456
SWIDTH 615 0
DWIDTH 8 0
BBX 6 9 1 0
BITMAP
40
20
00
60
50
50
78
88
CC
ENDCHAR
STARTCHAR F7E1
ENCODING 63457
SWIDTH 615 0
DWIDTH 8 0
BBX 6 9 1 0
BITMAP
10
20
00
60
50
50
78
88
CC
ENDCHAR
STARTCHAR F7E2
ENCODING 63458
SWIDTH 615 0
DWIDTH 8 0
BBX 6 9 1 0
BITMAP
20
58
00
60
50
50
78
88
CC
ENDCHAR
STARTCHAR F7E3
ENCODING 63459
SWIDTH 615 0
DWIDTH 8 0
BBX 6 8 1 0
BITMAP
68
10
60
50
50
78
88
CC
ENDCHAR
STARTCHAR F7E4
ENCODING 63460
SWIDTH 615 0
DWIDTH 8 0
BBX 6 8 1 0
BITMAP
58
00
60
50
50
78
88
CC
ENDCHAR
STARTCHAR F7E5
ENCODING 63461
SWIDTH 615 0
DWIDTH 8 0
BBX 6 9 1 0
BITMAP
70
50
20
60
50
50
78
88
CC
ENDCHAR
STARTCHAR F7E6
ENCODING 63462
SWIDTH 615 0
DWIDTH 8 0
BBX 6 6 1 0
BITMAP
7C
64
58
68
A0
BC
ENDCHAR
STARTCHAR F7E7
ENCODING 63463
SWIDTH 615 0
DWIDTH 8 0
BBX 6 8 1 -2
BITMAP
7C
84
80
80
80
78
20
10
ENDCHAR
STARTCHAR F7E8
ENCODING 63464
SWIDTH 615 0
DWIDTH 8 0
BBX 6 9 1 0
BITMAP
40
20
00
F8
80
70
90
84
FC
ENDCHAR
STARTCHAR F7E9
ENCODING 63465
SWIDTH 615 0
DWIDTH 8 0
BBX 6 9 1 0
BITMAP
10
20
00
F8
80
70
90
84
FC
ENDCHAR
STARTCHAR F7EA
ENCODING 63466
SWIDTH 615 0
DWIDTH 8 0
BBX 6 9 1 0
BITMAP
20
50
00
F8
80
70
90
84
FC
ENDCHAR
STARTCHAR F7EB
ENCODING 63467
SWIDTH 615 0
DWIDTH 8 0
BBX 6 8 1 0
BITMAP
58
00
F8
80
70
90
84
FC
ENDCHAR
STARTCHAR F7EC
ENCODING 63468
SWIDTH 615 0
DWIDTH 8 0
BBX 4 9 2 0
BITMAP
80
40
00
F0
40
40
40
40
F0
ENDCHAR
STARTCHAR F7ED
ENCODING 63469
SWIDTH 615 0
DWIDTH 8 0
BBX 4 9 2 0
BITMAP
20
40
00
F0
40
40
40
40
F0
ENDCHAR
STARTCHAR F7EE
ENCODING 63470
SWIDTH 615 0
DWIDTH 8 0
BBX 4 9 2 0
BITMAP
40
B0
00
F0
40
40
40
40
F0
ENDCHAR
STARTCHAR F7EF
ENCODING 63471
SWIDTH 615 0
DWIDTH 8 0
BBX 4 8 2 0
BITMAP
B0
00
F0
40
40
40
40
F0
ENDCHAR
STARTCHAR F7F0
ENCODING 63472
SWIDTH 615 0
DWIDTH 8 0
BBX 5 6 1 0
BITMAP
F0
88
E8
88
88
F0
ENDCHAR
STARTCHAR F7F1
ENCODING 63473
SWIDTH 615 0
DWIDTH 8 0
BBX 6 8 1 0
BITMAP
68
10
CC
C8
A8
98
98
C8
ENDCHAR
STARTCHAR F7F2
ENCODING 63474
SWIDTH 615 0
DWIDTH 8 0
BBX 6 9 1 0
BITMAP
40
20
00
78
88
84
84
88
78
ENDCHAR
STARTCHAR F7F3
ENCODING 63475
SWIDTH 615 0
DWIDTH 8 0
BBX 6 9 1 0
BITMAP
10
20
00
78
88
84
84
88
78
ENDCHAR
STARTCHAR F7F4
ENCODING 63476
SWIDTH 615 0
DWIDTH 8 0
BBX 6 9 1 0
BITMAP
20
58
00
78
88
84
84
88
78
ENDCHAR
STARTCHAR F7F5
ENCODING 63477
SWIDTH 615 0
DWIDTH 8 0
BBX 6 8 1 0
BITMAP
68
10
78
88
84
84
88
78
ENDCHAR
STARTCHAR F7F6
ENCODING 63478
SWIDTH 615 0
DWIDTH 8 0
BBX 6 8 1 0
BITMAP
58
00
78
88
84
84
88
78
ENDCHAR
STARTCHAR F7F8
ENCODING 63480
SWIDTH 615 0
DWIDTH 8 0
BBX 6 7 1 0
BITMAP
04
7C
88
94
A4
C8
F8
ENDCHAR
STARTCHAR F7F9
ENCODING 63481
SWIDTH 615 0
DWIDTH 8 0
BBX 6 9 1 0
BITMAP
40
20
00
CC
88
88
88
88
70
ENDCHAR
STARTCHAR F7FA
ENCODING 63482
SWIDTH 615 0
DWIDTH 8 0
BBX 6 9 1 0
BITMAP
10
20
00
CC
88
88
88
88
70
ENDCHAR
STARTCHAR F7FB
ENCODING 63483
SWIDTH 615 0
DWIDTH 8 0
BBX 6 9 1 0
BITMAP
20
58
00
CC
88
88
88
88
70
ENDCHAR
STARTCHAR F7FC
ENCODING 63484
SWIDTH 615 0
DWIDTH 8 0
BBX 6 8 1 0
BITMAP
58
00
CC
88
88
88
88
70
ENDCHAR
STARTCHAR F7FD
ENCODING 63485
SWIDTH 615 0
DWIDTH 8 0
BBX 6 9 1 0
BITMAP
10
20
00
CC
48
30
20
20
78
ENDCHAR
STARTCHAR F7FE
ENCODING 63486
SWIDTH 615 0
DWIDTH 8 0
BBX 5 6 1 0
BITMAP
E0
60
98
88
70
E0
ENDCHAR
STARTCHAR F7FF
ENCODING 63487
SWIDTH 615 0
DWIDTH 8 0
BBX 6 8 1 0
BITMAP
58
00
CC
48
30
20
20
78
ENDCHAR
STARTCHAR FB00
ENCODING 64256
SWIDTH 615 0
DWIDTH 8 0
BBX 8 8 0 0
BITMAP
33
44
FE
44
44
44
44
EE
ENDCHAR
STARTCHAR FB01
ENCODING 64257
SWIDTH 615 0
DWIDTH 8 0
BBX 7 8 0 0
BITMAP
36
40
FC
44
44
44
44
E6
ENDCHAR
STARTCHAR FB02
ENCODING 64258
SWIDTH 615 0
DWIDTH 8 0
BBX 7 8 0 0
BITMAP
3C
44
E4
44
44
44
44
E6
ENDCHAR
ENDFONT
